<?xml version="1.0" standalone="no"?> <!DOCTYPE svg PUBLIC "-//W3C//DTD SVG 1.0//EN" "http://www.w3.org/TR/2001/REC-SVG-20010904/DTD/svg10.dtd" > <svg xmlns="http://www.w3.org/2000/svg" width="100%" height="100%">
<defs >
<font id="myriadproregular" horiz-adv-x="991" ><font-face
    font-family="Myriad Pro"
    units-per-em="2048"
    panose-1="2 11 5 3 3 4 3 2 2 4"
    ascent="1536"
    descent="-512"
    alphabetic="0" />
<missing-glyph horiz-adv-x="1024" d="M0 0V1434H1024V0H0ZM512 809L860 1331H164L512 809ZM573 717L922 195V1239L573 717ZM164 102H860L512 625L164 102ZM102 1239V195L451 717L102 1239Z" />
<glyph unicode=" " glyph-name="space" horiz-adv-x="434" />
<glyph unicode="!" glyph-name="exclam" horiz-adv-x="471" d="M305 397H166L137 1380H334L305 397ZM236 -23Q183 -23 149 13T115 104Q115 159 149 195T236 231Q290 231 323 196T356 104Q356 50 323 14T236 -23Z" />
<glyph unicode="&quot;" glyph-name="quotedbl" horiz-adv-x="690" d="M104 1403H283L248 911H137L104 1403ZM410 1403H588L553 911H444L410 1403Z" />
<glyph unicode="#" glyph-name="numbersign" horiz-adv-x="1017" d="M385 522H598L637 819H424L385 522ZM313 0H190L244 401H76V522H262L301 819H125V940H319L373 1331H492L440 940H653L707 1331H827L776 940H944V819H758L721 522H897V401H702L649 0H526L580 401H367L313
0Z" />
<glyph unicode="$" glyph-name="dollar" horiz-adv-x="1050" d="M575 -176H446V31Q359 32 274 57T133 121L182 258Q315 170 477 170Q586 170 653 226T721 371Q721 452 664 509T489 614Q320 681 236 762T152 969Q152 1097 235 1186T461 1298V1505H588V1307Q741
1302 854 1235L803 1100Q679 1169 545 1169Q436 1169 382 1117T328 993Q328 917 384 868T582 760Q745 694 822 606T899 385Q899 258 814 160T575 37V-176Z" />
<glyph unicode="%" glyph-name="percent" horiz-adv-x="1622" d="M383 1354Q525 1354 608 1249T692 956Q692 755 601 646T373 537Q241 537 152 641T61 938Q61 1131 153 1242T383 1354ZM377 1245Q295 1245 250 1161T205 944Q202 813 248 729T377 645Q463 645 506
727T549 948Q549 1080 507 1162T377 1245ZM475 -23H360L1143 1354H1257L475 -23ZM1251 803Q1393 803 1476 699T1559 406Q1559 205 1468 96T1241 -14Q1178 -14 1123 11T1024 85T956 211T930 385Q930 579 1022 691T1251 803ZM1245 694Q1164 694 1118 609T1071 393Q1069
263 1116 179T1245 94Q1331 94 1374 176T1417 397Q1417 529 1375 611T1245 694Z" />
<glyph unicode="&amp;" glyph-name="ampersand" horiz-adv-x="1239" d="M1233 0H1020L891 135Q720 -23 487 -23Q293 -23 178 90T63 365Q63 620 334 768V774Q219 918 219 1063Q219 1199 313 1301T569 1403Q700 1403 787 1322T874 1110Q874 999 803 910T571 741V735L907
350Q1001 490 1040 754H1204Q1145 409 1006 244L1233 0ZM518 113Q688 113 803 238L414 672Q236 559 236 391Q236 272 315 193T518 113ZM557 1280Q475 1280 429 1222T383 1079Q383 961 487 831Q603 897 660 958T717 1102Q717 1173 677 1226T557 1280Z" />
<glyph unicode="&apos;" glyph-name="quotesingle" horiz-adv-x="385" d="M104 1403H283L248 911H137L104 1403Z" />
<glyph unicode="(" glyph-name="parenleft" horiz-adv-x="581" d="M399 1421H541Q283 1077 283 584Q283 114 541 -248H399Q131 105 131 584Q133 1067 399 1421Z" />
<glyph unicode=")" glyph-name="parenright" horiz-adv-x="581" d="M180 -248H41Q299 113 299 590Q299 1066 41 1421H180Q449 1076 449 588Q449 109 180 -248Z" />
<glyph unicode="*" glyph-name="asterisk" horiz-adv-x="849" d="M551 1403L674 1333L479 1077V1073L788 1114V975L479 1012V1008L676 762L547 688L424 975H420L287 686L170 760L365 1010V1014L61 975V1114L362 1075V1079L170 1329L295 1401L422 1116H426L551 1403Z" />
<glyph unicode="+" glyph-name="plus" horiz-adv-x="1220" d="M545 1090H676V608H1139V485H676V0H545V485H82V608H545V1090Z" />
<glyph unicode="," glyph-name="comma" horiz-adv-x="423" d="M162 -240L33 -252Q67 -161 103 -18T156 238L356 258Q321 130 264 -18T162 -240Z" />
<glyph unicode="-" glyph-name="hyphen" horiz-adv-x="628" d="M61 621H567V487H61V621Z" />
<glyph unicode="." glyph-name="period" horiz-adv-x="423" d="M227 -23Q174 -23 140 14T106 106Q106 163 141 199T229 236Q283 236 316 200T350 106Q350 50 317 14T227 -23Z" />
<glyph unicode="/" glyph-name="slash" horiz-adv-x="702" d="M135 -82H-2L569 1403H709L135 -82Z" />
<glyph unicode="0" glyph-name="zero" horiz-adv-x="1050" d="M537 1354Q746 1354 861 1177T977 680Q977 341 857 159T514 -23Q315 -23 196 157T74 662Q74 989 201 1171T537 1354ZM526 1214Q404 1214 329 1069T254 659Q254 403 326 260T524 117Q660 117 728 263T797
672Q797 926 730 1070T526 1214Z" />
<glyph unicode="1" glyph-name="one" horiz-adv-x="1050" d="M483 0V1163H479L248 1038L213 1176L504 1331H657V0H483Z" />
<glyph unicode="2" glyph-name="two" horiz-adv-x="1050" d="M942 0H92V111L233 248Q373 381 455 467T605 640T700 798T729 944Q729 986 721 1023T694 1093T644 1151T569 1190T465 1204Q318 1204 182 1092L125 1219Q286 1354 502 1354Q605 1354 685 1321T813 1231T885
1108T909 967Q909 877 879 792T783 616T643 446T451 252L344 154V150H942V0Z" />
<glyph unicode="3" glyph-name="three" horiz-adv-x="1050" d="M86 68L135 207Q183 176 264 150T430 123Q513 123 574 147T669 211T717 293T731 381Q730 448 701 500T623 584T514 631T387 647H287V782H387Q457 782 522 804T636 880T684 1008Q684 1094 626 1151T451
1208Q377 1208 306 1182T184 1120L137 1251Q194 1293 289 1323T485 1354Q580 1354 655 1328T775 1256T843 1154T866 1036Q866 931 804 849T621 723V719Q749 693 833 602T918 377Q918 296 887 225T796 98T642 10T432 -23Q329 -23 236 4T86 68Z" />
<glyph unicode="4" glyph-name="four" horiz-adv-x="1050" d="M819 0H649V362H31V481L625 1331H819V504H1006V362H819V0ZM213 504H649V948Q649 1052 655 1157H649Q603 1069 539 961L213 508V504Z" />
<glyph unicode="5" glyph-name="five" horiz-adv-x="1050" d="M887 1331V1180H379L328 838Q388 846 436 846Q603 846 723 774Q807 726 860 639T913 432Q913 236 774 107T418 -23Q316 -23 228 1T86 59L131 197Q180 168 256 146T416 123Q548 123 639 202T731 412Q729
548 635 627T348 707Q286 707 164 692L250 1331H887Z" />
<glyph unicode="6" glyph-name="six" horiz-adv-x="1050" d="M852 1352V1204Q790 1207 717 1196Q614 1179 530 1134T391 1024T301 883T254 723H260Q312 791 394 834T582 877Q760 877 871 759T983 446Q983 323 931 217T777 44T541 -23Q327 -23 199 131T70 545Q70
734 131 888T295 1145Q465 1311 721 1341Q786 1352 852 1352ZM541 117Q657 117 729 205T801 436Q801 578 727 659T526 741Q446 741 376 696T268 578Q248 543 248 498Q251 328 327 223T541 117Z" />
<glyph unicode="7" glyph-name="seven" horiz-adv-x="1050" d="M117 1331H956V1212L377 0H190L768 1178V1182H117V1331Z" />
<glyph unicode="8" glyph-name="eight" horiz-adv-x="1050" d="M522 -23Q320 -23 198 81T76 338Q76 461 145 551T340 694L338 700Q232 750 180 829T127 999Q127 1156 244 1255T539 1354Q722 1354 824 1257T926 1026Q926 933 874 852T707 715V709Q834 658 904 571T975
365Q975 194 846 86T522 -23ZM526 109Q646 109 719 175T793 346Q793 461 719 528T500 637Q384 604 322 531T260 362Q255 257 328 183T526 109ZM528 1225Q421 1225 359 1164T297 1012Q297 917 362 858T551 766Q642 797 698 859T754 1008Q754 1097 698 1161T528 1225Z"
/>
<glyph unicode="9" glyph-name="nine" horiz-adv-x="1050" d="M197 -20V127Q238 123 342 133Q508 155 621 262Q761 389 797 616H791Q673 473 477 473Q301 473 193 589T84 881Q84 1007 140 1114T301 1288T539 1354Q742 1354 860 1202T979 793Q979 584 917 427T750
168Q593 16 362 -10Q266 -25 197 -20ZM524 1217Q409 1217 336 1126T262 893Q262 767 332 689T518 610Q606 610 674 648T780 750Q797 775 797 815Q797 932 769 1020T678 1163T524 1217Z" />
<glyph unicode=":" glyph-name="colon" horiz-adv-x="423" d="M227 700Q174 700 140 736T106 827Q106 884 140 920T229 956T315 921T350 827Q350 772 317 736T227 700ZM227 -23Q174 -23 140 13T106 104Q106 161 140 197T229 233T315 198T350 104Q350 49 317 13T227 -23Z" />
<glyph unicode=";" glyph-name="semicolon" horiz-adv-x="423" d="M160 -240L35 -252Q69 -161 105 -18T158 238L356 258Q320 129 262 -19T160 -240ZM244 700Q191 700 157 736T123 827Q123 884 157 920T244 956Q298 956 331 920T365 827Q365 773 332 737T244 700Z" />
<glyph unicode="&lt;" glyph-name="less" horiz-adv-x="1220" d="M135 489V600L1085 1090V948L285 547V543L1085 141V0L135 489Z" />
<glyph unicode="=" glyph-name="equal" horiz-adv-x="1220" d="M1139 690H82V813H1139V690ZM1139 289H82V412H1139V289Z" />
<glyph unicode="&gt;" glyph-name="greater" horiz-adv-x="1220" d="M1085 602V487L135 0V141L942 543V547L135 948V1090L1085 602Z" />
<glyph unicode="?" glyph-name="question" horiz-adv-x="831" d="M449 391H289L285 444Q264 622 412 799Q486 886 520 950T555 1079Q555 1160 505 1207T360 1255Q305 1255 249 1238T154 1192L104 1321Q155 1358 235 1380T397 1403Q564 1403 651 1316T739 1102Q739
1007 696 929T563 745Q496 666 469 595T446 444L449 391ZM365 -23Q312 -23 278 13T244 104Q244 161 278 197T367 233Q420 233 453 197T487 104Q487 49 454 13T365 -23Z" />
<glyph unicode="@" glyph-name="at" horiz-adv-x="1509" d="M918 522L961 754Q912 768 858 768Q724 768 628 659T532 399Q532 329 567 287T668 244Q752 244 826 332T918 522ZM1040 -43L1073 -131Q917 -213 709 -213Q583 -213 470 -168T273 -42T138 161T88 426Q88
584 141 727T290 977T528 1148T836 1212Q1101 1212 1266 1046T1432 621Q1432 509 1402 416T1322 261T1206 167T1067 133Q1000 133 956 179T915 313H907Q800 133 618 133Q526 133 462 203T397 391Q397 518 458 629T632 808T883 877Q1007 877 1102 834L1032 463Q987
238 1094 233Q1178 231 1246 335T1315 608Q1315 836 1184 977T819 1118Q694 1118 582 1070T387 935T254 719T205 438Q205 186 352 36T731 -115Q911 -115 1040 -43Z" />
<glyph unicode="A" glyph-name="A" horiz-adv-x="1253" d="M868 434H379L236 0H51L520 1380H735L1206 0H1016L868 434ZM416 573H831L696 971Q664 1067 625 1223H621Q580 1064 551 973L416 573Z" />
<glyph unicode="B" glyph-name="B" horiz-adv-x="1110" d="M156 4V1362Q296 1391 481 1391Q736 1391 860 1290Q975 1205 975 1047Q975 946 913 865T741 743V739Q793 726 841 700T932 632T1000 528T1026 393Q1026 229 909 117Q768 -12 432 -12Q274 -12 156 4ZM334
1241V797H496Q634 797 714 861T795 1028Q795 1144 715 1198T492 1253Q390 1253 334 1241ZM334 662V135Q381 127 483 127Q556 127 617 141T729 185T809 269T838 395Q838 529 738 595T481 662H334Z" />
<glyph unicode="C" glyph-name="C" horiz-adv-x="1187" d="M1083 186L1120 45Q1066 18 970 -1T756 -20Q609 -20 485 26T269 158T126 378T74 678Q74 838 127 973T274 1202T502 1350T795 1403Q1005 1403 1122 1341L1079 1196Q963 1253 801 1253Q554 1253 408 1103T262
684Q262 428 402 279T793 129Q964 129 1083 186Z" />
<glyph unicode="D" glyph-name="D" horiz-adv-x="1363" d="M156 4V1362Q352 1391 535 1391Q908 1391 1094 1219Q1288 1041 1288 723Q1288 381 1090 186Q993 89 837 39T479 -12Q300 -12 156 4ZM334 1231V141Q390 131 514 131Q799 131 950 283T1102 717Q1104 967
962 1108T543 1249Q419 1249 334 1231Z" />
<glyph unicode="E" glyph-name="E" horiz-adv-x="1007" d="M870 795V647H334V150H932V0H156V1380H901V1231H334V795H870Z" />
<glyph unicode="F" glyph-name="F" horiz-adv-x="997" d="M156 0V1380H899V1231H334V772H856V625H334V0H156Z" />
<glyph unicode="G" glyph-name="G" horiz-adv-x="1323" d="M1206 725V61Q992 -14 782 -14Q456 -14 266 168Q176 255 125 389T74 682Q75 836 127 967T274 1193T510 1341T821 1395Q931 1395 1022 1376T1165 1331L1122 1186Q991 1245 817 1245Q563 1245 413 1097T262
690Q262 430 406 282T795 133Q956 133 1032 170V582H752V725H1206Z" />
<glyph unicode="H" glyph-name="H" horiz-adv-x="1335" d="M156 1380H334V803H1001V1380H1182V0H1001V647H334V0H156V1380Z" />
<glyph unicode="I" glyph-name="I" horiz-adv-x="489" d="M156 1380H334V0H156V1380Z" />
<glyph unicode="J" glyph-name="J" horiz-adv-x="757" d="M438 471V1380H616V457Q616 -23 199 -23Q90 -23 8 10L35 156Q102 129 184 129Q247 129 291 145T370 198T421 304T438 471Z" />
<glyph unicode="K" glyph-name="K" horiz-adv-x="1110" d="M156 0V1380H334V715H340Q387 782 449 862L870 1380H1092L592 795L1130 0H920L465 678L334 526V0H156Z" />
<glyph unicode="L" glyph-name="L" horiz-adv-x="966" d="M156 0V1380H334V150H924V0H156Z" />
<glyph unicode="M" glyph-name="M" horiz-adv-x="1646" d="M1354 0L1319 606Q1296 1046 1298 1202H1292Q1221 959 1118 678L874 8H739L516 666Q404 1001 356 1202H352Q346 932 326 592L289 0H119L215 1380H442L678 713Q771 435 817 248H823Q870 436 969 713L1214
1380H1442L1528 0H1354Z" />
<glyph unicode="N" glyph-name="N" horiz-adv-x="1347" d="M324 0H156V1380H350L793 682Q945 441 1040 233L1044 236Q1024 466 1024 803V1380H1192V0H1012L573 700Q405 970 315 1161L309 1159Q324 898 324 590V0Z" />
<glyph unicode="O" glyph-name="O" horiz-adv-x="1411" d="M715 1403Q901 1403 1042 1314T1259 1067T1335 705Q1335 531 1285 391T1147 162T944 25T694 -23Q420 -23 247 171T74 678Q74 839 122 975T256 1205T459 1351T715 1403ZM707 1257Q600 1257 514 1210T375
1083T293 900T264 682Q264 532 314 407T467 202T705 123Q808 123 892 168T1032 292T1117 474T1147 696Q1147 780 1130 860T1077 1012T991 1138T867 1225T707 1257Z" />
<glyph unicode="P" glyph-name="P" horiz-adv-x="1089" d="M156 0V1364Q322 1391 498 1391Q758 1391 885 1276Q1006 1171 1006 987Q1006 802 899 692Q830 618 720 580T477 541Q383 541 334 553V0H156ZM334 1235V698Q389 684 481 684Q644 684 735 760T827 979Q827
1112 740 1180T502 1249Q388 1249 334 1235Z" />
<glyph unicode="Q" glyph-name="Q" horiz-adv-x="1411" d="M1346 -53L1294 -203Q1026 -132 766 -43Q708 -23 682 -23Q583 -19 493 11T327 101T194 241T106 434T74 676Q74 839 122 975T255 1205T459 1351T717 1403Q901 1403 1042 1314T1259 1066T1335 705Q1335
447 1228 276T942 43V35Q1166 -22 1346 -53ZM702 123Q840 123 942 201T1096 407T1147 696Q1147 802 1120 901T1040 1080T902 1208T711 1257Q602 1257 515 1209T373 1080T291 897T264 680Q263 570 293 470T377 292T516 169T702 123Z" />
<glyph unicode="R" glyph-name="R" horiz-adv-x="1101" d="M156 0V1362Q301 1391 498 1391Q640 1391 736 1364T897 1278Q1006 1183 1006 1016Q1006 885 934 794T745 664V657Q896 606 948 379Q1023 59 1055 0H870Q841 51 778 330Q747 473 685 533T502 598H334V0H156ZM334
1237V733H516Q658 733 742 805T827 995Q827 1124 743 1187T510 1253Q390 1253 334 1237Z" />
<glyph unicode="S" glyph-name="S" horiz-adv-x="1009" d="M86 68L131 217Q278 127 451 127Q585 127 662 191T739 362Q739 459 680 521T479 637Q301 700 208 794T115 1028Q115 1191 238 1297T561 1403Q747 1403 866 1335L817 1190Q695 1255 555 1255Q425 1255
360 1193T295 1049Q295 956 357 898T569 782Q751 712 836 619T922 377Q922 296 892 225T803 99T651 12T438 -20Q339 -20 241 5T86 68Z" />
<glyph unicode="T" glyph-name="T" horiz-adv-x="1017" d="M418 0V1229H-2V1380H1020V1229H598V0H418Z" />
<glyph unicode="U" glyph-name="U" horiz-adv-x="1325" d="M154 1380H334V563Q334 341 421 232T655 123Q814 123 902 232T991 563V1380H1171V575Q1171 420 1132 304T1022 117T857 12T649 -23Q540 -23 452 9T296 110T191 295T154 567V1380Z" />
<glyph unicode="V" glyph-name="V" horiz-adv-x="1142" d="M655 0H459L8 1380H201L416 700Q520 372 563 184H567Q608 354 725 698L958 1380H1149L655 0Z" />
<glyph unicode="W" glyph-name="W" horiz-adv-x="1732" d="M567 0H381L31 1380H219L383 682Q449 407 485 205H489Q513 345 602 684L786 1380H973L1141 680Q1214 372 1237 207H1241Q1268 349 1352 684L1534 1380H1716L1325 0H1139L965 719Q898 993 874 1169H870Q834
963 764 719L567 0Z" />
<glyph unicode="X" glyph-name="X" horiz-adv-x="1169" d="M1118 0H911L735 305Q619 496 575 578H571Q505 442 422 303L256 0H51L473 698L68 1380H274L457 1057Q542 907 584 823H590Q639 925 715 1057L903 1380H1108L688 709L1118 0Z" />
<glyph unicode="Y" glyph-name="Y" horiz-adv-x="1107" d="M643 0H463V586L27 1380H229L424 999Q505 840 561 715H565Q603 802 705 999L903 1380H1106L643 588V0Z" />
<glyph unicode="Z" glyph-name="Z" horiz-adv-x="1132" d="M61 0V104L827 1225V1231H127V1380H1059V1272L297 156V150H1069V0H61Z" />
<glyph unicode="[" glyph-name="bracketleft" horiz-adv-x="581" d="M543 -229H168V1403H543V1290H307V-117H543V-229Z" />
<glyph unicode="\" glyph-name="backslash" horiz-adv-x="698" d="M700 -82H561L4 1403H143L700 -82Z" />
<glyph unicode="]" glyph-name="bracketright" horiz-adv-x="581" d="M39 1405H414V-229H39V-117H274V1292H39V1405Z" />
<glyph unicode="^" glyph-name="asciicircum" horiz-adv-x="1220" d="M1098 387H954L612 1182H608L266 387H123L547 1331H674L1098 387Z" />
<glyph unicode="_" glyph-name="underscore" horiz-adv-x="1024" d="M0 -154H1024V-256H0V-154Z" />
<glyph unicode="`" glyph-name="grave" horiz-adv-x="614" d="M45 1419H244L422 1126H295L45 1419Z" />
<glyph unicode="a" glyph-name="a" horiz-adv-x="987" d="M862 0H698L684 125H678Q633 61 554 19T375 -23Q279 -23 209 19T105 124T72 262Q72 442 226 537T668 631V651Q668 681 665 707T647 766T610 824T543 864T442 881Q299 881 184 807L143 926Q279 1014 469
1014Q557 1014 624 991T733 929T800 837T836 727T846 608V238Q846 91 862 0ZM672 334V506Q252 515 252 283Q252 199 300 155T422 111Q513 111 575 159T662 276Q672 308 672 334Z" />
<glyph unicode="b" glyph-name="b" horiz-adv-x="1165" d="M297 0H141Q150 153 150 256V1454H328V831H332Q381 917 467 965T670 1014Q855 1014 972 873T1087 508Q1087 380 1049 277T948 109T806 11T643 -23Q417 -23 311 164H305L297 0ZM328 575V397Q328 372 336
332Q363 237 436 179T606 121Q746 121 826 225T907 502Q907 658 829 764T612 870Q518 870 442 810T338 649Q328 599 328 575Z" />
<glyph unicode="c" glyph-name="c" horiz-adv-x="917" d="M825 172L856 37Q814 15 739 -2T571 -20Q347 -20 213 118T78 485Q78 717 224 864T610 1012Q756 1012 860 961L819 821Q738 868 610 868Q446 868 353 762T260 494Q260 325 357 224T604 123Q711 123 825 172Z" />
<glyph unicode="d" glyph-name="d" horiz-adv-x="1155" d="M825 1454H1006V256Q1006 91 1014 0H852L844 172H840Q796 85 708 31T502 -23Q320 -23 199 117T78 481Q77 721 206 867T522 1014Q629 1014 706 971T821 862H825V1454ZM825 416V588Q825 633 817 664Q797
753 726 812T557 872Q420 872 340 765T260 489Q260 331 336 227T553 123Q646 123 719 181T817 338Q825 370 825 416Z" />
<glyph unicode="e" glyph-name="e" horiz-adv-x="1026" d="M946 463H250Q253 290 348 205T590 119Q746 119 864 170L895 41Q760 -20 565 -20Q339 -20 209 116T78 479Q78 629 133 750T295 942T543 1014Q636 1014 709 983T827 903T900 790T941 666T952 547Q952 517
946 463ZM252 592H778Q779 630 773 667T749 744T705 815T632 865T528 885Q476 885 431 867T356 818T303 749T268 671T252 592Z" />
<glyph unicode="f" glyph-name="f" horiz-adv-x="598" d="M346 0H168V854H29V991H168V1038Q168 1276 283 1384Q377 1477 524 1477Q606 1477 678 1448L653 1309Q605 1331 539 1331Q346 1331 346 1044V991H586V854H346V0Z" />
<glyph unicode="g" glyph-name="g" horiz-adv-x="1144" d="M846 991H1004Q995 863 995 719V143Q995 -26 961 -135T854 -309Q727 -428 494 -428Q402 -428 312 -407T164 -346L209 -209Q333 -287 500 -287Q647 -287 733 -203T819 59V170H815Q771 96 690 50T500 4Q317
4 198 142T78 487Q78 609 115 710T216 877T358 978T524 1014Q642 1014 719 964T834 842H838L846 991ZM817 422V600Q817 651 807 682Q781 765 715 818T555 872Q424 872 342 770T260 498Q260 344 336 243T553 141Q637 141 705 191T803 326Q817 368 817 422Z" />
<glyph unicode="h" glyph-name="h" horiz-adv-x="1136" d="M150 0V1454H330V836H334Q377 915 463 963Q553 1014 647 1014Q691 1014 734 1003T826 963T910 888T969 765T993 590V0H813V569Q813 632 801 683T763 776T692 841T584 864Q499 864 434 813T342 684Q330
654 330 598V0H150Z" />
<glyph unicode="i" glyph-name="i" horiz-adv-x="479" d="M330 0H150V991H330V0ZM191 1382T240 1382T319 1350T350 1270Q352 1223 320 1191T236 1159Q189 1159 158 1191T127 1270Q127 1318 159 1350Z" />
<glyph unicode="j" glyph-name="j" horiz-adv-x="497" d="M-74 -428L-92 -287Q44 -277 104 -211Q142 -167 157 -90T172 162V991H352V92Q352 -56 325 -152T233 -315Q178 -371 93 -399T-74 -428ZM264 1382Q313 1382 343 1350T373 1270Q375 1223 344 1191T260 1159Q211
1159 181 1191T150 1270Q150 1318 182 1350T264 1382Z" />
<glyph unicode="k" glyph-name="k" horiz-adv-x="960" d="M328 1454V537H332Q360 576 420 649L711 991H928L545 584L981 0H762L420 475L328 373V0H150V1454H328Z" />
<glyph unicode="l" glyph-name="l" horiz-adv-x="483" d="M150 0V1454H330V0H150Z" />
<glyph unicode="m" glyph-name="m" horiz-adv-x="1708" d="M150 0V723Q150 868 141 991H299L307 831H313Q421 1014 625 1014Q724 1014 798 960T905 815H909Q953 894 1020 944Q1112 1014 1239 1014Q1282 1014 1323 1003T1410 962T1488 885T1543 761T1565 584V0H1389V561Q1389
707 1335 786T1174 866Q1100 866 1043 819T961 702Q946 662 946 612V0H770V594Q770 717 717 791T563 866Q484 866 424 813T340 686Q326 648 326 598V0H150Z" />
<glyph unicode="n" glyph-name="n" horiz-adv-x="1136" d="M150 0V723Q150 868 141 991H301L311 827H315Q356 906 442 960T643 1014Q688 1014 732 1003T825 963T909 888T969 766T993 592V0H813V571Q813 702 759 783T584 864Q498 864 432 811T342 680Q330 646 330
596V0H150Z" />
<glyph unicode="o" glyph-name="o" horiz-adv-x="1124" d="M569 1014Q783 1014 915 873T1047 504Q1047 372 1004 268T890 102T732 9T553 -23Q348 -23 213 117T78 487Q78 729 217 871T569 1014ZM565 879Q488 879 428 846T332 757T278 634T260 494Q260 330 345 222T561
113Q691 113 776 222T862 498Q862 564 845 629T794 751T701 843T565 879Z" />
<glyph unicode="p" glyph-name="p" horiz-adv-x="1165" d="M150 -406V668Q150 780 141 991H303L311 821H315Q433 1014 668 1014Q849 1014 968 874T1087 510Q1087 381 1050 278T949 110T806 11T637 -23Q538 -23 457 18T332 133H328V-406H150ZM328 573V403Q328 374
336 330Q361 236 435 178T606 119Q747 119 827 223T907 502Q907 603 874 685T773 819T612 870Q519 870 443 809T340 647Q328 603 328 573Z" />
<glyph unicode="q" glyph-name="q" horiz-adv-x="1153" d="M825 -406V154H821Q779 75 696 26T498 -23Q320 -23 199 117T78 479Q78 586 104 676T175 828T278 932T399 994T526 1014Q636 1014 714 967T831 842H836L842 991H1012Q1006 865 1006 719V-406H825ZM825
403V590Q825 635 817 666Q797 752 727 811T559 870Q421 870 341 765T260 489Q260 388 291 307T389 173T553 121Q642 121 711 173T811 317Q825 361 825 403Z" />
<glyph unicode="r" glyph-name="r" horiz-adv-x="669" d="M150 0V682Q150 853 141 991H299L305 797H313Q347 896 422 955T588 1014Q615 1014 639 1008V838Q612 844 578 844Q484 844 419 780T336 612Q328 564 328 528V0H150Z" />
<glyph unicode="s" glyph-name="s" horiz-adv-x="811" d="M80 47L125 184Q170 155 234 134T362 113Q457 113 506 154T555 260Q555 324 514 364T371 442Q109 536 109 723Q109 847 202 930T451 1014Q591 1014 694 952L649 821Q559 879 446 879Q369 879 325 840T281
743T323 650T469 575Q602 525 665 455T729 276Q729 143 631 62T358 -20Q194 -20 80 47Z" />
<glyph unicode="t" glyph-name="t" horiz-adv-x="677" d="M190 1229L367 1276V991H625V854H367V319Q367 223 398 175T502 127Q562 127 606 139L614 4Q556 -20 455 -20Q326 -20 260 55Q190 129 190 313V854H37V991H190V1229Z" />
<glyph unicode="u" glyph-name="u" horiz-adv-x="1128" d="M979 991V270Q979 104 987 0H827L817 162H813Q793 129 766 99T699 40T604 -6T485 -23Q435 -23 390 -12T298 30T219 107T164 233T143 412V991H324V442Q324 127 545 127Q630 127 692 175T782 291Q799 331
799 383V991H979Z" />
<glyph unicode="v" glyph-name="v" horiz-adv-x="985" d="M27 991H219L414 434Q467 284 494 180H500Q525 273 584 434L776 991H965L575 0H403L27 991Z" />
<glyph unicode="w" glyph-name="w" horiz-adv-x="1507" d="M37 991H221L352 487Q408 276 426 172H432Q459 288 520 485L682 991H834L987 496Q1044 312 1075 172H1081Q1103 304 1157 494L1298 991H1477L1157 0H993L842 473Q782 665 754 799H750Q721 660 659 471L500
0H336L37 991Z" />
<glyph unicode="x" glyph-name="x" horiz-adv-x="948" d="M33 991H233L375 778Q412 724 475 616H481Q505 659 580 780L719 991H913L575 512L924 0H719L573 223Q531 287 467 395H463Q453 376 358 223L215 0H16L369 506L33 991Z" />
<glyph unicode="y" glyph-name="y" horiz-adv-x="964" d="M18 991H215L432 406Q464 315 496 203H500Q506 222 518 263T541 341T563 410L760 991H950L680 285Q580 21 505 -118T340 -336Q234 -430 119 -453L74 -301Q158 -275 231 -213Q327 -138 383 -12Q397 19 397
31Q397 44 385 78L18 991Z" />
<glyph unicode="z" glyph-name="z" horiz-adv-x="876" d="M37 0V104L485 688L614 842V846H78V991H834L831 879L389 303Q339 236 262 147V143H842V0H37Z" />
<glyph unicode="{" glyph-name="braceleft" horiz-adv-x="581" d="M57 537V641Q109 641 144 654T195 691T217 738T223 793Q223 849 207 965Q190 1086 190 1135Q190 1271 270 1337T487 1403H530V1290H494Q407 1290 370 1246T332 1114Q332 1055 346 969Q360 880
360 813Q363 631 213 592V588Q363 551 360 365Q360 295 346 209Q332 120 332 61Q332 -117 494 -117H530V-229H487Q350 -229 270 -163T190 51Q190 102 207 219Q223 329 223 385Q223 537 57 537Z" />
<glyph unicode="|" glyph-name="bar" horiz-adv-x="489" d="M176 1536H313V-512H176V1536Z" />
<glyph unicode="}" glyph-name="braceright" horiz-adv-x="581" d="M524 641V537Q358 537 358 385Q358 336 375 219Q391 109 391 51Q391 -96 311 -162T94 -229H51V-117H86Q250 -114 250 61Q250 90 236 209Q219 302 219 365Q219 551 367 588V592Q219 631 219 813Q219
873 236 969Q250 1083 250 1114Q250 1200 212 1244T88 1290H51V1403H92Q229 1403 310 1337T391 1135Q391 1079 375 965Q358 842 358 793Q358 762 364 738T386 691T437 654T524 641Z" />
<glyph unicode="~" glyph-name="asciitilde" horiz-adv-x="1220" d="M221 430H100Q94 578 163 658T344 739Q405 739 464 720T633 647Q703 614 733 601T808 575T889 561Q996 561 999 733H1122Q1126 650 1108 589T1056 492T979 441T887 424Q827 424 763 444T590
514Q579 520 551 533T512 552T477 568T441 583T410 594T375 602T344 604Q227 604 221 430Z" />
</font>
</defs>
</svg>
