<?xml version="1.0" standalone="no"?>
<!DOCTYPE svg PUBLIC "-//W3C//DTD SVG 1.1//EN" "http://www.w3.org/Graphics/SVG/1.1/DTD/svg11.dtd" >
<svg xmlns="http://www.w3.org/2000/svg">
<metadata></metadata>
<defs>
<font id="savignyblack_cond_italic" horiz-adv-x="921" >
<font-face units-per-em="2048" ascent="1536" descent="-512" />
<missing-glyph horiz-adv-x="281" />
<glyph unicode="&#xfb01;" horiz-adv-x="1051" d="M41 -354l203 955h-76l55 265h77l22 102q50 232 172 330t362 98q141 0 328 -42l-89 -257q-143 33 -248 33q-51 0 -86.5 -8t-56 -18.5t-34.5 -34.5t-19.5 -42.5t-13.5 -56.5l-23 -104h512l-111 -525q-8 -34 -8 -45q0 -37 43 -37q17 0 24 4l-33 -257q-74 -25 -190 -25 q-171 0 -171 192q0 74 20 168l56 260h-197l-203 -955h-315z" />
<glyph unicode="&#xfb02;" horiz-adv-x="1051" d="M41 -354l203 955h-76l55 265h77l22 102q50 232 172 330t362 98q106 0 224 -20h156l-221 -1035q-6 -25 -6 -47q0 -35 37 -35q21 0 28 4l-33 -257q-71 -25 -172 -25q-102 0 -145.5 47.5t-43.5 142.5q0 83 20 170l56 260h-197l-203 -955h-315zM614 866h198l57 264h-22 q-51 0 -86.5 -8t-56 -18.5t-34.5 -34.5t-19.5 -42.5t-13.5 -56.5z" />
<glyph unicode="&#xfb03;" horiz-adv-x="1575" d="M117 0l127 601h-76l55 265h77l9 43q50 232 164.5 330t336.5 98q116 0 220 -28q122 87 346 87q137 0 328 -42l-90 -257q-146 33 -231 33q-41 0 -72 -3.5t-53.5 -9t-38.5 -17t-26 -21.5t-17.5 -30t-11.5 -35.5t-10 -43.5l-22 -104h516l-116 -542q-7 -30 -7 -45 q0 -37 43 -37q17 0 26 4l-30 -240q-76 -25 -188 -25q-93 0 -133 49t-40 141q0 76 20 170l56 260h-203l-126 -601h-313l126 601h-204l-127 -601h-315zM614 866h205l23 102q4 19 13 53t11 44q-36 6 -64 6q-42 0 -71 -7t-46 -17.5t-29.5 -34t-18 -43.5t-13.5 -59z" />
<glyph unicode="&#xfb04;" horiz-adv-x="1571" d="M41 -354l203 955h-76l55 265h77l9 43q49 229 163.5 328.5t331.5 99.5q124 0 224 -28q120 87 346 87q111 0 214 -18h168l-222 -1037q-7 -30 -7 -47q0 -35 41 -35q17 0 26 4l-32 -257q-79 -25 -190 -25q-93 0 -133 49t-40 141q0 76 20 170l56 260h-199l-203 -955h-313 l203 955h-204l-203 -955h-315zM614 866h205l23 102q10 48 24 95q-56 8 -77 8q-47 0 -77 -9.5t-47 -34t-24.5 -47.5t-16.5 -70zM1132 866h199l58 264h-24q-51 0 -86.5 -7.5t-56 -18.5t-34.5 -34.5t-20 -42.5t-14 -57z" />
<glyph horiz-adv-x="2048" />
<glyph horiz-adv-x="2048" />
<glyph unicode="&#xd;" horiz-adv-x="2048" />
<glyph unicode=" "  horiz-adv-x="281" />
<glyph unicode="&#x09;" horiz-adv-x="281" />
<glyph unicode="&#xa0;" horiz-adv-x="281" />
<glyph unicode="!" horiz-adv-x="485" d="M93 101q0 91 69 163.5t151 72.5q61 0 100 -43t39 -108q0 -91 -69.5 -161t-151.5 -70q-61 0 -99.5 41.5t-38.5 104.5zM158 387l205 965h328l-205 -965h-328z" />
<glyph unicode="&#x22;" horiz-adv-x="737" d="M197 732l121 571h315l-121 -571h-315zM542 732l121 571h316l-121 -571h-316z" />
<glyph unicode="#" horiz-adv-x="1001" d="M102 352l53 251h195l41 119h-160l52 250h203l128 339h246l-130 -339h85l129 339h244l-127 -339h129l-52 -250h-174l-42 -119h130l-52 -251h-175l-131 -352h-243l130 352h-84l-130 -352h-242l130 352h-153zM594 603h82l45 119h-88z" />
<glyph unicode="$" horiz-adv-x="912" d="M48 15l92 261q143 -23 294 -23q154 0 154 132q0 33 -17 59.5t-44.5 46.5t-61 40t-67 45.5t-61 57t-44.5 80.5t-17 111q0 48 14 121q63 300 352 359l43 205h309l-41 -196q97 -9 162 -22l-76 -261q-5 1 -47.5 9t-81.5 12t-87 4q-38 0 -70 -6.5t-59.5 -20.5t-43 -40.5 t-15.5 -63.5q0 -29 17.5 -54.5t45 -45.5t61 -41.5t66.5 -49t60.5 -61t45 -84t17.5 -112.5q0 -45 -15 -123q-66 -313 -384 -361l-39 -185h-309l37 181q-148 12 -190 26z" />
<glyph unicode="%" horiz-adv-x="1934" d="M236 821q0 69 18 138.5t57 135t95 116t138.5 81t179.5 30.5q166 0 244 -80.5t78 -208.5q0 -70 -18 -140t-57.5 -135.5t-95.5 -115.5t-138.5 -80.5t-179.5 -30.5q-167 0 -244 80.5t-77 209.5zM421 -19l1020 1343h359l-1018 -1343h-361zM570 869q0 -35 11.5 -54.5 t31.5 -19.5q33 0 66.5 55t33.5 133q0 35 -12.5 55t-32.5 20q-32 0 -65 -55t-33 -134zM1171 270q0 69 18 138.5t57 135.5t95 116.5t138.5 81.5t181.5 31q86 0 150.5 -23t101.5 -64.5t54.5 -92t17.5 -111.5q0 -88 -31 -174.5t-89.5 -160.5t-156 -120t-217.5 -46 q-85 0 -148.5 23t-100 63.5t-54 91t-17.5 111.5zM1508 318q0 -72 41 -72q35 0 67 54.5t32 133.5q0 35 -11.5 55.5t-31.5 20.5q-32 0 -64.5 -56.5t-32.5 -135.5z" />
<glyph unicode="&#x26;" horiz-adv-x="1245" d="M84 218q0 40 11 93q29 134 98 228t220 193q-65 107 -65 188q0 114 64.5 207.5t165 144t211.5 50.5q130 0 214 -65t84 -177q0 -53 -16 -102.5t-38 -85.5t-60.5 -75.5t-69.5 -65t-78 -60.5l61 -155q14 14 80 86l199 -173q-92 -93 -130 -125l162 -324h-337l-69 127 q-121 -78 -212.5 -112t-191.5 -34q-158 0 -230.5 63t-72.5 174zM426 317q0 -64 69 -64q21 0 45 10.5t42.5 22.5t63.5 44l-91 193q-129 -87 -129 -206zM661 987q0 -32 33 -90q45 36 63.5 64.5t18.5 68.5q0 44 -41 44q-29 0 -51.5 -26t-22.5 -61z" />
<glyph unicode="'" horiz-adv-x="450" d="M235 791l108 512h314l-108 -512h-314z" />
<glyph unicode="(" horiz-adv-x="551" d="M123 315q0 130 24 234q41 201 176 423.5t316 377.5l128 -185q-154 -208 -235 -467.5t-81 -494.5q0 -172 48 -294l-199 -198q-87 117 -132 276.5t-45 327.5z" />
<glyph unicode=")" horiz-adv-x="549" d="M11 -95q151 199 230 450.5t79 487.5q0 182 -43 315l198 201q88 -114 134 -271t46 -323q0 -252 -144 -548t-386 -506z" />
<glyph unicode="*" horiz-adv-x="852" d="M259 918l164 277l130 -136l-17 244h324l-125 -244l185 134l57 -275l-229 -19l146 -136l-287 -199l-21 229l-113 -225l-203 193l203 138z" />
<glyph unicode="+" horiz-adv-x="880" d="M102 337l60 283h251l65 302h317l-65 -302h249l-59 -283h-250l-65 -303h-316l65 303h-252z" />
<glyph unicode="," horiz-adv-x="495" d="M0 -164l188 495h358l-272 -495h-274z" />
<glyph unicode="-" horiz-adv-x="569" d="M108 361l60 283h513l-59 -283h-514z" />
<glyph unicode="." horiz-adv-x="398" d="M60 119q0 93 65.5 163t148.5 70q58 0 95 -40t37 -100q0 -99 -66 -164t-145 -65q-61 0 -98 36t-37 100z" />
<glyph unicode="/" horiz-adv-x="832" d="M-9 -76l769 1387h344l-771 -1387h-342z" />
<glyph unicode="0" horiz-adv-x="988" d="M155 406q0 121 27 246q41 194 124 344t204.5 238t262.5 88q165 0 252 -115.5t87 -314.5q0 -113 -28 -240q-41 -195 -125.5 -345.5t-206.5 -238t-264 -87.5q-164 0 -248.5 114t-84.5 311zM499 411q0 -124 54 -124q50 0 98 98.5t84 266.5q32 149 32 236q0 129 -58 129 q-48 0 -95 -99t-83 -266q-32 -155 -32 -241z" />
<glyph unicode="1" horiz-adv-x="698" d="M209 1022l364 281h330l-276 -1303h-329l190 897l-131 -104z" />
<glyph unicode="2" horiz-adv-x="936" d="M60 0l61 290l436 371q60 52 95 99t45.5 75.5t19.5 74.5q7 33 7 51q0 61 -61 61q-87 0 -112 -112h-300q37 120 88.5 202.5t115 127t131 63.5t149.5 19q326 0 326 -279q0 -135 -55.5 -275t-173.5 -237l-283 -242h376l-59 -289h-806z" />
<glyph unicode="3" horiz-adv-x="886" d="M86 289q0 32 3 68l328 58q10 -75 29.5 -104.5t59.5 -29.5q43 0 77.5 41.5t34.5 122.5q0 76 -86 76h-132v278h134q80 0 118.5 46.5t38.5 113.5t-52 67q-43 0 -69 -31t-34 -73l-287 65q133 335 466 335q141 0 226 -61t85 -192q0 -26 -3.5 -59t-17 -82.5t-34.5 -91 t-61 -78.5t-93 -52q28 -9 49 -20t44 -33t36 -59.5t13 -88.5q0 -49 -13 -114q-20 -97 -64.5 -171.5t-98 -118.5t-120 -72t-124.5 -38t-118 -10q-162 0 -248.5 72.5t-86.5 235.5z" />
<glyph unicode="4" horiz-adv-x="981" d="M115 203l62 289l627 811h341l-629 -811h111l38 182h314l-37 -182h101l-62 -289h-100l-43 -203h-315l43 203h-451z" />
<glyph unicode="5" horiz-adv-x="906" d="M7 4l140 272q146 -8 233 -8q89 0 152.5 52.5t63.5 148.5q0 37 -18.5 59t-66.5 34t-109 15.5t-167 3.5l286 730h598l-129 -287h-262l-65 -177q120 0 196 -71.5t76 -213.5q0 -50 -15 -128q-22 -105 -68.5 -186t-105 -130.5t-134 -81t-148 -43.5t-153.5 -12 q-64 0 -171.5 10.5t-132.5 12.5z" />
<glyph unicode="6" horiz-adv-x="912" d="M104 285q0 42 6.5 85.5t14 78.5t25.5 79t29 72t38 72.5t39 64.5t44.5 65.5t42 58t45 59t40.5 52.5l252 331h335l-402 -488q87 69 173 69q206 0 206 -258q0 -86 -20 -183q-96 -462 -518 -462q-177 0 -263.5 79.5t-86.5 224.5zM454 322q0 -82 51 -82q35 0 66.5 44.5 t52.5 143.5q13 62 13 104q0 86 -54 86q-74 0 -116 -190q-13 -65 -13 -106z" />
<glyph unicode="7" horiz-adv-x="830" d="M56 0l625 992h-387l13 311h767l-65 -309l-611 -994h-342z" />
<glyph unicode="8" horiz-adv-x="956" d="M101 270q0 163 77 284t198 170q-39 14 -58.5 60t-19.5 110q0 52 9 91q10 47 30 91t57 90t86 79.5t121.5 55t158.5 21.5q88 0 151 -21.5t97 -59t49 -80.5t15 -94q0 -37 -10 -86t-30.5 -102.5t-59.5 -97t-88 -57.5q133 -68 133 -236q0 -40 -12 -103q-18 -86 -56.5 -156.5 t-101 -127.5t-158.5 -88.5t-218 -31.5q-370 0 -370 289zM434 322q0 -51 23 -79.5t64 -28.5q61 0 110.5 65.5t49.5 169.5q0 51 -21.5 79.5t-65.5 28.5q-56 0 -96 -48t-57 -127q-7 -39 -7 -60zM605 920q0 -62 52 -62q44 0 70.5 49.5t26.5 114.5q0 58 -50 58q-69 0 -93 -110 q-6 -28 -6 -50z" />
<glyph unicode="9" horiz-adv-x="912" d="M166 -19l404 488q-90 -69 -175 -69q-108 0 -157.5 69.5t-49.5 187.5q0 90 22 185q96 461 518 461q176 0 263 -80t87 -225q0 -42 -6 -85.5t-14.5 -80t-25.5 -78.5t-30 -72t-38 -71.5t-39.5 -65.5t-44 -64.5t-43 -58.5t-44.5 -58t-41 -53l-249 -330h-337zM546 754 q0 -87 54 -87q36 0 66 47.5t49 141.5q13 65 13 108q0 80 -48 80q-79 0 -121 -188q-13 -62 -13 -102z" />
<glyph unicode=":" horiz-adv-x="411" d="M61 125q0 94 67 167t153 73q65 0 102.5 -41t37.5 -106q0 -93 -66.5 -165t-155.5 -72q-64 0 -101 40.5t-37 103.5zM173 646q0 92 67 165t151 73q62 0 101 -42.5t39 -107.5q0 -91 -69 -161t-151 -70q-61 0 -99.5 40t-38.5 103z" />
<glyph unicode=";" horiz-adv-x="504" d="M-9 -197l186 478h357l-270 -478h-273zM249 646q0 92 67 165t151 73q61 0 100.5 -43.5t39.5 -108.5q0 -90 -70 -159.5t-150 -69.5q-61 0 -99.5 40t-38.5 103z" />
<glyph unicode="&#x3c;" horiz-adv-x="789" d="M106 344l56 261l797 346l-67 -312l-365 -164l296 -168l-65 -305z" />
<glyph unicode="=" horiz-adv-x="688" d="M54 106l60 283h605l-60 -283h-605zM136 486l59 281h604l-60 -281h-603z" />
<glyph unicode="&#x3e;" horiz-adv-x="789" d="M34 2l65 305l361 166l-292 166l65 307l653 -341l-56 -261z" />
<glyph unicode="?" horiz-adv-x="899" d="M223 905l6 28q19 95 56 165.5t81.5 112.5t103.5 67.5t115 34.5t122 9q57 0 103 -6.5t93 -24.5t79 -48t52 -81t20 -118q0 -84 -18.5 -154t-49 -117.5t-68 -86t-75.5 -67t-70.5 -53t-56 -51t-29.5 -53.5l-19 -91h-333l17 81q10 49 36 92.5t58 75.5t69 62.5t71.5 59.5 t62.5 59.5t45 69t17 82.5q0 42 -19.5 61t-41.5 19q-34 0 -71 -32.5t-37 -95.5h-319zM272 108q0 92 67.5 164t153.5 72q63 0 102.5 -42.5t39.5 -107.5q0 -92 -70.5 -161.5t-153.5 -69.5q-64 0 -101.5 40.5t-37.5 104.5z" />
<glyph unicode="@" horiz-adv-x="1245" d="M63 359q0 107 23 207q32 152 99 279.5t151 213t183.5 145t196.5 86t189 26.5q215 0 350.5 -130.5t135.5 -325.5q0 -54 -11 -112q-13 -59 -39 -126.5t-70.5 -143t-99 -136t-130 -100t-157.5 -39.5q-60 0 -108 20.5t-63 50.5q-43 -29 -57.5 -38.5t-33.5 -16.5t-39 -7 q-87 0 -143 60.5t-56 166.5q0 62 20 133.5t61.5 144t97 131.5t133.5 96t164 37q113 0 165.5 -56.5t52.5 -146.5q0 -39 -9 -78q-12 -59 -35.5 -110t-40.5 -79.5t-17 -39.5q0 -4 3 -4q17 0 51 51.5t63.5 132t29.5 146.5q0 119 -78.5 192.5t-199.5 73.5q-55 0 -112 -17 t-117.5 -55.5t-111.5 -94t-93.5 -141t-64.5 -189.5q-16 -81 -16 -153q0 -307 340 -307l-61 -255q-253 0 -399.5 129.5t-146.5 378.5zM642 518q0 -53 32 -53q45 0 95 83t50 145q0 39 -31 39q-50 0 -98 -76t-48 -138z" />
<glyph unicode="A" horiz-adv-x="1171" d="M13 0l693 1303h312l140 -1303h-350l-9 194h-347l-89 -194h-350zM575 456h214l-16 423z" />
<glyph unicode="B" horiz-adv-x="1010" d="M63 22l267 1255q236 45 389 45q378 0 378 -240q0 -128 -64 -218.5t-156 -120.5q101 -25 146.5 -80t45.5 -145q0 -46 -15 -121q-18 -87 -53 -155.5t-82.5 -113t-100 -74.5t-115.5 -45.5t-119 -21.5t-120 -6q-188 0 -401 41zM424 253q88 -7 107 -7q54 0 90.5 11t57 35.5 t30.5 48.5t19 63t9 73q0 46 -26.5 71t-92.5 25h-125zM551 843h89q140 0 140 151q0 33 -21.5 46.5t-75.5 13.5q-51 0 -89 -8z" />
<glyph unicode="C" horiz-adv-x="962" d="M155 411q0 114 26 229q67 318 245 500t425 182q84 0 173.5 -21.5t152.5 -64.5l-146 -253q-87 50 -182 50q-125 0 -206.5 -104.5t-119.5 -282.5q-18 -95 -18 -156q0 -220 186 -220q50 0 108.5 14t101.5 38l15 -272q-158 -69 -339 -69q-212 0 -317 112.5t-105 317.5z" />
<glyph unicode="D" horiz-adv-x="1109" d="M60 0l275 1303q265 19 367 19q155 0 262.5 -27.5t167 -81.5t85 -122.5t25.5 -161.5q0 -97 -36 -272q-19 -89 -39.5 -157.5t-52.5 -142t-72 -127t-99 -102.5t-131.5 -80t-171 -49t-217.5 -18q-167 0 -363 19zM449 279q74 -7 126 -7q102 0 170.5 95t109.5 286 q22 101 22 177q0 94 -41 138.5t-130 44.5q-16 0 -103 -8z" />
<glyph unicode="E" horiz-adv-x="888" d="M60 0l275 1303h773l-60 -285h-443l-45 -206h369l-60 -285h-368l-52 -242h443l-60 -285h-772z" />
<glyph unicode="F" horiz-adv-x="811" d="M60 0l275 1303h730l-60 -283h-400l-54 -257h354l-62 -285h-353l-101 -478h-329z" />
<glyph unicode="G" horiz-adv-x="1139" d="M156 426q0 103 28 233q32 150 87.5 266t125 190t158.5 121.5t181 66.5t199 19q102 0 216.5 -16.5t198.5 -50.5l-119 -292q-73 29 -138 41.5t-157 12.5q-56 0 -101.5 -8t-95.5 -31.5t-88 -62.5t-70.5 -106t-51.5 -157q-17 -83 -17 -142q0 -64 16.5 -110t45 -69.5 t59.5 -33.5t67 -10q76 0 121 24l41 192h-173l56 264h502l-141 -665q-215 -121 -484 -121q-78 0 -144.5 13.5t-127 46t-102.5 82.5t-67 127t-25 176z" />
<glyph unicode="H" horiz-adv-x="1070" d="M60 0l275 1303h330l-103 -480h291l102 480h332l-276 -1303h-331l109 519h-290l-110 -519h-329z" />
<glyph unicode="I" horiz-adv-x="450" d="M60 0l275 1303h330l-276 -1303h-329z" />
<glyph unicode="J" horiz-adv-x="824" d="M20 34l114 262q102 -30 201 -30q87 0 136.5 46.5t74.5 162.5l175 828h327l-184 -865q-27 -131 -71 -220t-107.5 -141t-140.5 -74.5t-180 -22.5q-66 0 -166.5 12.5t-178.5 41.5z" />
<glyph unicode="K" horiz-adv-x="1009" d="M60 0l275 1303h330l-129 -610l389 610h352l-439 -663l166 -640h-369l-123 586l-123 -586h-329z" />
<glyph unicode="L" horiz-adv-x="824" d="M60 0l275 1303h330l-213 -1001h417l-63 -302h-746z" />
<glyph unicode="M" horiz-adv-x="1506" d="M60 0l275 1303h417l88 -895l467 895h415l-275 -1303h-295l174 823l-419 -823h-302l-78 814l-171 -814h-296z" />
<glyph unicode="N" horiz-adv-x="1077" d="M60 0l275 1303h315l169 -743l158 743h315l-275 -1303h-315l-171 743l-157 -743h-314z" />
<glyph unicode="O" horiz-adv-x="1266" d="M162 460q0 103 20 192q31 144 97 267t159 212.5t215 140t259 50.5q225 0 346.5 -130.5t121.5 -349.5q0 -96 -21 -190q-63 -297 -261 -484t-471 -187q-225 0 -345 129.5t-120 349.5zM514 519q0 -108 47 -170t132 -62q131 0 233 145t102 354q0 108 -46.5 169.5t-132.5 61.5 q-111 0 -197.5 -100.5t-122.5 -264.5q-15 -65 -15 -133z" />
<glyph unicode="P" horiz-adv-x="947" d="M60 0l270 1273q209 49 383 49q93 0 163 -15t114.5 -40.5t72 -64t38.5 -80t11 -92.5q0 -54 -21 -161q-17 -78 -39 -141t-63.5 -129.5t-96.5 -111.5t-140 -74t-190 -29q-54 0 -91 5l-82 -389h-329zM536 694q26 -7 69 -7q53 0 98 61.5t45 171.5q0 97 -72 97q-41 0 -73 -8z " />
<glyph unicode="Q" horiz-adv-x="1279" d="M162 469q0 86 20 183q31 144 97 267t159 212.5t215 140t259 50.5q221 0 339.5 -126.5t118.5 -337.5q0 -207 -78.5 -365.5t-187.5 -218.5h199l-57 -274h-533q-141 0 -248 33.5t-172.5 96.5t-98 147.5t-32.5 191.5zM514 519q0 -107 47 -168.5t132 -61.5q132 0 233.5 144.5 t101.5 352.5q0 108 -46.5 169.5t-132.5 61.5q-111 0 -197.5 -100.5t-122.5 -264.5q-15 -65 -15 -133z" />
<glyph unicode="R" horiz-adv-x="983" d="M60 0l270 1273q206 47 396 47q118 0 200.5 -22.5t127 -64.5t63.5 -93t19 -116q0 -72 -16 -151t-47.5 -161t-89 -153t-132.5 -112l123 -447h-378l-65 384q-35 0 -60 3l-82 -387h-329zM532 678q35 -8 81 -8q61 0 112 67.5t51 189.5q0 106 -87 106q-54 0 -82 -7z" />
<glyph unicode="S" horiz-adv-x="865" d="M20 15l92 261q143 -23 294 -23q154 0 154 132q0 33 -17 59.5t-44.5 46.5t-61 40t-67 45.5t-61 57t-44.5 80.5t-17 111q0 57 15 121q40 188 165.5 282t353.5 94q167 0 305 -30l-76 -261q-5 1 -47.5 9t-81.5 12t-87 4q-38 0 -70 -6.5t-59.5 -20.5t-43 -40.5t-15.5 -63.5 q0 -29 17.5 -54.5t45 -45.5t61 -41.5t66.5 -49t60.5 -61t45 -84t17.5 -112.5q0 -45 -15 -123q-19 -89 -58.5 -156.5t-88.5 -108t-113.5 -65.5t-126.5 -34t-134 -9q-82 0 -197.5 9.5t-166.5 24.5z" />
<glyph unicode="T" horiz-adv-x="942" d="M238 1018l60 285h895l-59 -285h-272l-216 -1018h-346l216 1018h-278z" />
<glyph unicode="U" horiz-adv-x="1038" d="M134 303q0 64 17 151l180 849h347l-183 -862q-7 -28 -7 -67q0 -104 89 -104q56 0 95.5 43.5t57.5 127.5l182 862h347l-181 -849q-101 -473 -562 -473q-382 0 -382 322z" />
<glyph unicode="V" horiz-adv-x="1131" d="M289 1303h370v-864l369 864h367l-667 -1303h-324z" />
<glyph unicode="W" horiz-adv-x="1547" d="M289 0v1303h378l-103 -940l294 940h382l-104 -940l296 940h378l-559 -1303h-382l90 875l-281 -875h-389z" />
<glyph unicode="X" horiz-adv-x="1016" d="M2 0l482 652l-207 651h358l72 -363l228 363h353l-478 -651l203 -652h-356l-72 363l-224 -363h-359z" />
<glyph unicode="Y" horiz-adv-x="1113" d="M303 1303h380l38 -547l258 547h382l-538 -880l-89 -423h-349l90 423z" />
<glyph unicode="Z" horiz-adv-x="981" d="M67 0l60 289l597 726h-421l62 288h800l-61 -288l-599 -726h469l-60 -289h-847z" />
<glyph unicode="[" horiz-adv-x="469" d="M-30 -294l345 1633h406l-53 -246h-83l-242 -1140h83l-52 -247h-404z" />
<glyph unicode="\" horiz-adv-x="688" d="M158 1322h330l188 -1352h-333z" />
<glyph unicode="]" horiz-adv-x="469" d="M-30 -294l50 247h84l242 1140h-83l52 246h406l-347 -1633h-404z" />
<glyph unicode="^" horiz-adv-x="986" d="M195 743l559 504l350 -504l-298 -233l-149 287l-268 -285z" />
<glyph unicode="_" horiz-adv-x="642" d="M-61 -292l61 292h631l-63 -292h-629z" />
<glyph unicode="`" horiz-adv-x="601" d="M367 1629h387l97 -277h-287z" />
<glyph unicode="a" d="M104 268q0 76 19 164q96 452 532 452q235 0 373 -106l-164 -778h-281l17 84q-119 -103 -235 -103q-131 0 -196 74.5t-65 212.5zM443 352q0 -99 67 -99q43 0 78 43.5t51 120.5l39 179q-40 20 -77 20q-57 0 -93.5 -42t-55.5 -138q-9 -41 -9 -84z" />
<glyph unicode="b" horiz-adv-x="908" d="M69 88l268 1253h315l-120 -559q122 102 243 102q114 0 169.5 -57.5t55.5 -176.5q0 -64 -21 -166q-19 -91 -51.5 -165.5t-69.5 -126t-83.5 -90.5t-90.5 -61.5t-93 -36.5t-88 -18.5t-79 -4.5q-85 0 -181.5 26.5t-173.5 80.5zM426 281q11 -14 35.5 -23t46.5 -9q46 0 77 43.5 t52 137.5q11 55 11 91q0 95 -65 95q-40 0 -73 -44t-48 -120z" />
<glyph unicode="c" horiz-adv-x="720" d="M104 287q0 64 17 141q46 214 174.5 335t311.5 121q59 0 129.5 -13t118.5 -41l-136 -234q-54 20 -106 20q-122 0 -159 -182q-9 -42 -9 -78q0 -107 95 -107q64 0 121 25l15 -252q-115 -41 -246 -41q-164 0 -245 81t-81 225z" />
<glyph unicode="d" horiz-adv-x="936" d="M108 270q0 90 20 177q23 109 63 191.5t83.5 128t96.5 73.5t93.5 36t82.5 8q113 0 188 -78l114 535h315l-285 -1341h-283l17 86q-121 -105 -246 -105q-128 0 -193.5 74.5t-65.5 214.5zM443 356q0 -103 75 -103q46 0 82 43.5t52 120.5l29 138q-33 61 -87 61 q-103 0 -142 -178q-9 -41 -9 -82z" />
<glyph unicode="e" horiz-adv-x="869" d="M106 290q0 58 15 136q16 74 41 137.5t67.5 124t98.5 103t136.5 68t177.5 25.5q155 0 231.5 -59.5t76.5 -161.5q0 -21 -8 -65q-19 -87 -70 -149.5t-122.5 -95.5t-145.5 -48t-155 -15h-6q12 -44 49 -61t98 -17q138 0 283 49l-35 -216q-60 -22 -158 -43t-202 -21 q-372 0 -372 309zM452 460q187 6 187 153q0 52 -47 52q-41 0 -78 -50t-62 -155z" />
<glyph unicode="f" horiz-adv-x="597" d="M-173 -350l89 257q59 -13 95 -13q56 0 77.5 33.5t41.5 126.5l116 547h-78l55 265h79l22 102q51 233 142.5 330.5t265.5 97.5q73 0 210 -22l-89 -257q-59 13 -97 13q-24 0 -41.5 -7t-28 -16.5t-20 -34t-14 -42.5t-13.5 -60l-23 -104h155l-56 -265h-155l-115 -545 q-49 -232 -143 -330t-267 -98q-100 0 -208 22z" />
<glyph unicode="g" horiz-adv-x="919" d="M-45 -318l92 234q203 -43 314 -43q163 0 186 114l13 65q-99 -71 -195 -71q-131 0 -196 74.5t-65 212.5q0 76 19 164q96 452 532 452q235 0 373 -106l-95 -447h2l-73 -342q-17 -81 -56 -145.5t-101 -113.5t-155 -75.5t-211 -26.5q-94 0 -202.5 14.5t-181.5 39.5zM443 352 q0 -99 67 -99q43 0 78 43.5t51 120.5l39 179q-40 20 -77 20q-57 0 -93.5 -42t-55.5 -138q-9 -41 -9 -84z" />
<glyph unicode="h" horiz-adv-x="919" d="M63 0l293 1378h312l-130 -607q110 113 216 113q112 0 170.5 -66t58.5 -189q0 -63 -17 -143l-102 -486h-315l103 486q5 21 5 46q0 43 -18.5 67.5t-46.5 24.5q-38 0 -69 -38t-45 -104l-102 -482h-313z" />
<glyph unicode="i" horiz-adv-x="478" d="M97 153q0 49 15 121l124 592h317l-115 -542q-8 -38 -8 -48q0 -34 41 -34q17 0 26 4l-30 -240q-76 -25 -190 -25q-97 0 -138.5 45t-41.5 127zM287 1080q0 91 60 157t139 66q56 0 92 -38t36 -98q0 -92 -65 -153t-138 -61q-56 0 -90 34t-34 93z" />
<glyph unicode="j" horiz-adv-x="444" d="M-188 -339l99 259q53 -11 70 -11q43 0 63 32t44 139l165 786h313l-168 -788q-50 -233 -149 -341t-262 -108q-73 0 -175 32zM302 1080q0 91 60 157t139 66q56 0 93 -38t37 -98q0 -93 -65.5 -153.5t-139.5 -60.5q-56 0 -90 34t-34 93z" />
<glyph unicode="k" horiz-adv-x="927" d="M61 0l293 1378h314l-176 -831l232 319h363l-346 -428l182 -438h-372l-106 330l-69 -330h-315z" />
<glyph unicode="l" horiz-adv-x="476" d="M104 171q0 71 21 170l221 1037h315l-222 -1037q-7 -30 -7 -47q0 -35 41 -35q17 0 26 4l-32 -257q-79 -25 -190 -25q-93 0 -133 49t-40 141z" />
<glyph unicode="m" horiz-adv-x="1359" d="M63 0l183 866h313l-17 -82q35 45 91.5 72.5t113.5 27.5q172 0 175 -158q61 80 128 119t149 39q102 0 160 -67t58 -191q0 -63 -17 -140l-102 -486h-317l103 486q7 38 7 58q0 40 -14.5 59t-37.5 19q-32 0 -59.5 -33.5t-41.5 -102.5l-102 -486h-313l103 482q5 27 5 58 q0 41 -14.5 61.5t-35.5 20.5q-30 0 -60 -37t-44 -108l-101 -477h-313z" />
<glyph unicode="n" horiz-adv-x="917" d="M61 0l183 866h298l-21 -103q48 58 126 89.5t146 31.5q101 0 151 -52.5t50 -151.5q0 -55 -13 -114l-119 -566h-315l99 471q7 28 7 63q0 82 -63 82q-38 0 -68.5 -36.5t-46.5 -112.5l-99 -467h-315z" />
<glyph unicode="o" d="M110 307q0 83 20.5 164t64.5 156t105.5 132t151.5 91t196 34q92 0 160.5 -25t108 -70t58.5 -102t19 -127q0 -82 -20.5 -163t-64.5 -156.5t-105.5 -133t-151.5 -92t-196 -34.5q-92 0 -160.5 25.5t-108 71t-58.5 102.5t-19 127zM443 357q0 -52 18.5 -81.5t52.5 -29.5 q51 0 99 79t48 185q0 51 -18.5 80.5t-50.5 29.5q-52 0 -100.5 -78t-48.5 -185z" />
<glyph unicode="p" d="M-13 -354l257 1220h283l-21 -101q63 63 119.5 91t119.5 28q129 0 194.5 -69.5t65.5 -200.5q0 -66 -16 -145q-26 -122 -68 -214t-86 -142.5t-96.5 -81.5t-93 -40.5t-81.5 -9.5q-104 0 -177 79l-87 -414h-313zM434 277q40 -28 87 -28t78.5 42.5t50.5 136.5q11 53 11 86 q0 99 -67 99q-41 0 -74 -43.5t-49 -120.5z" />
<glyph unicode="q" horiz-adv-x="914" d="M106 261q0 85 22 186q23 109 62 191.5t81 128t93 73.5t90 36t80 8q103 0 175 -78l12 60h314l-259 -1220h-283l93 438q-63 -55 -117.5 -79t-114.5 -24q-124 0 -186 72t-62 208zM441 348q0 -95 65 -95q38 0 71 43.5t49 120.5l29 138q-28 61 -76 61q-44 0 -75 -42t-52 -136 q-11 -53 -11 -90z" />
<glyph unicode="r" horiz-adv-x="625" d="M61 0l183 866h281l-17 -78q40 50 96.5 73t97.5 23q68 0 102 -26l-104 -264q-42 17 -82 17q-55 0 -92 -34t-55 -123l-95 -454h-315z" />
<glyph unicode="s" horiz-adv-x="692" d="M34 0l63 225q138 -18 182 -18q66 0 92.5 15.5t26.5 45.5q0 20 -24.5 31.5t-59.5 22t-70 28t-59.5 60t-24.5 106.5q0 40 11 98q32 149 119.5 209.5t260.5 60.5q154 0 270 -18l-73 -224q-77 17 -148 17q-118 0 -118 -58q0 -17 18 -29t44.5 -18.5t57.5 -21t57.5 -33.5 t44.5 -58t18 -93q0 -37 -11 -95q-32 -152 -125.5 -212t-259.5 -60q-116 0 -292 19z" />
<glyph unicode="t" horiz-adv-x="599" d="M151 162q0 77 31 216l47 223h-61l55 265h77l208 221h140l-48 -221h121l-56 -265h-121l-54 -253q-4 -15 -4 -35q0 -50 37 -50q3 0 50 11l-16 -257q-144 -36 -214 -36q-106 0 -149 47.5t-43 133.5z" />
<glyph unicode="u" horiz-adv-x="917" d="M117 240q0 67 15 132l104 494h315l-104 -494q-4 -15 -4 -37q0 -42 20 -64t47 -22q32 0 64.5 32t45.5 91l104 494h315l-183 -866h-283l15 73q-113 -92 -225 -92q-120 0 -183 67t-63 192z" />
<glyph unicode="v" horiz-adv-x="888" d="M186 866h328v-531l221 531h332l-456 -866h-334z" />
<glyph unicode="w" horiz-adv-x="1349" d="M186 866h322l-22 -542l212 542h319l-19 -542l212 542h319l-436 -866h-315v492l-197 -492h-322z" />
<glyph unicode="x" horiz-adv-x="901" d="M4 0l357 438l-164 428h334l67 -166l136 166h335l-347 -428l175 -438h-312l-93 201l-175 -201h-313z" />
<glyph unicode="y" horiz-adv-x="917" d="M-50 -292l89 232q113 -40 172.5 -53.5t140.5 -13.5q194 0 218 120l15 76q-109 -88 -220 -88q-120 0 -183 67t-63 192q0 67 15 132l104 494h315l-104 -494q-4 -15 -4 -37q0 -42 20 -64t47 -22q32 0 64.5 32t45.5 91l104 494h315l-183 -866h-2l-3 -15q-36 -164 -165 -260.5 t-358 -96.5q-98 0 -204.5 21t-175.5 59z" />
<glyph unicode="z" horiz-adv-x="835" d="M65 0l54 255l386 356h-298l54 255h690l-54 -255l-379 -356h324l-54 -255h-723z" />
<glyph unicode="{" horiz-adv-x="569" d="M106 -82q0 66 17 140l43 199q9 45 9 63q0 60 -60 82l47 216q40 13 65 39.5t32.5 48t14.5 57.5l41 200q15 74 38.5 131.5t61.5 106.5t97 75.5t136 26.5h166l-56 -264q-49 -2 -77 -21t-37 -65l-35 -171q-9 -45 -20.5 -74.5t-36.5 -64.5t-69.5 -66.5t-113.5 -66.5 q76 -49 106 -93.5t30 -96.5q0 -22 -12 -82l-37 -173q-4 -22 -4 -28q0 -30 19.5 -43t60.5 -13l-55 -264h-166q-111 0 -158 53t-47 148z" />
<glyph unicode="|" horiz-adv-x="497" d="M24 -311l356 1672h309l-356 -1672h-309z" />
<glyph unicode="}" horiz-adv-x="569" d="M-28 -283l54 264q50 0 77 19.5t37 64.5l37 173q10 45 21 74t35.5 64t69 67t112.5 67q-75 48 -104.5 92t-29.5 96q0 29 11 84l36 171q3 17 3 30q0 30 -19.5 42t-60.5 14l56 264h166q205 0 205 -203q0 -46 -17 -137l-41 -200q-11 -40 -11 -67q0 -57 59 -78l-46 -216 q-26 -8 -45 -21.5t-29 -25t-18.5 -33t-10.5 -31t-7 -34.5l-43 -199q-16 -74 -39.5 -131.5t-62 -107t-97 -76t-134.5 -26.5h-164z" />
<glyph unicode="~" horiz-adv-x="884" d="M108 365q76 133 180 210.5t189 77.5q47 0 89 -23.5t74 -47t56 -23.5q10 0 30.5 20.5t42.5 60.5l208 -109q-66 -146 -164 -218.5t-191 -72.5q-36 0 -66 15t-46.5 32.5t-37 32.5t-40.5 15q-24 0 -42.5 -15t-54.5 -63z" />
<glyph unicode="&#xa0;" horiz-adv-x="513" d="M76 361l60 283h514l-60 -283h-514z" />
<glyph unicode="&#xa1;" horiz-adv-x="528" d="M26 -335l138 642h326l-138 -642h-326zM197 484q0 91 69 161t149 70q60 0 100 -41t40 -104q0 -92 -68.5 -164.5t-151.5 -72.5q-61 0 -99.5 43t-38.5 108z" />
<glyph unicode="&#xa2;" horiz-adv-x="841" d="M115 287q0 64 17 141q39 180 137 295.5t239 147.5l28 134h315l-32 -154q8 -3 47 -21l-136 -234q-54 20 -106 20q-74 0 -121 -74.5t-47 -185.5q0 -107 95 -107q64 0 121 25l15 -252q-31 -11 -48 -15l-28 -135h-315l26 124q-207 51 -207 291z" />
<glyph unicode="&#xa3;" horiz-adv-x="914" d="M50 0l49 229q128 57 171 106t43 151h-164l63 294h131q-2 11 -2 34q0 48 11 96q24 115 76 198.5t120.5 128.5t140 65t149.5 20q138 0 309 -56l-106 -257q-142 43 -211 43q-33 0 -57 -13.5t-37.5 -32.5t-23 -51t-13 -56.5t-8.5 -62.5t-8 -56h196l-64 -294h-158 q0 -56 -9 -97q-23 -115 -106 -151h387l-50 -238h-829z" />
<glyph unicode="&#xa4;" horiz-adv-x="923" d="M32 162l109 114q-29 68 -29 154q0 111 40 221.5t114 193.5l-63 119l192 134l78 -121q86 28 177 28q99 0 171 -29l134 122l136 -134l-125 -126q30 -70 30 -158q0 -102 -37.5 -209.5t-105.5 -187.5l67 -121l-192 -134l-76 113q-90 -31 -192 -31q-99 0 -173 30l-119 -112z M447 484q0 -51 18 -79.5t51 -28.5q52 0 99.5 76.5t47.5 182.5q0 50 -18.5 78t-50.5 28q-53 0 -100 -75t-47 -182z" />
<glyph unicode="&#xa5;" horiz-adv-x="824" d="M-2 112l58 281h277l6 24h-279l59 283h199l-106 523h361l36 -305l160 305h365l-330 -523h194l-60 -283h-271l-6 -24h272l-60 -281h-272l-22 -112h-328l23 112h-276z" />
<glyph unicode="&#xa6;" horiz-adv-x="498" d="M34 -270l163 771h311l-164 -771h-310zM209 559l158 742h311l-159 -742h-310z" />
<glyph unicode="&#xa7;" horiz-adv-x="683" d="M7 -121l73 195q125 -29 207 -29q47 0 75.5 28.5t28.5 81.5q0 26 -18 45t-45 29.5t-59 28t-59 38t-45 61.5t-18 97q0 116 46.5 210.5t113.5 141.5q-20 43 -20 104q0 57 11 105q65 307 391 307q115 0 247 -30l-63 -184q-100 18 -177 18q-44 0 -76 -22.5t-32 -75.5 q0 -26 17.5 -45.5t44 -31.5t57 -30.5t57 -40t44 -62.5t17.5 -96q0 -118 -45 -207.5t-115 -136.5q24 -48 24 -114q0 -40 -11 -98q-18 -86 -58 -148.5t-97 -98.5t-122 -53t-142 -17q-57 0 -134 8t-118 22zM452 572q0 -32 30 -56q32 19 43 72q2 7 2 19q0 31 -21 52 q-54 -34 -54 -87z" />
<glyph unicode="&#xa8;" horiz-adv-x="597" d="M361 1450q0 60 46 110t101 50q39 0 65.5 -29.5t26.5 -72.5q0 -60 -46.5 -108t-99.5 -48q-42 0 -67.5 27.5t-25.5 70.5zM624 1450q0 60 46 110t101 50q39 0 65 -29t26 -73q0 -60 -46 -108t-99 -48q-40 0 -66.5 28t-26.5 70z" />
<glyph unicode="&#xa9;" horiz-adv-x="1172" d="M179 456q0 150 59.5 294t154.5 248t216 167.5t240 63.5q183 0 291.5 -133.5t108.5 -339.5q0 -137 -42.5 -262t-112 -216.5t-156.5 -160t-179.5 -103t-177.5 -34.5q-122 0 -214.5 65t-140 172t-47.5 239zM328 480q0 -158 77 -266t204 -108q61 0 128 28.5t131 85t115.5 131 t83 176.5t31.5 212q0 161 -75 263t-200 102q-83 0 -171.5 -51.5t-160 -135t-117.5 -200.5t-46 -237zM357 484q0 61 17.5 125.5t55 126.5t88.5 110.5t125 78.5t159 30q78 0 146 -33t102 -99l-227 -197q-24 35 -62 35q-31 0 -46.5 -21t-23.5 -59q-6 -20 -6 -35q0 -45 43 -45 q32 0 82 33l134 -197q-61 -65 -142.5 -97.5t-159.5 -32.5q-145 0 -215 78.5t-70 198.5z" />
<glyph unicode="&#xaa;" horiz-adv-x="819" d="M212 847q0 44 13 116q16 75 47.5 139t77 114t108.5 78t136 28q36 0 62 -15.5t59 -49.5l9 46h322l-145 -689h-322l7 41q-73 -59 -135 -59q-121 0 -180 68.5t-59 182.5zM544 923q0 -44 42 -44q28 0 48.5 31.5t20.5 81.5q0 47 -37 47q-56 0 -71 -80q-3 -10 -3 -36z" />
<glyph unicode="&#xab;" horiz-adv-x="1007" d="M134 490l443 465l158 -195l-225 -268l117 -265l-247 -197zM534 492l430 465l166 -197l-227 -268l119 -269l-259 -188z" />
<glyph unicode="&#xac;" horiz-adv-x="880" d="M106 354l60 277h813l-121 -562h-305l61 285h-508z" />
<glyph unicode="&#xad;" horiz-adv-x="513" d="M76 361l60 283h514l-60 -283h-514z" />
<glyph unicode="&#xae;" horiz-adv-x="1174" d="M197 413q0 93 21 190q33 152 97.5 273t149 197t183 116t203.5 40q177 0 280 -111.5t103 -318.5q0 -144 -40 -275.5t-107 -228.5t-151.5 -169.5t-175.5 -109t-177 -36.5q-178 0 -282 114.5t-104 318.5zM348 432q0 -155 71 -240.5t192 -85.5q68 0 139.5 32.5t133.5 96.5 h-149l-70 173l-38 -173h-186l160 750q107 26 160 26q106 0 160.5 -54t54.5 -136q0 -71 -41 -148t-110 -126l98 -270q66 84 113.5 226.5t47.5 280.5q0 158 -70 239t-189 81q-153 0 -279 -126.5t-179 -374.5q-19 -89 -19 -171zM721 670q44 15 59 88q4 18 4 31q0 42 -26 54z " />
<glyph unicode="&#xaf;" horiz-adv-x="614" d="M348 1352l54 255h490l-54 -255h-490z" />
<glyph unicode="&#xb0;" horiz-adv-x="651" d="M220 886q0 96 58 181t143 132t169 47q100 0 170 -69t70 -172q0 -98 -60 -182.5t-144 -129.5t-164 -45q-102 0 -172 68t-70 170zM516 914q0 -4 2 -4q1 6 1 12q-3 -3 -3 -8zM529 968q3 6 3 11q-1 -1 -1.5 -4.5t-1.5 -6.5z" />
<glyph unicode="&#xb1;" horiz-adv-x="884" d="M11 -106l63 290h248l32 153h-252l60 283h251l65 302h317l-65 -302h249l-59 -283h-250l-31 -153h253l-63 -290h-818z" />
<glyph unicode="&#xb2;" horiz-adv-x="811" d="M168 559l48 221l361 240q48 31 74.5 60t32.5 44.5t12 42.5q4 26 4 34q0 23 -12 34.5t-40 11.5q-32 0 -53.5 -16.5t-26.5 -46.5h-266q56 165 156 228.5t249 63.5q59 0 108 -9.5t93 -31.5t69 -65t25 -104q0 -106 -45 -196t-134 -147l-225 -143h320l-49 -221h-701z" />
<glyph unicode="&#xb3;" horiz-adv-x="767" d="M184 784q0 22 2 35l287 43q16 -41 33 -57t58 -16q39 0 56 21t17 67q0 43 -60 43h-130l-9 212h119q71 0 95 20t24 54q0 20 -11 32.5t-34 12.5q-66 0 -82 -69l-255 47q55 134 156.5 190.5t242.5 56.5q125 0 201 -45t76 -144q0 -22 -5 -50t-20 -70.5t-51.5 -76.5t-89.5 -46 q29 -8 47 -16t39.5 -23.5t32 -42t10.5 -63.5q0 -27 -10 -74q-60 -279 -405 -279q-179 0 -256.5 52t-77.5 186z" />
<glyph unicode="&#xb4;" horiz-adv-x="554" d="M326 1352l195 273h362l-337 -273h-220z" />
<glyph unicode="&#xb6;" horiz-adv-x="902" d="M227 802q0 208 137 354.5t329 146.5h344l-328 -1541h-212l285 1338h-41l-285 -1338h-207l168 782q-92 3 -141 74.5t-49 183.5z" />
<glyph unicode="&#xb7;" horiz-adv-x="469" d="M130 322q0 90 69 162.5t151 72.5q61 0 99.5 -42.5t38.5 -106.5q0 -93 -69 -163t-151 -70q-59 0 -98.5 42.5t-39.5 104.5z" />
<glyph unicode="&#xb8;" horiz-adv-x="446" d="M-56 -384l65 107q26 -6 38 -6q104 0 104 63q0 43 -103 43l95 183h146l-32 -69q68 -5 94.5 -29t26.5 -64l-6 -45q-24 -109 -101 -158t-180 -49q-75 0 -147 24z" />
<glyph unicode="&#xb9;" horiz-adv-x="606" d="M257 1255l313 208h292l-194 -904h-292l127 593l-106 -72z" />
<glyph unicode="&#xba;" horiz-adv-x="938" d="M207 745q0 83 20.5 164t64.5 156t105.5 132t151.5 91t196 34q92 0 160.5 -25t108 -70t58.5 -102t19 -127q0 -82 -20.5 -163t-64.5 -156.5t-105.5 -133t-151.5 -92t-196 -34.5q-92 0 -160.5 25.5t-108 71t-58.5 102.5t-19 127zM540 795q0 -52 18.5 -82t52.5 -30 q51 0 99 79.5t48 185.5q0 51 -18.5 80.5t-50.5 29.5q-52 0 -100.5 -78t-48.5 -185z" />
<glyph unicode="&#xbb;" horiz-adv-x="1007" d="M78 223l233 269l-114 268l252 197l231 -465l-423 -457zM473 227l233 265l-116 268l244 195l244 -465l-441 -460z" />
<glyph unicode="&#xbc;" horiz-adv-x="1867" d="M263 1093l312 208h293l-192 -904h-292l126 593l-108 -72zM473 -76l799 1418h329l-802 -1418h-326zM1152 225q0 23 2 36l287 42q17 -42 33.5 -57t57.5 -15q75 0 75 86q0 25 -15 34.5t-47 9.5h-130l-9 212h119q70 0 95.5 20.5t25.5 54.5q0 20 -11 32.5t-34 12.5 q-68 0 -82 -69l-257 46q57 135 158 191.5t241 56.5q125 0 201 -45.5t76 -144.5q0 -23 -5 -51t-19.5 -70t-51 -75.5t-90.5 -45.5q29 -8 47.5 -16t39.5 -23.5t31.5 -42t10.5 -63.5q0 -33 -9 -75q-60 -279 -406 -279q-179 0 -256.5 52t-77.5 186z" />
<glyph unicode="&#xbd;" horiz-adv-x="1871" d="M263 1093l312 208h293l-192 -904h-292l126 593l-108 -72zM473 -76l799 1418h329l-802 -1418h-326zM1138 0l46 222l361 240q48 31 74.5 60t32.5 44.5t12 42.5q4 26 4 33q0 47 -52 47q-66 0 -80 -63h-266q29 86 71 145t96 90t110.5 44t128.5 13q59 0 108 -9.5t92.5 -32 t68.5 -65.5t25 -104q0 -107 -44.5 -196t-134.5 -146l-225 -143h320l-47 -222h-701z" />
<glyph unicode="&#xbe;" horiz-adv-x="2062" d="M169 618q0 24 2 39l285 43q12 -29 19.5 -41.5t25 -22t46.5 -9.5q75 0 75 86q0 25 -15 35t-47 10h-130l-9 212h119q70 0 95.5 20t25.5 54q0 20 -11 32.5t-34 12.5q-68 0 -82 -69l-257 47q57 134 158.5 190.5t242.5 56.5q125 0 200 -44.5t75 -143.5q0 -18 -2 -37.5 t-11.5 -54t-25.5 -62.5t-49 -53.5t-77 -35.5q29 -8 47.5 -16t39 -24t31 -42.5t10.5 -63.5q0 -32 -9 -74q-60 -279 -406 -279q-179 0 -255.5 51t-76.5 183zM603 -76l797 1418h330l-803 -1418h-324zM1316 173l49 222l201 432h260l-189 -432h113l108 510h279l-108 -510h86 l-48 -222h-86l-35 -173h-280l36 173h-386z" />
<glyph unicode="&#xbf;" horiz-adv-x="899" d="M0 -141q0 56 13 121q16 73 56.5 136.5t88 106.5t93.5 78t79.5 66t38.5 56l13 59h333l-11 -52q-12 -57 -54 -112t-92 -98t-98.5 -85.5t-81 -90t-32.5 -94.5q0 -36 19.5 -50.5t44.5 -14.5q29 0 60 22.5t40 64.5l4 15h318l-5 -26q-19 -91 -56 -158t-80.5 -106t-102.5 -62.5 t-113.5 -31t-122.5 -7.5q-58 0 -104.5 5.5t-94.5 22t-80 44.5t-52.5 76.5t-20.5 114.5zM413 657q0 90 70 158.5t154 68.5q62 0 100.5 -40.5t38.5 -102.5q0 -91 -67 -162t-150 -71q-64 0 -105 42t-41 107z" />
<glyph unicode="&#xc0;" horiz-adv-x="1171" d="M13 0l693 1303h312l140 -1303h-350l-9 194h-347l-89 -194h-350zM557 1629h387l97 -277h-287zM575 456h214l-16 423z" />
<glyph unicode="&#xc1;" horiz-adv-x="1171" d="M13 0l693 1303h312l140 -1303h-350l-9 194h-347l-89 -194h-350zM575 456h214l-16 423zM752 1352l196 273h361l-337 -273h-220z" />
<glyph unicode="&#xc2;" horiz-adv-x="1171" d="M13 0l693 1303h312l140 -1303h-350l-9 194h-347l-89 -194h-350zM551 1402l274 207h201l184 -207l-33 -50l-293 61l-322 -61zM575 456h207l-9 423z" />
<glyph unicode="&#xc3;" horiz-adv-x="1171" d="M13 0l693 1303h312l140 -1303h-350l-9 194h-347l-89 -194h-350zM575 456h214l-16 423zM639 1428q48 82 105.5 124t110.5 42q33 0 79 -24.5t56 -24.5q14 0 34.5 13.5t34.5 37.5l88 -64q-44 -78 -103 -121.5t-113 -43.5q-34 0 -81.5 25t-56.5 25q-11 0 -32.5 -14.5 t-32.5 -37.5z" />
<glyph unicode="&#xc4;" horiz-adv-x="1171" d="M13 0l693 1303h312l140 -1303h-350l-9 194h-347l-89 -194h-350zM575 456h214l-16 423zM648 1450q0 60 46 110t101 50q39 0 65 -29t26 -73q0 -60 -46 -108t-99 -48q-41 0 -67 27.5t-26 70.5zM910 1450q0 60 46.5 110t101.5 50q39 0 65 -29t26 -73q0 -60 -46 -108t-99 -48 q-40 0 -67 28t-27 70z" />
<glyph unicode="&#xc5;" horiz-adv-x="1171" d="M13 0l693 1303h312l140 -1303h-350l-9 194h-347l-89 -194h-350zM575 456h214l-16 423zM667 1473q0 60 72 108t192 48q98 0 151.5 -35t53.5 -84q0 -13 -2 -19q-12 -56 -82.5 -97.5t-178.5 -41.5q-99 0 -152.5 35t-53.5 86zM866 1482q0 -12 8 -20t22 -8q15 0 27.5 13 t12.5 28q0 32 -26 32q-21 0 -32.5 -15t-11.5 -30z" />
<glyph unicode="&#xc6;" horiz-adv-x="1534" d="M13 0l832 1303h911l-60 -285h-441l-45 -206h367l-60 -285h-366l-53 -242h442l-60 -285h-773l41 194h-268l-115 -194h-352zM639 456h165l90 421z" />
<glyph unicode="&#xc7;" horiz-adv-x="934" d="M127 411q0 114 26 229q67 318 245 500t425 182q84 0 173.5 -21.5t152.5 -64.5l-145 -253q-87 50 -183 50q-125 0 -206.5 -104.5t-119.5 -282.5q-18 -95 -18 -156q0 -220 186 -220q50 0 108.5 14t101.5 38l15 -272q-82 -36 -184 -54l-30 -67q68 -5 94.5 -29t26.5 -64 l-6 -45q-24 -109 -101 -157.5t-180 -48.5q-77 0 -149 24l67 106q24 -5 38 -5q104 0 104 63q0 43 -103 43l86 165h-2q-212 0 -317 112.5t-105 317.5z" />
<glyph unicode="&#xc8;" horiz-adv-x="888" d="M60 0l275 1303h773l-60 -285h-443l-45 -206h369l-60 -285h-368l-52 -242h443l-60 -285h-772zM426 1629h388l96 -277h-286z" />
<glyph unicode="&#xc9;" horiz-adv-x="888" d="M60 0l275 1303h773l-60 -285h-443l-45 -206h369l-60 -285h-368l-52 -242h443l-60 -285h-772zM622 1352l195 273h362l-337 -273h-220z" />
<glyph unicode="&#xca;" horiz-adv-x="888" d="M60 0l275 1303h773l-60 -285h-443l-45 -206h369l-60 -285h-368l-52 -242h443l-60 -285h-772zM421 1402l273 207h202l184 -207l-34 -50l-292 61l-322 -61z" />
<glyph unicode="&#xcb;" horiz-adv-x="888" d="M60 0l275 1303h773l-60 -285h-443l-45 -206h369l-60 -285h-368l-52 -242h443l-60 -285h-772zM518 1450q0 60 46 110t101 50q39 0 65 -29t26 -73q0 -60 -46 -108t-99 -48q-41 0 -67 27.5t-26 70.5zM780 1450q0 60 46 110t101 50q39 0 65 -29t26 -73q0 -60 -46 -108 t-99 -48q-40 0 -66.5 28t-26.5 70z" />
<glyph unicode="&#xcc;" horiz-adv-x="450" d="M60 0l275 1303h330l-276 -1303h-329zM199 1629h387l97 -277h-286z" />
<glyph unicode="&#xcd;" horiz-adv-x="450" d="M60 0l275 1303h330l-276 -1303h-329zM395 1352l195 273h361l-337 -273h-219z" />
<glyph unicode="&#xce;" horiz-adv-x="450" d="M60 0l275 1303h330l-276 -1303h-329zM192 1402l273 207h202l184 -207l-34 -50l-292 61l-322 -61z" />
<glyph unicode="&#xcf;" horiz-adv-x="450" d="M60 0l275 1303h330l-276 -1303h-329zM290 1450q0 60 46 110t102 50q39 0 65 -29t26 -73q0 -60 -46 -108t-99 -48q-42 0 -68 28t-26 70zM553 1450q0 60 46 110t101 50q39 0 65 -29t26 -73q0 -60 -46 -108t-99 -48q-40 0 -66.5 28t-26.5 70z" />
<glyph unicode="&#xd0;" horiz-adv-x="1206" d="M155 0l104 497h-95l61 283h95l110 523q265 19 367 19q155 0 262.5 -27.5t167 -81.5t85 -122.5t25.5 -161.5q0 -97 -36 -272q-19 -89 -39.5 -157.5t-52.5 -142t-72 -127t-99 -102.5t-131.5 -80t-171 -49t-217.5 -18q-167 0 -363 19zM544 279q74 -7 126 -7q102 0 170.5 95 t109.5 286q22 101 22 177q0 94 -41 138.5t-130 44.5q-16 0 -103 -8l-46 -225h87l-61 -283h-88z" />
<glyph unicode="&#xd1;" horiz-adv-x="1139" d="M60 0l275 1303h315l169 -743l158 743h315l-275 -1303h-315l-171 743l-157 -743h-314zM624 1428q48 82 105.5 124t110.5 42q33 0 79.5 -24.5t56.5 -24.5q13 0 33.5 13.5t34.5 37.5l88 -64q-44 -78 -103 -121.5t-113 -43.5q-34 0 -81.5 25t-56.5 25q-11 0 -32.5 -14.5 t-32.5 -37.5z" />
<glyph unicode="&#xd2;" horiz-adv-x="1264" d="M162 460q0 103 20 192q31 144 97 267t159 212.5t215 140t259 50.5q225 0 346.5 -130.5t121.5 -349.5q0 -96 -21 -190q-63 -297 -261 -484t-471 -187q-225 0 -345 129.5t-120 349.5zM514 519q0 -108 47 -170t132 -62q131 0 233 145t102 354q0 108 -46.5 169.5t-132.5 61.5 q-111 0 -197.5 -100.5t-122.5 -264.5q-15 -65 -15 -133zM603 1629h387l97 -277h-286z" />
<glyph unicode="&#xd3;" horiz-adv-x="1264" d="M162 460q0 103 20 192q31 144 97 267t159 212.5t215 140t259 50.5q225 0 346.5 -130.5t121.5 -349.5q0 -96 -21 -190q-63 -297 -261 -484t-471 -187q-225 0 -345 129.5t-120 349.5zM514 519q0 -108 47 -170t132 -62q131 0 233 145t102 354q0 108 -46.5 169.5t-132.5 61.5 q-111 0 -197.5 -100.5t-122.5 -264.5q-15 -65 -15 -133zM799 1352l195 273h361l-337 -273h-219z" />
<glyph unicode="&#xd4;" horiz-adv-x="1264" d="M162 460q0 103 20 192q31 144 97 267t159 212.5t215 140t259 50.5q225 0 346.5 -130.5t121.5 -349.5q0 -96 -21 -190q-63 -297 -261 -484t-471 -187q-225 0 -345 129.5t-120 349.5zM514 519q0 -108 47 -170t132 -62q131 0 233 145t102 354q0 108 -46.5 169.5t-132.5 61.5 q-111 0 -197.5 -100.5t-122.5 -264.5q-15 -65 -15 -133zM600 1402l273 207h201l185 -207l-34 -50l-292 61l-322 -61z" />
<glyph unicode="&#xd5;" horiz-adv-x="1264" d="M162 460q0 103 20 192q31 144 97 267t159 212.5t215 140t259 50.5q225 0 346.5 -130.5t121.5 -349.5q0 -96 -21 -190q-63 -297 -261 -484t-471 -187q-225 0 -345 129.5t-120 349.5zM514 519q0 -108 47 -170t132 -62q131 0 233 145t102 354q0 108 -46.5 169.5t-132.5 61.5 q-111 0 -197.5 -100.5t-122.5 -264.5q-15 -65 -15 -133zM685 1428q48 82 105.5 124t110.5 42q33 0 79.5 -24.5t56.5 -24.5q14 0 34.5 13.5t34.5 37.5l87 -64q-44 -78 -103 -121.5t-113 -43.5q-34 0 -81 25t-56 25q-11 0 -32.5 -14.5t-32.5 -37.5z" />
<glyph unicode="&#xd6;" horiz-adv-x="1264" d="M162 460q0 103 20 192q31 144 97 267t159 212.5t215 140t259 50.5q225 0 346.5 -130.5t121.5 -349.5q0 -96 -21 -190q-63 -297 -261 -484t-471 -187q-225 0 -345 129.5t-120 349.5zM514 519q0 -108 47 -170t132 -62q131 0 233 145t102 354q0 108 -46.5 169.5t-132.5 61.5 q-111 0 -197.5 -100.5t-122.5 -264.5q-15 -65 -15 -133zM694 1450q0 60 46 110t102 50q39 0 65 -29t26 -73q0 -60 -46 -108t-99 -48q-42 0 -68 28t-26 70zM957 1450q0 60 46 110t101 50q39 0 65 -29t26 -73q0 -60 -46 -108t-99 -48q-40 0 -66.5 28t-26.5 70z" />
<glyph unicode="&#xd7;" horiz-adv-x="934" d="M74 214l278 263q-12 18 -54.5 74t-64 97t-21.5 80q0 8 2 16t7.5 16.5t9.5 15t13 15.5l14 14t17 14.5t15.5 12t16.5 12.5t15 11l110 95l169 -269l293 272l167 -205l-288 -271l165 -261q-15 -13 -108.5 -93.5t-138.5 -122.5l-172 272l-286 -268l-77 104q0 1 -23.5 28 t-58.5 78z" />
<glyph unicode="&#xd8;" horiz-adv-x="1264" d="M160 456q0 95 22 196q31 144 97 267t159 212.5t215 140t259 50.5q55 0 103 -9l39 63h281l-97 -164q142 -131 142 -372q0 -83 -21 -188q-63 -297 -261 -484t-471 -187q-47 0 -104 10l-37 -69h-281l97 167q-142 128 -142 367zM512 519q0 -33 6 -61l325 559 q-109 -3 -194.5 -103t-119.5 -262q-17 -74 -17 -133zM696 287q111 1 196 101t121 264q15 80 15 134q0 19 -4 57z" />
<glyph unicode="&#xd9;" horiz-adv-x="1038" d="M134 303q0 64 17 151l180 849h347l-183 -862q-7 -28 -7 -67q0 -104 89 -104q56 0 95.5 43.5t57.5 127.5l182 862h347l-181 -849q-101 -473 -562 -473q-382 0 -382 322zM493 1629h388l96 -277h-286z" />
<glyph unicode="&#xda;" horiz-adv-x="1038" d="M134 303q0 64 17 151l180 849h347l-183 -862q-7 -28 -7 -67q0 -104 89 -104q56 0 95.5 43.5t57.5 127.5l182 862h347l-181 -849q-101 -473 -562 -473q-382 0 -382 322zM689 1352l195 273h362l-337 -273h-220z" />
<glyph unicode="&#xdb;" horiz-adv-x="1038" d="M134 303q0 64 17 151l180 849h347l-183 -862q-7 -28 -7 -67q0 -104 89 -104q56 0 95.5 43.5t57.5 127.5l182 862h347l-181 -849q-101 -473 -562 -473q-382 0 -382 322zM486 1402l274 207h201l184 -207l-33 -50l-293 61l-322 -61z" />
<glyph unicode="&#xdc;" horiz-adv-x="1038" d="M134 303q0 64 17 151l180 849h347l-183 -862q-7 -28 -7 -67q0 -104 89 -104q56 0 95.5 43.5t57.5 127.5l182 862h347l-181 -849q-101 -473 -562 -473q-382 0 -382 322zM585 1450q0 60 46 110t101 50q39 0 65 -29t26 -73q0 -60 -46 -108t-99 -48q-42 0 -67.5 27.5 t-25.5 70.5zM847 1450q0 60 46 110t101 50q39 0 65 -29t26 -73q0 -60 -46 -108t-99 -48q-40 0 -66.5 28t-26.5 70z" />
<glyph unicode="&#xdd;" horiz-adv-x="1113" d="M303 1303h380l38 -547l258 547h382l-538 -880l-89 -423h-349l90 423zM728 1352l195 273h362l-337 -273h-220z" />
<glyph unicode="&#xde;" horiz-adv-x="804" d="M58 0l275 1303h350l-44 -216q92 -1 157.5 -23t100.5 -62.5t50.5 -89t15.5 -110.5q0 -70 -23 -173q-16 -74 -36 -132.5t-58.5 -122t-89.5 -106t-131.5 -70.5t-181.5 -29l-35 -169h-350zM508 475q31 5 46 31t23 69l23 106q5 21 5 51q0 40 -32 48z" />
<glyph unicode="&#xdf;" horiz-adv-x="1038" d="M63 0l209 989q22 106 75 187.5t123 129t144 71t149 23.5q149 0 241.5 -81t92.5 -222q0 -107 -40 -193t-104 -169q69 -60 103.5 -117.5t34.5 -137.5q0 -213 -164 -346.5t-443 -133.5h-67l104 287h28q87 0 146 35.5t59 105.5q0 34 -22.5 61t-54.5 45.5t-64 37.5t-54.5 49.5 t-22.5 69.5q0 7 4 33q10 48 36 81t55.5 51t57.5 37t46.5 52.5t18.5 85.5q0 38 -15.5 61t-40.5 23q-32 0 -66 -31.5t-47 -94.5l-209 -989h-313z" />
<glyph unicode="&#xe0;" horiz-adv-x="819" d="M67 171q0 35 9 77q34 156 157 228.5t353 74.5l8 35q2 6 2 19q0 71 -129 71q-103 0 -227 -32l8 196q150 44 342 44q174 0 246.5 -49t72.5 -152q0 -43 -15 -115l-119 -568h-276l15 76q-95 -95 -231 -95q-105 0 -160.5 50.5t-55.5 139.5zM290 1231h388l95 -278h-287z M404 229q0 -45 34 -45q35 0 61.5 38.5t40.5 107.5l7 35q-117 -4 -139 -106q-4 -22 -4 -30z" />
<glyph unicode="&#xe1;" horiz-adv-x="819" d="M67 171q0 35 9 77q34 156 157 228.5t353 74.5l8 35q2 6 2 19q0 71 -129 71q-103 0 -227 -32l8 196q150 44 342 44q174 0 246.5 -49t72.5 -152q0 -43 -15 -115l-119 -568h-276l15 76q-95 -95 -231 -95q-105 0 -160.5 50.5t-55.5 139.5zM404 229q0 -45 34 -45 q35 0 61.5 38.5t40.5 107.5l7 35q-117 -4 -139 -106q-4 -22 -4 -30zM484 953l197 274h362l-339 -274h-220z" />
<glyph unicode="&#xe2;" horiz-adv-x="819" d="M67 171q0 35 9 77q34 156 157 228.5t353 74.5l8 35q2 6 2 19q0 71 -129 71q-103 0 -227 -32l8 196q150 44 342 44q174 0 246.5 -49t72.5 -152q0 -43 -15 -115l-119 -568h-276l15 76q-95 -95 -231 -95q-105 0 -160.5 50.5t-55.5 139.5zM283 1004l276 206h201l182 -206 l-33 -51l-293 62l-322 -62zM404 229q0 -45 34 -45q35 0 61.5 38.5t40.5 107.5l7 35q-117 -4 -139 -106q-4 -22 -4 -30z" />
<glyph unicode="&#xe3;" horiz-adv-x="819" d="M67 171q0 35 9 77q34 156 157 228.5t353 74.5l8 35q2 6 2 19q0 71 -129 71q-103 0 -227 -32l8 196q150 44 342 44q174 0 246.5 -49t72.5 -152q0 -43 -15 -115l-119 -568h-276l15 76q-95 -95 -231 -95q-105 0 -160.5 50.5t-55.5 139.5zM371 1030q50 82 107 123.5t110 41.5 q33 0 78.5 -24t55.5 -24q14 0 34.5 13t34.5 37l90 -63q-44 -78 -104 -122t-114 -44q-34 0 -80.5 25t-55.5 25q-11 0 -32.5 -14.5t-32.5 -37.5zM404 229q0 -45 34 -45q35 0 61.5 38.5t40.5 107.5l7 35q-117 -4 -139 -106q-4 -22 -4 -30z" />
<glyph unicode="&#xe4;" horiz-adv-x="819" d="M67 171q0 35 9 77q34 156 157 228.5t353 74.5l8 35q2 6 2 19q0 71 -129 71q-103 0 -227 -32l8 196q150 44 342 44q174 0 246.5 -49t72.5 -152q0 -43 -15 -115l-119 -568h-276l15 76q-95 -95 -231 -95q-105 0 -160.5 50.5t-55.5 139.5zM382 1052q0 60 46 110t101 50 q39 0 65 -29t26 -73q0 -60 -47 -108.5t-100 -48.5q-42 0 -66.5 27.5t-24.5 71.5zM404 229q0 -45 34 -45q35 0 61.5 38.5t40.5 107.5l7 35q-117 -4 -139 -106q-4 -22 -4 -30zM644 1052q0 60 46 110t101 50q39 0 65.5 -29.5t26.5 -72.5q0 -60 -47.5 -108.5t-100.5 -48.5 q-40 0 -65.5 28.5t-25.5 70.5z" />
<glyph unicode="&#xe5;" horiz-adv-x="819" d="M67 171q0 35 9 77q34 156 157 228.5t353 74.5l8 35q2 6 2 19q0 71 -129 71q-103 0 -227 -32l8 196q150 44 342 44q174 0 246.5 -49t72.5 -152q0 -43 -15 -115l-119 -568h-276l15 76q-95 -95 -231 -95q-105 0 -160.5 50.5t-55.5 139.5zM398 1074q0 60 73.5 108.5 t193.5 48.5q98 0 150.5 -34t52.5 -85q0 -13 -2 -19q-12 -56 -82.5 -98t-178.5 -42q-100 0 -153.5 35t-53.5 86zM404 229q0 -45 34 -45q35 0 61.5 38.5t40.5 107.5l7 35q-117 -4 -139 -106q-4 -22 -4 -30zM598 1084q0 -28 29 -28q16 0 28.5 13.5t12.5 28.5q0 12 -7 21t-19 9 q-20 0 -32 -15t-12 -29z" />
<glyph unicode="&#xe6;" horiz-adv-x="1359" d="M65 171q0 164 132 241.5t414 90.5l5 28q10 60 10 61q0 34 -26 50.5t-95 16.5q-106 -3 -254 -45l15 226q191 50 341 50q183 0 257 -61q99 55 223 55q89 0 153 -23.5t100 -66.5t52.5 -96t16.5 -119q0 -76 -16 -149l-21 -93h-469q-2 -7 -2 -22q0 -53 51 -78t117 -25 q149 0 273 24l-33 -206q-21 -8 -61.5 -18t-132.5 -20.5t-197 -10.5q-174 0 -259 92q-183 -92 -352 -92q-120 0 -181 51t-61 139zM387 220q0 -24 14 -38t38 -14q101 0 131 145l3 17q-168 -10 -184 -90q-2 -7 -2 -20zM936 506h159q11 50 11 86q0 73 -58 73q-44 0 -69.5 -41.5 t-42.5 -117.5z" />
<glyph unicode="&#xe7;" horiz-adv-x="722" d="M104 287q0 64 17 141q46 214 174.5 335t311.5 121q59 0 129.5 -13t118.5 -41l-136 -234q-54 20 -106 20q-122 0 -159 -182q-9 -42 -9 -78q0 -107 95 -107q64 0 121 25l15 -252q-70 -25 -173 -37l-25 -54q67 -5 93.5 -28.5t26.5 -62.5q0 -22 -6 -47q-24 -109 -101 -157.5 t-180 -48.5q-77 0 -149 24l67 106q29 -6 39 -6q103 0 103 64q0 43 -101 43l87 169q-128 16 -190.5 94t-62.5 206z" />
<glyph unicode="&#xe8;" horiz-adv-x="884" d="M106 290q0 58 15 136q16 74 41 137.5t67.5 124t98.5 103t136.5 68t177.5 25.5q155 0 231.5 -59.5t76.5 -161.5q0 -21 -8 -65q-19 -87 -70 -149.5t-122.5 -95.5t-145.5 -48t-155 -15h-6q12 -44 49 -61t98 -17q138 0 283 49l-35 -216q-60 -22 -158 -43t-202 -21 q-372 0 -372 309zM315 1231h387l95 -278h-287zM452 460q187 6 187 153q0 52 -47 52q-41 0 -78 -50t-62 -155z" />
<glyph unicode="&#xe9;" horiz-adv-x="884" d="M106 290q0 58 15 136q16 74 41 137.5t67.5 124t98.5 103t136.5 68t177.5 25.5q155 0 231.5 -59.5t76.5 -161.5q0 -21 -8 -65q-19 -87 -70 -149.5t-122.5 -95.5t-145.5 -48t-155 -15h-6q12 -44 49 -61t98 -17q138 0 283 49l-35 -216q-60 -22 -158 -43t-202 -21 q-372 0 -372 309zM452 460q187 6 187 153q0 52 -47 52q-41 0 -78 -50t-62 -155zM508 953l198 274h361l-339 -274h-220z" />
<glyph unicode="&#xea;" horiz-adv-x="884" d="M106 290q0 58 15 136q16 74 41 137.5t67.5 124t98.5 103t136.5 68t177.5 25.5q155 0 231.5 -59.5t76.5 -161.5q0 -21 -8 -65q-19 -87 -70 -149.5t-122.5 -95.5t-145.5 -48t-155 -15h-6q12 -44 49 -61t98 -17q138 0 283 49l-35 -216q-60 -22 -158 -43t-202 -21 q-372 0 -372 309zM307 1004l276 206h201l182 -206l-33 -51l-293 62l-322 -62zM452 460q187 6 187 153q0 52 -47 52q-41 0 -78 -50t-62 -155z" />
<glyph unicode="&#xeb;" horiz-adv-x="884" d="M106 290q0 58 15 136q16 74 41 137.5t67.5 124t98.5 103t136.5 68t177.5 25.5q155 0 231.5 -59.5t76.5 -161.5q0 -21 -8 -65q-19 -87 -70 -149.5t-122.5 -95.5t-145.5 -48t-155 -15h-6q12 -44 49 -61t98 -17q138 0 283 49l-35 -216q-60 -22 -158 -43t-202 -21 q-372 0 -372 309zM406 1052q0 60 46 110t101 50q39 0 65 -29t26 -73q0 -60 -47 -108.5t-100 -48.5q-42 0 -66.5 27.5t-24.5 71.5zM452 460q187 6 187 153q0 52 -47 52q-41 0 -78 -50t-62 -155zM668 1052q0 60 46 110t101 50q39 0 65.5 -29.5t26.5 -72.5q0 -60 -47 -108.5 t-100 -48.5q-40 0 -66 28.5t-26 70.5z" />
<glyph unicode="&#xec;" horiz-adv-x="478" d="M106 171q0 71 21 170l111 525h313l-115 -542q-8 -34 -8 -45q0 -37 43 -37q17 0 26 4l-30 -240q-76 -25 -188 -25q-93 0 -133 49t-40 141zM115 1231h388l95 -278h-287z" />
<glyph unicode="&#xed;" horiz-adv-x="478" d="M106 171q0 71 21 170l111 525h313l-115 -542q-8 -34 -8 -45q0 -37 43 -37q17 0 26 4l-30 -240q-76 -25 -188 -25q-93 0 -133 49t-40 141zM309 953l197 274h362l-339 -274h-220z" />
<glyph unicode="&#xee;" horiz-adv-x="478" d="M106 171q0 71 21 170l111 525h313l-115 -542q-8 -34 -8 -45q0 -37 43 -37q17 0 26 4l-30 -240q-76 -25 -188 -25q-93 0 -133 49t-40 141zM106 1004l276 206h201l182 -206l-33 -51l-293 62l-322 -62z" />
<glyph unicode="&#xef;" horiz-adv-x="478" d="M106 171q0 71 21 170l111 525h313l-115 -542q-8 -34 -8 -45q0 -37 43 -37q17 0 26 4l-30 -240q-76 -25 -188 -25q-93 0 -133 49t-40 141zM207 1052q0 60 46 110t101 50q39 0 65 -29t26 -73q0 -60 -47 -108.5t-100 -48.5q-42 0 -66.5 27.5t-24.5 71.5zM469 1052 q0 60 46 110t101 50q39 0 65 -29t26 -73q0 -60 -47 -108.5t-100 -48.5q-40 0 -65.5 28.5t-25.5 70.5z" />
<glyph unicode="&#xf0;" horiz-adv-x="942" d="M106 287q0 71 19 156q18 90 49 166t75.5 139.5t108 99.5t139.5 36q85 0 147 -69l-69 170l-164 -32l-26 226l103 20l-41 104h337l15 -44l162 31l28 -225l-120 -24l25 -67q29 -82 43 -124.5t30.5 -122.5t17.5 -152q0 -69 -17 -152q-45 -209 -176 -325.5t-345 -116.5 q-341 0 -341 306zM454 328q0 -88 54 -88q76 0 116 188q13 62 13 106q0 84 -49 84q-79 0 -121 -190q-13 -59 -13 -100z" />
<glyph unicode="&#xf1;" horiz-adv-x="919" d="M61 0l183 866h298l-21 -103q48 58 126 89.5t146 31.5q101 0 151 -52.5t50 -151.5q0 -55 -13 -114l-119 -566h-315l99 471q7 28 7 63q0 82 -63 82q-38 0 -68.5 -36.5t-46.5 -112.5l-99 -467h-315zM428 1030q50 82 107.5 123.5t110.5 41.5q33 0 78.5 -24t55.5 -24 q14 0 34.5 13t34.5 37l89 -63q-44 -78 -103.5 -122t-113.5 -44q-34 0 -80.5 25t-55.5 25q-11 0 -33 -14.5t-33 -37.5z" />
<glyph unicode="&#xf2;" d="M110 307q0 83 20.5 164t64.5 156t105.5 132t151.5 91t196 34q92 0 160.5 -25t108 -70t58.5 -102t19 -127q0 -82 -20.5 -163t-64.5 -156.5t-105.5 -133t-151.5 -92t-196 -34.5q-92 0 -160.5 25.5t-108 71t-58.5 102.5t-19 127zM350 1231h387l95 -278h-286zM443 357 q0 -52 18.5 -81.5t52.5 -29.5q51 0 99 79t48 185q0 51 -18.5 80.5t-50.5 29.5q-52 0 -100.5 -78t-48.5 -185z" />
<glyph unicode="&#xf3;" d="M110 307q0 83 20.5 164t64.5 156t105.5 132t151.5 91t196 34q92 0 160.5 -25t108 -70t58.5 -102t19 -127q0 -82 -20.5 -163t-64.5 -156.5t-105.5 -133t-151.5 -92t-196 -34.5q-92 0 -160.5 25.5t-108 71t-58.5 102.5t-19 127zM443 357q0 -52 18.5 -81.5t52.5 -29.5 q51 0 99 79t48 185q0 51 -18.5 80.5t-50.5 29.5q-52 0 -100.5 -78t-48.5 -185zM544 953l197 274h361l-339 -274h-219z" />
<glyph unicode="&#xf4;" d="M110 307q0 83 20.5 164t64.5 156t105.5 132t151.5 91t196 34q92 0 160.5 -25t108 -70t58.5 -102t19 -127q0 -82 -20.5 -163t-64.5 -156.5t-105.5 -133t-151.5 -92t-196 -34.5q-92 0 -160.5 25.5t-108 71t-58.5 102.5t-19 127zM341 1004l275 206h201l183 -206l-34 -51 l-292 62l-322 -62zM443 357q0 -52 18.5 -81.5t52.5 -29.5q51 0 99 79t48 185q0 51 -18.5 80.5t-50.5 29.5q-52 0 -100.5 -78t-48.5 -185z" />
<glyph unicode="&#xf5;" d="M110 307q0 83 20.5 164t64.5 156t105.5 132t151.5 91t196 34q92 0 160.5 -25t108 -70t58.5 -102t19 -127q0 -82 -20.5 -163t-64.5 -156.5t-105.5 -133t-151.5 -92t-196 -34.5q-92 0 -160.5 25.5t-108 71t-58.5 102.5t-19 127zM428 1030q50 82 107.5 123.5t110.5 41.5 q33 0 78.5 -24t55.5 -24q14 0 34.5 13t34.5 37l89 -63q-44 -78 -103.5 -122t-113.5 -44q-34 0 -80.5 25t-55.5 25q-11 0 -33 -14.5t-33 -37.5zM443 357q0 -52 18.5 -81.5t52.5 -29.5q51 0 99 79t48 185q0 51 -18.5 80.5t-50.5 29.5q-52 0 -100.5 -78t-48.5 -185z" />
<glyph unicode="&#xf6;" d="M110 307q0 83 20.5 164t64.5 156t105.5 132t151.5 91t196 34q92 0 160.5 -25t108 -70t58.5 -102t19 -127q0 -82 -20.5 -163t-64.5 -156.5t-105.5 -133t-151.5 -92t-196 -34.5q-92 0 -160.5 25.5t-108 71t-58.5 102.5t-19 127zM441 1052q0 60 46 110t101 50 q39 0 65.5 -29.5t26.5 -72.5q0 -60 -47.5 -108.5t-100.5 -48.5q-42 0 -66.5 27.5t-24.5 71.5zM443 357q0 -52 18.5 -81.5t52.5 -29.5q51 0 99 79t48 185q0 51 -18.5 80.5t-50.5 29.5q-52 0 -100.5 -78t-48.5 -185zM704 1052q0 60 46 110t101 50q39 0 65 -29t26 -73 q0 -60 -47 -108.5t-100 -48.5q-40 0 -65.5 28.5t-25.5 70.5z" />
<glyph unicode="&#xf7;" horiz-adv-x="873" d="M117 335l52 244h777l-52 -244h-777zM307 78q0 75 53.5 134.5t125.5 59.5q49 0 78.5 -34t29.5 -85q0 -75 -54 -132.5t-121 -57.5q-52 0 -82 32t-30 83zM449 745q0 74 55 131t122 57q48 0 78.5 -34t30.5 -85q0 -74 -55 -131t-120 -57q-50 0 -80.5 33.5t-30.5 85.5z" />
<glyph unicode="&#xf8;" d="M30 -89l151 173q-73 88 -73 221q0 82 20.5 163t65 156.5t106.5 133t152 92t196 34.5q112 0 190 -39l97 110h139l-151 -173q73 -85 73 -222q0 -82 -21 -163t-65 -156.5t-106.5 -133t-152.5 -92t-195 -34.5q-111 0 -192 39l-95 -109h-139zM445 391l186 214q-15 15 -39 15 q-45 0 -83.5 -51t-56.5 -135q-1 -3 -7 -43zM473 261q18 -15 41 -15q44 0 82 52t56 136q2 7 3.5 20.5t3.5 20.5z" />
<glyph unicode="&#xf9;" horiz-adv-x="917" d="M117 240q0 67 15 132l104 494h315l-104 -494q-4 -15 -4 -37q0 -42 20 -64t47 -22q32 0 64.5 32t45.5 91l104 494h315l-183 -866h-283l15 73q-113 -92 -225 -92q-120 0 -183 67t-63 192zM346 1231h388l95 -278h-287z" />
<glyph unicode="&#xfa;" horiz-adv-x="917" d="M117 240q0 67 15 132l104 494h315l-104 -494q-4 -15 -4 -37q0 -42 20 -64t47 -22q32 0 64.5 32t45.5 91l104 494h315l-183 -866h-283l15 73q-113 -92 -225 -92q-120 0 -183 67t-63 192zM540 953l197 274h361l-338 -274h-220z" />
<glyph unicode="&#xfb;" horiz-adv-x="917" d="M117 240q0 67 15 132l104 494h315l-104 -494q-4 -15 -4 -37q0 -42 20 -64t47 -22q32 0 64.5 32t45.5 91l104 494h315l-183 -866h-283l15 73q-113 -92 -225 -92q-120 0 -183 67t-63 192zM339 1004l275 206h201l183 -206l-34 -51l-292 62l-322 -62z" />
<glyph unicode="&#xfc;" horiz-adv-x="917" d="M117 240q0 67 15 132l104 494h315l-104 -494q-4 -15 -4 -37q0 -42 20 -64t47 -22q32 0 64.5 32t45.5 91l104 494h315l-183 -866h-283l15 73q-113 -92 -225 -92q-120 0 -183 67t-63 192zM438 1052q0 60 46 110t101 50q39 0 65 -29t26 -73q0 -60 -47 -108.5t-100 -48.5 q-42 0 -66.5 27.5t-24.5 71.5zM700 1052q0 60 46 110t101 50q39 0 65 -29t26 -73q0 -60 -47 -108.5t-100 -48.5q-40 0 -65.5 28.5t-25.5 70.5z" />
<glyph unicode="&#xfd;" horiz-adv-x="902" d="M15 -350l82 223q62 -13 108 -13q75 0 87 60l11 35l-117 911h348l-15 -559l229 559h334l-501 -954q-87 -165 -175.5 -224.5t-208.5 -59.5q-57 0 -82.5 3t-99.5 19zM534 953l198 274h361l-339 -274h-220z" />
<glyph unicode="&#xfe;" horiz-adv-x="925" d="M-11 -354l367 1732h312l-132 -617q103 123 218 123q127 0 192 -76t65 -212q0 -73 -19 -158q-45 -210 -156 -333.5t-272 -123.5q-56 0 -95.5 25t-75.5 80l-93 -440h-311zM458 352q0 -99 67 -99q48 0 84 47t54 134q11 50 11 84q0 96 -71 96q-55 0 -100 -72.5t-45 -189.5z " />
<glyph unicode="&#xff;" horiz-adv-x="902" d="M15 -350l82 223q62 -13 108 -13q75 0 87 60l11 35l-117 911h348l-15 -559l229 559h334l-501 -954q-87 -165 -175.5 -224.5t-208.5 -59.5q-57 0 -82.5 3t-99.5 19zM434 1052q0 60 46 110t101 50q39 0 65 -29t26 -73q0 -60 -47 -108.5t-100 -48.5q-42 0 -66.5 27.5 t-24.5 71.5zM696 1052q0 60 46 110t101 50q39 0 65.5 -29.5t26.5 -72.5q0 -60 -47 -108.5t-100 -48.5q-40 0 -66 28.5t-26 70.5z" />
<glyph unicode="&#x152;" horiz-adv-x="1697" d="M162 460q0 103 20 192q31 144 97 267t159 212.5t215 140t259 50.5q139 0 244 -58l8 39h772l-59 -285h-443l-45 -206h369l-60 -285h-369l-52 -242h443l-59 -285h-773l8 35q-127 -54 -269 -54q-225 0 -345 129.5t-120 349.5zM516 529q0 -109 48 -172.5t138 -67.5 q105 0 184 62.5t114 179.5l50 238q2 15 2 45q0 95 -49.5 148t-146.5 53q-116 -5 -204.5 -104.5t-122.5 -258.5q-13 -65 -13 -123z" />
<glyph unicode="&#x153;" horiz-adv-x="1420" d="M110 307q0 83 20.5 164t64.5 156t105.5 132t151.5 91t196 34q158 0 246 -74q117 74 285 74q155 0 231 -59.5t76 -161.5q0 -21 -8 -65q-19 -87 -70 -149.5t-122.5 -95.5t-145.5 -48t-155 -15h-6q12 -44 49 -61t98 -17q138 0 283 49l-35 -216q-173 -64 -359 -64 q-182 0 -278 77q-119 -77 -281 -77q-92 0 -160.5 25.5t-108 71t-58.5 102.5t-19 127zM443 357q0 -52 18.5 -81.5t52.5 -29.5q51 0 99 79t48 185q0 51 -18.5 80.5t-50.5 29.5q-52 0 -100.5 -78t-48.5 -185zM989 460q186 5 186 153q0 52 -47 52q-41 0 -77.5 -49.5 t-61.5 -155.5z" />
<glyph unicode="&#x178;" horiz-adv-x="1113" d="M303 1303h380l38 -547l258 547h382l-538 -880l-89 -423h-349l90 423zM624 1450q0 60 46 110t101 50q39 0 65 -29t26 -73q0 -60 -46 -108t-99 -48q-41 0 -67 27.5t-26 70.5zM886 1450q0 60 46 110t101 50q39 0 65.5 -29.5t26.5 -72.5q0 -60 -46.5 -108t-99.5 -48 q-40 0 -66.5 28t-26.5 70z" />
<glyph unicode="&#x2c6;" horiz-adv-x="573" d="M257 1402l274 207h201l184 -207l-33 -50l-293 61l-322 -61z" />
<glyph unicode="&#x2dc;" horiz-adv-x="565" d="M341 1426q50 82 107.5 124t110.5 42q33 0 79 -24.5t56 -24.5q13 0 33 13.5t34 37.5l90 -64q-44 -78 -104 -121.5t-114 -43.5q-34 0 -80.5 25t-55.5 25q-11 0 -32.5 -14.5t-32.5 -37.5z" />
<glyph unicode="&#x2000;" horiz-adv-x="814" />
<glyph unicode="&#x2001;" horiz-adv-x="1629" />
<glyph unicode="&#x2002;" horiz-adv-x="814" />
<glyph unicode="&#x2003;" horiz-adv-x="1629" />
<glyph unicode="&#x2004;" horiz-adv-x="543" />
<glyph unicode="&#x2005;" horiz-adv-x="407" />
<glyph unicode="&#x2006;" horiz-adv-x="271" />
<glyph unicode="&#x2007;" horiz-adv-x="271" />
<glyph unicode="&#x2008;" horiz-adv-x="203" />
<glyph unicode="&#x2009;" horiz-adv-x="325" />
<glyph unicode="&#x200a;" horiz-adv-x="90" />
<glyph unicode="&#x2010;" horiz-adv-x="569" d="M108 361l60 283h513l-59 -283h-514z" />
<glyph unicode="&#x2011;" horiz-adv-x="569" d="M108 361l60 283h513l-59 -283h-514z" />
<glyph unicode="&#x2012;" horiz-adv-x="569" d="M108 361l60 283h513l-59 -283h-514z" />
<glyph unicode="&#x2013;" horiz-adv-x="772" d="M54 259l65 303h773l-65 -303h-773z" />
<glyph unicode="&#x2014;" horiz-adv-x="1321" d="M160 259l65 303h1110l-65 -303h-1110z" />
<glyph unicode="&#x2018;" horiz-adv-x="482" d="M216 875l277 428h233l-180 -428h-330z" />
<glyph unicode="&#x2019;" horiz-adv-x="482" d="M216 875l179 428h331l-277 -428h-233z" />
<glyph unicode="&#x201a;" horiz-adv-x="554" d="M-13 -203l207 544h376l-306 -544h-277z" />
<glyph unicode="&#x201c;" horiz-adv-x="828" d="M216 875l277 428h233l-180 -428h-330zM564 875l276 428h232l-178 -428h-330z" />
<glyph unicode="&#x201d;" horiz-adv-x="828" d="M216 875l179 428h331l-277 -428h-233zM564 875l179 428h329l-275 -428h-233z" />
<glyph unicode="&#x201e;" horiz-adv-x="923" d="M6 -203l210 544h374l-303 -544h-281zM400 -203l214 544h373l-304 -544h-283z" />
<glyph unicode="&#x2022;" horiz-adv-x="575" d="M149 408q0 109 86 191t195 82q83 0 134.5 -50.5t51.5 -127.5q0 -107 -86 -188.5t-195 -81.5q-84 0 -135 49t-51 126z" />
<glyph unicode="&#x2026;" horiz-adv-x="1301" d="M86 110q0 90 61 156.5t140 66.5q55 0 90.5 -38.5t35.5 -97.5q0 -92 -64 -153t-137 -61q-58 0 -92 34t-34 93zM519 110q0 90 61 156.5t139 66.5q55 0 91.5 -38.5t36.5 -97.5q0 -92 -64.5 -153t-138.5 -61q-56 0 -90.5 34t-34.5 93zM953 110q0 90 61 156.5t140 66.5 q55 0 91 -38.5t36 -97.5q0 -92 -64 -153t-137 -61q-58 0 -92.5 34t-34.5 93z" />
<glyph unicode="&#x202f;" horiz-adv-x="325" />
<glyph unicode="&#x2039;" horiz-adv-x="606" d="M136 493l437 464l161 -196l-222 -268l108 -262l-253 -186z" />
<glyph unicode="&#x203a;" horiz-adv-x="606" d="M78 225l233 268l-114 268l252 198l231 -466l-421 -456z" />
<glyph unicode="&#x205f;" horiz-adv-x="407" />
<glyph unicode="&#x20ac;" horiz-adv-x="1388" d="M184 408l166 180h32l9 49h-160l167 182h45q87 238 248.5 370.5t371.5 132.5q84 0 173.5 -21.5t152.5 -64.5l-145 -253q-87 50 -183 50q-175 0 -272 -214h490l-182 -182h-363q-8 -34 -8 -49h374l-184 -180h-192q31 -138 179 -138q50 0 108.5 14t101.5 38l15 -272 q-158 -69 -339 -69q-212 0 -317 111t-107 316h-181z" />
<glyph unicode="&#x2122;" horiz-adv-x="1297" d="M248 1110l41 193h532l-41 -193h-158l-117 -555h-215l118 555h-160zM583 553l298 750h188v-393l171 393h184l-20 -750h-222l36 348l-138 -348h-168v346l-108 -346h-221z" />
<glyph unicode="&#xe000;" horiz-adv-x="865" d="M0 0v866h866v-866h-866z" />
</font>
</defs>
</svg>
