<?xml version="1.0" standalone="no"?>
<!DOCTYPE svg PUBLIC "-//W3C//DTD SVG 1.1//EN" "http://www.w3.org/Graphics/SVG/1.1/DTD/svg11.dtd" >
<svg xmlns="http://www.w3.org/2000/svg">
<metadata></metadata>
<defs>
<font id="savignythin_cond_italic" horiz-adv-x="1040" >
<font-face units-per-em="2048" ascent="1536" descent="-512" />
<missing-glyph horiz-adv-x="368" />
<glyph unicode="&#xfb01;" horiz-adv-x="800" d="M80 -354l251 1183h-122l7 37h123l46 214q37 174 101.5 245t181.5 71q98 0 190 -44l-13 -36q-80 43 -192 43q-95 0 -145 -65t-82 -214l-46 -214h398l-141 -672q-15 -75 -15 -106q0 -40 16 -56.5t51 -16.5q21 0 37 5l-2 -31q-18 -8 -48 -8q-51 0 -73 22t-22 75q0 38 15 116 l134 635h-358l-251 -1183h-41z" />
<glyph unicode="&#xfb02;" horiz-adv-x="800" d="M80 -354l251 1183h-122l7 37h123l46 214q37 174 101.5 245t181.5 71q88 0 175 -37l4 19h41l-251 -1184q-15 -75 -15 -106q0 -40 16 -56.5t51 -16.5q21 0 37 5l-2 -31q-18 -8 -48 -8q-51 0 -73 22t-22 75q0 38 15 116l134 635h-358l-251 -1183h-41zM380 866h357l97 456 q-80 37 -181 37q-95 0 -145 -65t-82 -214z" />
<glyph unicode="&#xfb03;" horiz-adv-x="1182" d="M156 0l175 829h-122l7 37h123l26 121q37 173 105 244.5t191 71.5q82 0 168 -56q37 79 92.5 114t137.5 35q91 0 183 -44l-13 -36q-80 43 -185 43q-95 0 -145 -65t-82 -214l-46 -214h387l-141 -672q-15 -75 -15 -106q0 -40 16 -56.5t51 -16.5q21 0 37 5v-31q-22 -8 -50 -8 q-51 0 -73 22t-22 75q0 38 15 116l134 635h-347l-175 -829h-41l175 829h-350l-175 -829h-41zM380 866h350l46 214q17 78 38 134q-77 52 -168 52q-102 0 -155 -65t-85 -214z" />
<glyph unicode="&#xfb04;" horiz-adv-x="1193" d="M80 -354l251 1183h-122l7 37h123l26 121q37 173 105 244.5t191 71.5q82 0 168 -56q37 79 92.5 114t137.5 35q88 0 175 -37l4 19h41l-251 -1184q-15 -75 -15 -106q0 -40 16 -56.5t51 -16.5q21 0 37 5v-31q-22 -8 -50 -8q-51 0 -73 22t-22 75q0 38 15 116l134 635h-358 l-251 -1183h-41l251 1183h-350l-251 -1183h-41zM380 866h350l46 214q17 78 38 134q-77 52 -168 52q-102 0 -155 -65t-85 -214zM771 866h357l97 456q-80 37 -181 37q-95 0 -145 -65t-82 -214z" />
<glyph horiz-adv-x="2048" />
<glyph horiz-adv-x="2048" />
<glyph unicode="&#xd;" horiz-adv-x="2048" />
<glyph unicode=" "  horiz-adv-x="368" />
<glyph unicode="&#x09;" horiz-adv-x="368" />
<glyph unicode="&#xa0;" horiz-adv-x="368" />
<glyph unicode="!" horiz-adv-x="411" d="M175 41q0 20 15 34t33 14q14 0 23 -8t9 -21q0 -19 -14 -35t-34 -16q-14 0 -23 9.5t-9 22.5zM249 315l222 1035h45l-222 -1035h-45z" />
<glyph unicode="&#x22;" horiz-adv-x="404" d="M311 912l82 391h39l-82 -391h-39zM432 912l89 391h41l-82 -391h-48z" />
<glyph unicode="#" horiz-adv-x="841" d="M128 410l10 37h210l149 421h-210l7 37h218l151 417h39l-151 -417h199l149 417h39l-149 -417h179l-7 -37h-186l-153 -421h190l-10 -37h-197l-145 -410h-39l147 410h-199l-147 -410h-38l147 410h-203zM387 447h198l150 421h-199z" />
<glyph unicode="$" horiz-adv-x="711" d="M65 30l19 37q123 -47 236 -47q99 0 180.5 43t132 131t50.5 208q0 60 -22.5 108.5t-58 81.5t-79 61.5l-87 57t-79 60t-58 79t-22.5 105.5q0 153 97.5 256t262.5 111l33 153h41l-33 -153q109 -3 227 -28l-13 -37q-132 26 -231 26q-153 0 -245 -85t-92 -234 q0 -55 22.5 -98.5t58 -73t79 -56.5t87 -56.5t79 -63.5t58 -86t22.5 -117q0 -187 -103 -302t-271 -128l-38 -169h-41l36 167q-120 0 -248 49z" />
<glyph unicode="%" horiz-adv-x="1459" d="M207 802q0 145 54.5 265t146 187.5t197.5 67.5q115 0 176 -71t61 -195q0 -218 -119.5 -367t-283.5 -149q-113 0 -172.5 70t-59.5 192zM251 814q0 -108 50.5 -173.5t145.5 -65.5q93 0 174 65t128.5 173.5t47.5 230.5q0 109 -51 175t-148 66q-95 0 -175.5 -66t-126 -174 t-45.5 -231zM328 -26l992 1361h47l-991 -1361h-48zM858 246q0 217 119 367t282 150q114 0 174 -70.5t60 -193.5q0 -218 -119 -368t-283 -150q-113 0 -173 71t-60 194zM903 255q0 -109 50 -173.5t145 -64.5q93 0 174 65.5t128.5 174t47.5 231.5q0 109 -51 173.5t-148 64.5 q-94 0 -174 -65.5t-126 -174t-46 -231.5z" />
<glyph unicode="&#x26;" horiz-adv-x="1053" d="M151 199q0 64 23 124t57.5 107t95 100t114.5 91t136 92q-99 178 -99 300q0 127 88.5 218t209.5 91q97 0 150 -47.5t53 -131.5q0 -71 -27 -134t-81.5 -118.5t-104.5 -94t-129 -90.5l246 -434q31 31 87 94.5t69 76.5l26 -22q-7 -8 -68 -74.5t-94 -100.5l141 -246h-46 l-129 220q-119 -115 -233.5 -177t-237.5 -62q-124 0 -185.5 61t-61.5 157zM195 210q0 -87 56 -141t162 -54q112 0 217 60t219 169l-249 439q-54 -35 -85.5 -56t-80 -56.5t-77.5 -62t-63.5 -64t-53.5 -72t-32 -76.5t-13 -86zM519 1024q0 -60 24 -125.5t73 -163.5 q47 32 75 51.5t66.5 49.5t61 52t48.5 52.5t39.5 59t22.5 63.5t9 73q0 72 -44 110.5t-116 38.5q-104 0 -181.5 -73t-77.5 -188z" />
<glyph unicode="'" horiz-adv-x="310" d="M333 940l77 363h39l-77 -363h-39z" />
<glyph unicode="(" horiz-adv-x="452" d="M194 188q0 323 117 654t313 567l9 -7q-173 -242 -285 -590.5t-112 -668.5q0 -220 49 -379l-11 -8q-80 193 -80 432z" />
<glyph unicode=")" horiz-adv-x="452" d="M67 -236q171 245 282 590.5t111 667.5q0 224 -45 380l11 7q79 -197 79 -430q0 -324 -117 -655t-312 -568z" />
<glyph unicode="*" horiz-adv-x="750" d="M374 1104l17 30l194 -99l48 270h39l-69 -270l235 101l5 -32l-240 -84l99 -214l-35 -22l-79 225l-171 -225l-26 22l184 214z" />
<glyph unicode="+" horiz-adv-x="845" d="M162 465l7 38h341l90 417h40l-89 -417h337l-7 -38h-337l-90 -418h-41l90 418h-341z" />
<glyph unicode="," horiz-adv-x="348" d="M35 -209l123 274h45l-140 -274h-28z" />
<glyph unicode="-" horiz-adv-x="301" d="M91 421l8 37h299l-7 -37h-300z" />
<glyph unicode="." horiz-adv-x="327" d="M140 20q0 14 9.5 26t23.5 12q24 0 24 -24q0 -14 -10 -24t-25 -10q-22 0 -22 20z" />
<glyph unicode="/" horiz-adv-x="590" d="M-6 -102l842 1556h48l-845 -1556h-45z" />
<glyph unicode="0" horiz-adv-x="964" d="M216 384q0 113 32 268q62 294 205 482t310 188q123 0 191 -110.5t68 -297.5q0 -120 -30 -262q-42 -193 -121 -345.5t-182 -239t-211 -86.5q-125 0 -193.5 108.5t-68.5 294.5zM263 391q0 -171 59 -271t166 -100q96 0 187.5 82t161.5 225.5t109 324.5q30 146 30 264 q0 170 -57.5 268.5t-162.5 98.5q-146 0 -275.5 -177.5t-188.5 -453.5q-29 -138 -29 -261z" />
<glyph unicode="1" horiz-adv-x="487" d="M225 0l267 1255l-108 -93l-21 26l136 115h45l-276 -1303h-43z" />
<glyph unicode="2" horiz-adv-x="824" d="M102 0l10 41l508 579q108 123 168 210.5t76 167.5q9 41 9 87q0 101 -58.5 149.5t-151.5 48.5q-50 0 -98 -15.5t-92 -47.5t-78 -88.5t-49 -131.5h-43q19 85 58 149t90 101t106.5 54.5t114.5 17.5q108 0 177 -55t69 -172q0 -55 -14 -108.5t-34 -96t-59.5 -98.5t-71.5 -94 t-89 -104l-484 -553h560l-7 -41h-617z" />
<glyph unicode="3" horiz-adv-x="724" d="M65 229l43 11q3 -94 63 -157t164 -63q124 0 223.5 92t135.5 260q13 59 13 114q0 117 -59.5 181.5t-157.5 64.5h-38l-1 43h46q75 0 139.5 50t100.5 126t36 155q0 78 -40 127.5t-122 49.5q-70 0 -130 -37t-103 -103l-37 15q39 69 113 116.5t164 47.5q97 0 148 -57t51 -150 q0 -136 -74.5 -238t-174.5 -117q78 -9 131 -77.5t53 -187.5q0 -58 -13 -123q-40 -187 -156 -289t-259 -102q-119 0 -186.5 67.5t-72.5 180.5z" />
<glyph unicode="4" horiz-adv-x="822" d="M104 289l10 41l701 973h49l-702 -973h447l80 379h43l-80 -379h130l-9 -41h-131l-59 -289h-43l60 289h-496z" />
<glyph unicode="5" horiz-adv-x="744" d="M41 -6l22 40q68 -15 207 -15q164 0 265 93.5t143 289.5q16 84 16 132q0 62 -19 109t-62.5 83.5t-120 55.5t-185.5 19l188 502h393l-17 -44h-350l-152 -421q197 0 282.5 -77.5t85.5 -218.5q0 -69 -16 -145q-47 -220 -166.5 -318t-312.5 -98q-80 0 -201 13z" />
<glyph unicode="6" horiz-adv-x="891" d="M188 264q0 75 19 164q33 153 167 360l341 515h43l-352 -532q47 53 111 85t131 32q106 0 171 -73.5t65 -218.5q0 -82 -18 -166q-48 -225 -164 -337t-263 -112q-116 0 -183.5 70t-67.5 213zM235 272q0 -128 58 -190.5t158 -62.5q122 0 223.5 103.5t144.5 309.5 q19 88 19 156q0 130 -56.5 196.5t-146.5 66.5q-127 0 -236.5 -125t-145.5 -296q-18 -83 -18 -158z" />
<glyph unicode="7" horiz-adv-x="817" d="M141 0l777 1262h-525v41h583l-8 -41l-778 -1262h-49z" />
<glyph unicode="8" horiz-adv-x="923" d="M181 249q0 53 14 123q34 164 124 260.5t210 123.5q-52 13 -90.5 55t-38.5 127q0 37 11 92q32 147 123.5 219.5t202.5 72.5q95 0 155.5 -51t60.5 -156q0 -48 -9 -89q-15 -70 -43.5 -123t-63.5 -82t-65.5 -43.5t-62.5 -21.5q88 -20 138 -86t50 -177q0 -56 -13 -121 q-28 -132 -94.5 -222t-151 -129.5t-184.5 -39.5q-125 0 -199 67t-74 201zM227 263q0 -121 65.5 -182t171.5 -61q132 0 235.5 89t140.5 265q13 59 13 112q0 121 -66 182.5t-173 61.5q-130 0 -233.5 -89.5t-140.5 -266.5q-13 -59 -13 -111zM447 950q0 -90 50.5 -132.5 t126.5 -42.5q95 0 171.5 61.5t105.5 193.5q9 45 9 80q0 89 -50.5 132t-124.5 43q-44 0 -85 -13.5t-80 -41.5t-69 -79.5t-45 -120.5q-9 -45 -9 -80z" />
<glyph unicode="9" horiz-adv-x="891" d="M279 689q0 77 19 166q48 225 162.5 336.5t261.5 111.5q116 0 184 -70t68 -213q0 -75 -19 -164q-5 -24 -12.5 -49.5t-16 -48t-19 -47t-20 -43.5t-21.5 -41t-20 -36.5t-19 -32.5t-16.5 -26t-14 -21t-8.5 -14l-341 -516h-43l352 533q-45 -52 -109 -84.5t-131 -32.5 q-106 0 -171.5 74t-65.5 218zM324 696q0 -130 57 -196t148 -66q127 0 235 125t145 296q18 83 18 160q0 127 -57 189t-157 62q-58 0 -113 -24.5t-105 -73t-90 -129.5t-62 -186q-19 -85 -19 -157z" />
<glyph unicode=":" horiz-adv-x="312" d="M121 22q0 20 16 34.5t34 14.5q14 0 23 -8.5t9 -21.5q0 -19 -15 -34.5t-35 -15.5q-15 0 -23.5 9t-8.5 22zM296 838q0 20 15 34t33 14q13 0 22.5 -8.5t9.5 -22.5q0 -18 -15 -33.5t-33 -15.5q-14 0 -23 9.5t-9 22.5z" />
<glyph unicode=";" horiz-adv-x="363" d="M73 -209l122 274h45l-139 -274h-28zM348 840q0 20 15 34t32 14q31 0 31 -30q0 -21 -13.5 -35.5t-34.5 -14.5q-30 0 -30 32z" />
<glyph unicode="&#x3c;" horiz-adv-x="722" d="M156 464l8 31l674 354l-8 -35l-631 -336l490 -333l-8 -33z" />
<glyph unicode="=" horiz-adv-x="787" d="M112 236l9 38h644l-9 -38h-644zM194 607l7 35h642l-7 -35h-642z" />
<glyph unicode="&#x3e;" horiz-adv-x="722" d="M82 112l7 35l635 335l-491 333l5 34l525 -352l-5 -32z" />
<glyph unicode="?" horiz-adv-x="752" d="M279 20q0 20 15.5 35.5t33.5 15.5q29 0 29 -32q0 -20 -13.5 -34t-34.5 -14q-30 0 -30 29zM289 1039q44 136 139 209.5t216 73.5q101 0 160.5 -55.5t59.5 -154.5q0 -40 -8 -75q-14 -68 -49.5 -130t-79 -107.5t-94 -96t-94 -95.5t-79 -106.5t-49.5 -127.5l-27 -134h-45 l28 136q13 64 45.5 124t73 107t86 92.5t88.5 89.5t78 89.5t56 101.5t21 117q0 82 -47 132t-133 50q-99 0 -183 -63.5t-119 -176.5h-44z" />
<glyph unicode="@" horiz-adv-x="1133" d="M155 432q0 82 18 160q29 138 98 258.5t160 202.5t199.5 129t216.5 47t196.5 -44t144.5 -136.5t56 -219.5q0 -131 -46.5 -252.5t-126 -198t-168.5 -76.5q-106 0 -106 104q0 26 5 50q-46 -79 -110.5 -116.5t-131.5 -37.5q-73 0 -114.5 42t-41.5 125q0 112 54.5 221 t144.5 178.5t186 69.5q74 0 110 -43t36 -117q0 -64 -16 -121.5t-34.5 -92t-34.5 -76.5t-16 -80q0 -71 76 -71q80 0 149 78t105.5 190t36.5 222q0 174 -100 270t-256 96q-138 0 -268.5 -75t-228 -213.5t-134.5 -312.5q-17 -87 -17 -154q0 -194 112.5 -301t288.5 -107l-6 -37 q-199 0 -318 118t-119 321zM445 469q0 -132 125 -132q89 0 166 70.5t119 172t42 198.5q0 125 -115 125q-83 0 -162 -63t-127 -164t-48 -207z" />
<glyph unicode="A" d="M58 0l717 1303h44l164 -1303h-43l-56 443h-540l-240 -443h-46zM367 482h514l-93 775z" />
<glyph unicode="B" horiz-adv-x="917" d="M169 2l276 1301q135 19 233 19q127 0 192.5 -49t65.5 -156q0 -146 -75.5 -258.5t-164.5 -124.5q109 -12 162.5 -81.5t53.5 -181.5q0 -52 -15 -127q-77 -363 -452 -363q-98 0 -276 21zM218 35q178 -16 238 -16q102 0 182 34.5t129 95.5t74 140.5t25 172.5q0 116 -63.5 178 t-186.5 62h-257zM367 741h229q83 0 152 52t107.5 137t38.5 182q0 89 -54.5 130t-165.5 41q-121 0 -196 -15z" />
<glyph unicode="C" horiz-adv-x="981" d="M214 385q0 106 30 250q68 321 232 504t401 183q158 0 277 -76l-22 -32q-51 31 -125 51t-145 20q-110 0 -206 -50.5t-166.5 -139.5t-121 -204.5t-79.5 -253.5q-28 -127 -28 -235q0 -182 81.5 -282.5t245.5 -100.5q143 0 306 67l3 -34q-150 -71 -318 -71q-183 0 -274 104.5 t-91 299.5z" />
<glyph unicode="D" horiz-adv-x="1085" d="M169 0l276 1300q134 22 274 22q422 0 422 -426q0 -114 -28 -244q-32 -152 -87.5 -271.5t-137 -210.5t-197 -140t-257.5 -49q-161 0 -265 19zM218 34q130 -15 242 -15q123 0 225 46t176 132t125.5 199t82.5 256q28 124 28 234q0 189 -90.5 294t-278.5 105q-138 0 -248 -17 z" />
<glyph unicode="E" horiz-adv-x="897" d="M169 0l276 1303h611l-8 -37h-568l-121 -568h510l-7 -37h-510l-132 -622h568l-8 -39h-611z" />
<glyph unicode="F" horiz-adv-x="800" d="M169 0l276 1303h573l-7 -37h-531l-123 -583h470l-10 -37h-469l-136 -646h-43z" />
<glyph unicode="G" horiz-adv-x="1163" d="M222 458q0 179 62.5 341t164.5 275.5t235.5 180.5t272.5 67q183 0 309 -117l-28 -32q-115 110 -287 110q-152 0 -289.5 -81t-236 -225.5t-136.5 -326.5q-23 -103 -23 -186q0 -207 114.5 -325.5t312.5 -118.5q147 0 301 73l116 540h-268l7 37h311l-127 -597 q-67 -43 -164 -67.5t-189 -24.5q-212 0 -335 127.5t-123 349.5z" />
<glyph unicode="H" horiz-adv-x="1072" d="M168 0l275 1303h43l-129 -607h650l129 607h44l-275 -1303h-45l140 659h-650l-140 -659h-42z" />
<glyph unicode="I" horiz-adv-x="353" d="M169 0l276 1303h43l-276 -1303h-43z" />
<glyph unicode="J" horiz-adv-x="692" d="M11 60l24 33q92 -74 220 -74q130 0 201 79.5t108 253.5l201 951h43l-201 -951q-42 -191 -125 -281t-233 -90q-71 0 -136 23.5t-102 55.5z" />
<glyph unicode="K" horiz-adv-x="850" d="M169 0l276 1303h43l-125 -590l601 590h53l-613 -603l382 -700h-54l-375 685l-145 -685h-43z" />
<glyph unicode="L" horiz-adv-x="649" d="M168 0l275 1303h43l-268 -1264h439l-7 -39h-482z" />
<glyph unicode="M" horiz-adv-x="1359" d="M169 0l276 1303h48l196 -1256l730 1256h48l-275 -1303h-41l257 1216l-704 -1216h-47l-190 1216l-257 -1216h-41z" />
<glyph unicode="N" horiz-adv-x="1105" d="M168 0l275 1303h43l424 -1229l261 1229h43l-276 -1303h-42l-425 1231l-261 -1231h-42z" />
<glyph unicode="O" horiz-adv-x="1277" d="M225 452q0 91 23 200q41 193 139 345.5t237 238.5t294 86q191 0 300 -129.5t109 -345.5q0 -94 -22 -195q-63 -293 -251 -482t-421 -189q-190 0 -299 128.5t-109 342.5zM272 462q0 -201 98 -321.5t272 -120.5q121 0 237 65.5t204 174.5t142 262.5t54 319.5 q0 201 -97.5 321t-271.5 120q-214 0 -386.5 -177t-231.5 -454q-20 -89 -20 -190z" />
<glyph unicode="P" horiz-adv-x="888" d="M166 0l275 1300q157 22 261 22q155 0 229 -62.5t74 -187.5q0 -48 -15 -126q-38 -187 -146.5 -281.5t-297.5 -94.5q-98 0 -215 13l-122 -583h-43zM341 624q130 -15 206 -15q168 0 264.5 83t132.5 252q15 75 15 119q0 220 -257 220q-109 0 -225 -19z" />
<glyph unicode="Q" horiz-adv-x="1295" d="M227 465q0 82 21 187q41 193 139 345.5t237 238.5t294 86q190 0 299 -129t109 -344q0 -144 -40.5 -281.5t-108 -243t-156 -181t-183.5 -104.5h355l-7 -39h-544q-194 0 -304.5 127t-110.5 338zM272 471q0 -197 100 -314.5t274 -117.5q122 0 238 64t203 171t139.5 256.5 t52.5 311.5q0 201 -97.5 321t-271.5 120q-214 0 -386.5 -177t-231.5 -454q-20 -97 -20 -181z" />
<glyph unicode="R" horiz-adv-x="904" d="M168 0l275 1300q157 22 266 22q298 0 298 -250q0 -48 -15 -126q-63 -300 -305 -361l121 -585h-47l-117 577q-35 -7 -93 -7q-73 0 -218 13l-123 -583h-42zM343 624q135 -15 234 -15q148 0 242.5 87.5t128.5 249.5q13 59 13 113q0 108 -60.5 166t-179.5 58q-149 0 -243 -15 z" />
<glyph unicode="S" horiz-adv-x="746" d="M78 30l19 37q123 -47 236 -47q99 0 180.5 43t132 131t50.5 208q0 60 -22.5 108.5t-58 81.5t-79 61.5l-87 57t-79 60t-58 79t-22.5 105.5q0 158 103.5 262.5t278.5 104.5q116 0 246 -28l-13 -37q-132 26 -231 26q-153 0 -245 -85t-92 -234q0 -55 22.5 -98.5t58 -73 t79 -56.5t87 -56.5t79 -63.5t58 -86t22.5 -117q0 -42 -11 -100q-34 -159 -137.5 -245.5t-268.5 -86.5q-120 0 -248 49z" />
<glyph unicode="T" horiz-adv-x="768" d="M283 1266l7 37h740l-8 -37h-348l-268 -1266h-45l268 1266h-346z" />
<glyph unicode="U" horiz-adv-x="1038" d="M223 264q0 64 21 166l184 873h45l-184 -867q-19 -88 -19 -157q0 -260 253 -260q321 0 410 417l184 867h45l-185 -873q-23 -106 -61.5 -186.5t-83.5 -129.5t-100.5 -79.5t-107.5 -42t-110 -11.5q-291 0 -291 283z" />
<glyph unicode="V" horiz-adv-x="867" d="M318 1303h47l80 -1243l609 1243h46l-644 -1303h-45z" />
<glyph unicode="W" horiz-adv-x="1414" d="M318 1303h51l28 -1251l562 1251h48l32 -1251l558 1251h51l-594 -1303h-52l-30 1246l-559 -1246h-52z" />
<glyph unicode="X" horiz-adv-x="929" d="M93 0l488 670l-212 633h48l196 -599l450 599h49l-481 -633l205 -670h-48l-190 635l-457 -635h-48z" />
<glyph unicode="Y" horiz-adv-x="875" d="M333 1303h47l179 -731l487 731h47l-520 -774l-111 -529h-45l112 529z" />
<glyph unicode="Z" horiz-adv-x="713" d="M26 0l8 41l863 1225h-590l8 37h640l-7 -37l-866 -1225h618l-7 -41h-667z" />
<glyph unicode="[" horiz-adv-x="392" d="M56 -285l350 1644h158l-7 -32h-118l-337 -1582h118l-6 -30h-158z" />
<glyph unicode="\" horiz-adv-x="364" d="M233 1322h44l164 -1361h-43z" />
<glyph unicode="]" horiz-adv-x="392" d="M56 -285l5 30h118l337 1582h-118l8 32h158l-350 -1644h-158z" />
<glyph unicode="^" horiz-adv-x="847" d="M285 776l398 455l205 -455l-37 -20l-181 411l-355 -411z" />
<glyph unicode="_" horiz-adv-x="718" d="M-7 -37l7 37h719l-10 -37h-716z" />
<glyph unicode="`" horiz-adv-x="217" d="M348 1629h43l112 -251h-34z" />
<glyph unicode="a" horiz-adv-x="863" d="M184 240q0 75 23 184q25 121 68.5 210.5t88 136.5t100 75t94.5 35t82 7q81 0 147.5 -20t104.5 -47l-173 -821h-41l44 216q-50 -108 -135.5 -171.5t-188.5 -63.5q-96 0 -155 60.5t-59 198.5zM229 253q0 -124 51 -179t133 -55q116 0 213.5 99t133.5 273l85 406 q-93 54 -212 54q-39 0 -71.5 -5t-82 -30t-88 -67.5t-78 -126t-64.5 -198.5q-20 -89 -20 -171z" />
<glyph unicode="b" horiz-adv-x="862" d="M166 30l279 1311h41l-147 -691q53 111 137 174.5t187 63.5q206 0 206 -249q0 -86 -24 -196q-18 -87 -44.5 -158t-55 -118t-63 -82.5t-65.5 -54.5t-66.5 -30.5t-61.5 -15t-55 -3.5q-27 0 -58 3t-55 7.5t-53 11t-43.5 10.5t-36.5 11zM212 60q132 -41 233 -41q42 0 78 9 t78.5 36.5t77.5 73t67.5 123.5t55.5 182q23 113 23 186q0 222 -173 222q-119 0 -216.5 -99t-133.5 -274z" />
<glyph unicode="c" horiz-adv-x="780" d="M188 266q0 74 19 162q47 216 162 338t284 122q121 0 207 -63l-24 -32q-80 58 -192 58q-151 0 -253 -117.5t-140 -303.5q-16 -79 -16 -149q0 -124 57.5 -193t171.5 -69q108 0 223 55l6 -33q-115 -60 -241 -60q-133 0 -198.5 74.5t-65.5 210.5z" />
<glyph unicode="d" horiz-adv-x="871" d="M177 238q0 88 24 192q25 119 66 207.5t83 135t93 74t87 34.5t75 7q125 0 238 -73l112 526h41l-285 -1341h-39l49 235q-56 -119 -142 -186.5t-188 -67.5q-45 0 -82 13t-67.5 41.5t-47.5 80t-17 122.5zM222 251q0 -124 50.5 -178t131.5 -54q117 0 213.5 98.5t134.5 273.5 l82 385q-119 75 -231 75q-39 0 -75.5 -9t-80 -36.5t-79.5 -72.5t-69.5 -122.5t-54.5 -180.5q-22 -104 -22 -179z" />
<glyph unicode="e" horiz-adv-x="824" d="M188 264q0 68 17 151q47 222 173 347.5t292 125.5q104 0 153.5 -50t49.5 -132q0 -43 -7 -71q-35 -171 -193.5 -251.5t-441.5 -80.5q0 -5 -1 -14t-1 -13q0 -124 60.5 -190.5t181.5 -66.5q129 0 281 70l4 -29q-156 -79 -304 -79q-132 0 -198 75t-66 208zM233 341 q275 0 417 72.5t173 219.5q7 39 7 61q0 71 -41 114t-126 43q-149 0 -268 -128t-162 -382z" />
<glyph unicode="f" horiz-adv-x="394" d="M-181 -363l13 37q51 -9 101 -9q82 0 129.5 65t78.5 214l189 885h-121l7 37h121l47 214q37 173 98 244.5t168 71.5q44 0 100 -9l-13 -37q-51 9 -100 9q-84 0 -132 -65t-79 -214l-46 -214h182l-7 -37h-183l-188 -885q-37 -173 -98 -244.5t-166 -71.5q-48 0 -101 9z" />
<glyph unicode="g" horiz-adv-x="863" d="M43 -326l18 37q159 -46 270 -46q133 0 218.5 70t122.5 245l50 236q-50 -108 -135.5 -171.5t-188.5 -63.5q-96 0 -155 60.5t-59 198.5q0 75 23 184q25 121 68.5 210.5t88 136.5t100 75t94.5 35t82 7q81 0 147.5 -20t104.5 -47l-179 -840q-22 -102 -60 -172.5t-90.5 -109 t-110 -55t-128.5 -16.5q-135 0 -281 46zM229 253q0 -124 51 -179t133 -55q116 0 213.5 99t133.5 273l85 406q-93 54 -212 54q-39 0 -71.5 -5t-82 -30t-88 -67.5t-78 -126t-64.5 -198.5q-20 -89 -20 -171z" />
<glyph unicode="h" horiz-adv-x="858" d="M160 0l292 1378h41l-147 -695q35 82 111.5 143.5t188.5 61.5q199 0 199 -207q0 -50 -16 -135l-116 -546h-41l116 546q10 53 14 128q0 88 -41.5 132.5t-131.5 44.5q-115 0 -199.5 -85.5t-120.5 -257.5l-108 -508h-41z" />
<glyph unicode="i" horiz-adv-x="404" d="M182 78q0 38 15 116l142 672h43l-142 -672q-15 -75 -15 -106q0 -40 16 -56.5t51 -16.5q19 0 38 5l-2 -31q-18 -8 -49 -8q-51 0 -74 22.5t-23 74.5zM385 1100q0 13 10 25.5t24 12.5q22 0 22 -23q0 -15 -9 -25t-24 -10q-23 0 -23 20z" />
<glyph unicode="j" horiz-adv-x="374" d="M-76 -343l13 36q59 -10 83 -10q92 0 133 189l210 994h43l-211 -996q-25 -117 -71 -170.5t-115 -53.5q-33 0 -85 11zM408 1100q0 14 9.5 26t23.5 12q11 0 17 -7t6 -16q0 -15 -9.5 -25t-24.5 -10q-22 0 -22 20z" />
<glyph unicode="k" horiz-adv-x="735" d="M160 0l292 1378h41l-193 -907l506 397h56l-514 -404l328 -464h-58l-320 460l-97 -460h-41z" />
<glyph unicode="l" horiz-adv-x="400" d="M179 78q0 38 15 116l251 1184h41l-251 -1184q-15 -75 -15 -106q0 -40 16 -56.5t51 -16.5q21 0 37 5v-31q-22 -8 -50 -8q-51 0 -73 22t-22 75z" />
<glyph unicode="m" horiz-adv-x="1325" d="M160 0l183 866h41l-34 -159q31 77 109.5 129t179.5 52q51 0 88 -15t57 -41.5t28.5 -57t8.5 -67.5q0 -16 -4 -50q33 104 114 167.5t194 63.5q103 0 145.5 -49t42.5 -139q0 -56 -25 -181l-109 -519h-40l110 519q23 106 23 175q0 81 -36.5 120t-120.5 39 q-127 0 -202.5 -84.5t-110.5 -249.5l-109 -519h-43l110 519q22 98 22 172q0 83 -36.5 122.5t-118.5 39.5q-121 0 -200.5 -82.5t-113.5 -243.5l-112 -527h-41z" />
<glyph unicode="n" horiz-adv-x="858" d="M160 0l183 866h41l-40 -186q34 82 114 145t188 63q197 0 197 -212q0 -61 -16 -134l-114 -542h-41l114 542q15 78 15 123q0 94 -44 140t-126 46q-112 0 -200 -87t-124 -259l-106 -505h-41z" />
<glyph unicode="o" horiz-adv-x="927" d="M192 289q0 67 17 147q44 204 163 328t280 124q129 0 197.5 -81t68.5 -222q0 -167 -63.5 -307t-169 -218.5t-227.5 -78.5q-129 0 -197.5 82.5t-68.5 225.5zM236 300q0 -128 59.5 -204.5t171.5 -76.5q81 0 157 45.5t130.5 121t87.5 177.5t33 210q0 126 -59 202t-172 76 q-110 0 -204.5 -76.5t-149 -203.5t-54.5 -271z" />
<glyph unicode="p" horiz-adv-x="863" d="M84 -354l260 1223h40l-49 -229q53 117 138 182.5t184 65.5q95 0 153.5 -60.5t58.5 -198.5q0 -81 -22 -190q-25 -119 -66.5 -207.5t-83 -135t-92 -74t-85.5 -34.5t-73 -7q-129 0 -235 73l-87 -408h-41zM220 93q118 -74 229 -74q38 0 73.5 9t78 36.5t78 72t68.5 122 t55 180.5q23 109 23 181q0 124 -49 177.5t-128 53.5q-115 0 -212.5 -99.5t-133.5 -273.5z" />
<glyph unicode="q" horiz-adv-x="862" d="M177 236q0 87 24 194q96 458 400 458q120 0 233 -73l11 53h41l-260 -1222h-40l123 581q-53 -117 -137.5 -181.5t-186.5 -64.5q-94 0 -151 59.5t-57 195.5zM222 248q0 -122 49 -175.5t129 -53.5q114 0 209.5 98.5t133.5 273.5l82 385q-119 75 -227 75q-38 0 -73.5 -9 t-78.5 -37t-78.5 -72.5t-69 -122t-54.5 -180.5q-22 -107 -22 -182z" />
<glyph unicode="r" horiz-adv-x="599" d="M160 0l183 866h41l-40 -186q33 88 105 148t162 60q61 0 98 -24l-20 -35q-37 20 -95 20q-97 0 -174.5 -89.5t-116.5 -273.5l-102 -486h-41z" />
<glyph unicode="s" horiz-adv-x="638" d="M88 4l13 35q97 -20 191 -20q48 0 92 14.5t81 43.5t59 79.5t22 115.5q0 55 -30.5 92t-74 58t-87.5 42.5t-74.5 61t-30.5 98.5q0 31 8 63q24 113 92.5 157t188.5 44q91 0 166 -15l-13 -37q-83 15 -164 15q-233 0 -233 -216q0 -52 30.5 -87t73.5 -55.5t86 -42t73.5 -63 t30.5 -102.5q0 -145 -84.5 -224.5t-220.5 -79.5q-78 0 -195 23z" />
<glyph unicode="t" horiz-adv-x="526" d="M223 102q0 43 25 164l119 563h-119l7 37h119l54 227h36l-49 -227h183l-8 -37h-182l-119 -561q-21 -99 -21 -149q0 -51 22.5 -75.5t74.5 -24.5q34 0 102 22v-35q-63 -25 -117 -25q-70 0 -98.5 30.5t-28.5 90.5z" />
<glyph unicode="u" horiz-adv-x="860" d="M199 195q0 58 19 155l110 516h41l-110 -516q-19 -90 -19 -145q0 -186 173 -186q117 0 200 80.5t119 250.5l110 516h41l-183 -866h-41l37 177q-31 -80 -110 -138t-188 -58q-199 0 -199 214z" />
<glyph unicode="v" horiz-adv-x="755" d="M255 866h43l87 -829l436 829h45l-464 -866h-48z" />
<glyph unicode="w" horiz-adv-x="1191" d="M255 866h47l50 -827l402 827h47l52 -827l402 827h46l-432 -866h-48l-52 815l-398 -815h-51z" />
<glyph unicode="x" horiz-adv-x="733" d="M58 0l378 441l-181 425h48l164 -389l326 389h50l-359 -425l192 -441h-47l-177 406l-348 -406h-46z" />
<glyph unicode="y" horiz-adv-x="876" d="M93 -229l30 20q62 -126 223 -126q116 0 200.5 65t116.5 212l50 235q-31 -80 -110 -138t-188 -58q-199 0 -199 214q0 58 19 155l109 516h41l-109 -516q-19 -90 -19 -145q0 -186 173 -186q117 0 199.5 80.5t118.5 250.5l110 516h41l-195 -922q-18 -86 -54.5 -149 t-85.5 -98.5t-104 -52t-119 -16.5q-94 0 -158 36.5t-90 106.5z" />
<glyph unicode="z" horiz-adv-x="660" d="M74 0l8 37l605 792h-424l7 37h473l-8 -37l-605 -792h451l-8 -37h-499z" />
<glyph unicode="{" horiz-adv-x="549" d="M220 484l7 34q59 17 105 69.5t70.5 112.5t40.5 132l50 244q7 38 20.5 73t35.5 72.5t58 60.5t80 23h22l-5 -20q-123 -6 -166 -207l-46 -218q-60 -285 -226 -359q91 -50 91 -199q0 -65 -18 -161l-47 -217q-11 -53 -11 -92q0 -112 90 -115l-4 -20h-23q-106 0 -106 134 q0 44 11 95l53 243q16 80 16 134q0 149 -98 181z" />
<glyph unicode="|" horiz-adv-x="413" d="M121 -311l354 1666h43l-354 -1666h-43z" />
<glyph unicode="}" horiz-adv-x="549" d="M52 -303l4 20q124 6 167 207l47 217q9 43 19 78t28.5 81.5t41 81.5t57.5 67.5t77 51.5q-91 50 -91 197q0 67 21 162l46 218q11 53 11 89q0 115 -91 118l6 20h22q104 0 104 -130q0 -48 -11 -99l-50 -244q-17 -85 -17 -134q0 -148 99 -180l-8 -34q-158 -46 -216 -315 l-52 -243q-51 -229 -192 -229h-22z" />
<glyph unicode="~" horiz-adv-x="778" d="M147 398q53 69 101 98t100 29q34 0 70 -18t62 -39.5t62 -39.5t71 -18q86 0 158 104l24 -15q-52 -69 -100 -98t-103 -29q-33 0 -68 18t-60.5 40t-62 40t-71.5 18q-79 0 -159 -104z" />
<glyph unicode="&#xa0;" horiz-adv-x="299" d="M91 421l8 37h299l-7 -37h-300z" />
<glyph unicode="&#xa1;" horiz-adv-x="452" d="M132 -335l170 793h44l-169 -793h-45zM307 564q0 18 15 34t34 16q14 0 22.5 -8t8.5 -21q0 -21 -15 -36t-33 -15q-32 0 -32 30z" />
<glyph unicode="&#xa2;" horiz-adv-x="783" d="M181 266q0 79 18 162q44 206 151.5 326.5t265.5 131.5l26 125h41l-26 -123q113 -3 196 -63l-24 -32q-80 58 -192 58q-118 0 -213.5 -81t-146 -210.5t-50.5 -278.5q0 -124 57.5 -193t171.5 -69q109 0 224 55l5 -33q-103 -54 -221 -60l-25 -113h-41l25 113 q-122 7 -182 80.5t-60 204.5z" />
<glyph unicode="&#xa3;" horiz-adv-x="835" d="M95 0l7 37q69 39 122 88t87.5 101.5t59 119t38 131.5t23.5 149h-184l7 37h181q12 191 33 287q43 201 136 286.5t237 85.5q27 0 55.5 -3.5t63 -9.5t52.5 -8l-13 -35q-111 17 -157 17q-112 0 -183.5 -57t-116 -193.5t-61.5 -369.5h261l-8 -37h-257q-13 -133 -22 -177 q-10 -46 -30.5 -96.5t-54 -109t-86.5 -113.5t-117 -93h597l-7 -37h-663z" />
<glyph unicode="&#xa4;" horiz-adv-x="925" d="M123 71l113 124q-55 71 -55 192q0 129 53 250.5t137 192.5l-60 127l30 20l61 -124q100 72 227 72q126 0 196 -70l113 122l23 -20l-116 -127q56 -73 56 -193q0 -132 -53 -252t-137 -190l62 -124l-32 -21l-61 121q-101 -70 -226 -70q-127 0 -199 72l-112 -123zM225 402 q0 -120 61.5 -192t175.5 -72q108 0 199.5 67t144 179.5t52.5 242.5q0 119 -60.5 190t-175.5 71q-108 0 -200 -67t-144.5 -179t-52.5 -240z" />
<glyph unicode="&#xa5;" horiz-adv-x="690" d="M99 330l7 37h292l45 208h-290l7 38h279l-134 690h49l123 -677l407 677h49l-425 -690h285l-7 -38h-298l-45 -208h298l-7 -37h-298l-69 -330h-45l69 330h-292z" />
<glyph unicode="&#xa6;" horiz-adv-x="413" d="M132 -261l129 609h41l-129 -609h-41zM322 637l142 663h41l-142 -663h-41z" />
<glyph unicode="&#xa7;" horiz-adv-x="638" d="M76 -50l15 35q100 -20 198 -20q46 0 88 14t78 43t57.5 79t21.5 115q0 47 -22 80t-55 50t-71 36t-71 37t-55 55t-22 88q0 264 294 287q-9 5 -42.5 20.5t-46 22.5t-37 24.5t-35 33.5t-19.5 42.5t-9 57.5q0 39 7 69q25 113 92.5 158t179.5 45q96 0 175 -15l-15 -37 q-87 15 -168 15q-91 0 -145 -35t-74 -127q-8 -40 -8 -56q0 -55 30.5 -91t74 -56t87 -40.5t74 -60t30.5 -100.5q0 -127 -74.5 -204t-197.5 -94q4 -2 25.5 -12.5t27.5 -14t24 -13.5t24.5 -16.5t20 -18t19 -22.5t13 -25.5t10 -31.5t2.5 -36q0 -144 -86.5 -224t-220.5 -80 q-81 0 -194 23zM283 579q0 -81 69 -127q111 3 185 51.5t94 144.5q8 27 8 58q0 68 -56 111q-23 -20 -64.5 -34.5t-79.5 -25.5t-75 -29.5t-59 -55.5t-22 -93z" />
<glyph unicode="&#xa8;" horiz-adv-x="359" d="M344 1409q0 20 15 34.5t30 14.5q14 0 23 -8.5t9 -21.5q0 -19 -14.5 -34.5t-34.5 -15.5q-12 0 -20 9t-8 22zM542 1409q0 20 15 34.5t31 14.5q28 0 28 -30q0 -19 -12.5 -34.5t-31.5 -15.5q-14 0 -22 9t-8 22z" />
<glyph unicode="&#xa9;" horiz-adv-x="1234" d="M164 493q0 163 66 320.5t170 272.5t238 185.5t265 70.5q203 0 323 -146t120 -373q0 -150 -46 -287t-122.5 -237.5t-172.5 -175.5t-199 -113t-199 -38q-134 0 -236 71t-154.5 188.5t-52.5 261.5zM209 497q0 -135 46.5 -244t140.5 -175.5t220 -66.5q92 0 188.5 36.5 t185.5 108t159 167.5t112 226t42 272q0 213 -109 347.5t-300 134.5q-125 0 -249.5 -66t-220.5 -175t-155.5 -258.5t-59.5 -306.5zM516 564q0 102 47.5 196.5t122 151t152.5 56.5q80 0 134 -59l-32 -32q-44 54 -108 54q-86 0 -163 -82t-101 -199q-9 -42 -9 -80 q0 -88 42 -143.5t112 -55.5q65 0 132 53l17 -31q-78 -60 -158 -60q-85 0 -136.5 64.5t-51.5 166.5z" />
<glyph unicode="&#xaa;" horiz-adv-x="619" d="M246 897q0 51 13 107q34 155 118.5 236.5t186.5 81.5q79 0 127.5 -48.5t51.5 -121.5l32 151h39l-127 -596h-39l32 146q-39 -75 -106 -119.5t-142 -44.5q-84 0 -135 52.5t-51 155.5zM289 905q0 -90 42 -134.5t112 -44.5q49 0 97.5 25.5t89 71t66 117t25.5 155.5 q0 89 -43.5 139.5t-115.5 50.5q-88 0 -160.5 -71.5t-101.5 -209.5q-11 -58 -11 -99z" />
<glyph unicode="&#xab;" horiz-adv-x="804" d="M209 434l325 363l30 -11l-300 -352l151 -352l-33 -11zM497 434l328 363l28 -11l-300 -352l151 -352l-32 -11z" />
<glyph unicode="&#xac;" horiz-adv-x="854" d="M203 661l7 33h738l-92 -426h-35l84 393h-702z" />
<glyph unicode="&#xad;" horiz-adv-x="299" d="M91 421l8 37h299l-7 -37h-300z" />
<glyph unicode="&#xae;" horiz-adv-x="1234" d="M164 493q0 163 66 320.5t170 272.5t237.5 185.5t263.5 70.5q135 0 237 -68t155 -185.5t53 -265.5q0 -150 -46 -287t-122.5 -237.5t-172.5 -175.5t-199 -113t-199 -38q-134 0 -236 71t-154.5 188.5t-52.5 261.5zM209 495q0 -134 46 -242.5t140 -175t221 -66.5 q92 0 188.5 36.5t185 108t158 167.5t111.5 225.5t42 272.5q0 213 -109 347.5t-300 134.5q-125 0 -249.5 -66.5t-219.5 -175.5t-154.5 -259t-59.5 -307zM575 335l129 603q51 12 82 12q72 0 108.5 -40t36.5 -100q0 -62 -34.5 -119t-90.5 -84l26 -272h-39l-24 257 q-22 -7 -60 -7q-31 0 -42 3l-54 -253h-38zM674 627q25 -5 48 -5q66 0 119 52.5t53 127.5q0 50 -29.5 80t-78.5 30q-24 0 -52 -5z" />
<glyph unicode="&#xaf;" horiz-adv-x="364" d="M346 1378l8 37h259l-8 -37h-259z" />
<glyph unicode="&#xb0;" horiz-adv-x="543" d="M317 1067q0 37 7 63q21 103 89.5 162.5t145.5 59.5q62 0 103.5 -42t41.5 -118q0 -131 -77.5 -209t-162.5 -78q-62 0 -104.5 43t-42.5 119zM341 1078q0 -61 32.5 -102t95.5 -41q90 0 149.5 77t59.5 168q0 61 -32 101.5t-95 40.5q-91 0 -150.5 -78t-59.5 -166z" />
<glyph unicode="&#xb1;" horiz-adv-x="854" d="M39 -136l8 37h722l-8 -37h-722zM162 465l7 38h341l90 417h40l-89 -417h337l-7 -38h-337l-90 -418h-41l90 418h-341z" />
<glyph unicode="&#xb2;" horiz-adv-x="547" d="M182 559l10 37l329 368q68 77 106.5 132.5t50.5 106.5q5 25 5 56q0 63 -36.5 92.5t-95.5 29.5q-67 0 -122 -42.5t-75 -133.5h-41q24 110 93 162t154 52q73 0 119.5 -37t46.5 -116q0 -45 -12 -86t-40 -84t-51.5 -72.5t-69.5 -81.5l-309 -346h361l-9 -37h-414z" />
<glyph unicode="&#xb3;" horiz-adv-x="476" d="M162 711l37 8q2 -59 39.5 -98.5t104.5 -39.5q89 0 160.5 78t71.5 214q0 74 -37 113.5t-99 39.5h-26v35h32q73 0 124 66.5t51 144.5q0 51 -25 82t-77 31q-91 0 -151 -91l-30 11q28 49 77 80.5t111 31.5q65 0 99.5 -38t34.5 -100q0 -88 -48.5 -153.5t-115.5 -75.5 q51 -6 86 -50t35 -121q0 -79 -26 -144.5t-67.5 -105.5t-90 -61.5t-97.5 -21.5q-81 0 -126 44t-47 121z" />
<glyph unicode="&#xb4;" horiz-adv-x="147" d="M302 1378l145 212h46l-158 -212h-33z" />
<glyph unicode="&#xb6;" horiz-adv-x="923" d="M289 849q0 188 117.5 321t273.5 133h240l-326 -1536h-39l318 1497h-123l-318 -1497h-37l175 827q-132 0 -206.5 67t-74.5 188z" />
<glyph unicode="&#xb7;" horiz-adv-x="327" d="M194 333q0 21 14 36t34 15q14 0 23 -9.5t9 -24.5q0 -18 -16 -32.5t-33 -14.5q-14 0 -22.5 8.5t-8.5 21.5z" />
<glyph unicode="&#xb8;" horiz-adv-x="260" d="M-56 -279l15 22q48 -17 82 -17q48 0 80 26.5t32 78.5q0 32 -21 50t-58 18l67 86h27l-47 -58q34 -5 56 -27.5t22 -61.5q0 -72 -48 -107.5t-108 -35.5q-57 0 -99 26z" />
<glyph unicode="&#xb9;" horiz-adv-x="329" d="M268 559l170 798l-69 -59l-21 26l99 82h43l-181 -847h-41z" />
<glyph unicode="&#xba;" horiz-adv-x="847" d="M246 721q0 168 63 307t168 216.5t227 77.5q129 0 198.5 -81.5t69.5 -223.5q0 -68 -17 -148q-44 -204 -163 -329t-280 -125q-129 0 -197.5 82t-68.5 224zM290 734q0 -129 58.5 -205.5t170.5 -76.5q109 0 203.5 76.5t149.5 204t55 272.5q0 128 -59 204t-172 76 q-110 0 -204 -77t-148 -204t-54 -270z" />
<glyph unicode="&#xbb;" horiz-adv-x="804" d="M134 82l302 352l-153 352l34 11l175 -363l-328 -363zM423 82l301 352l-152 352l33 11l173 -363l-326 -363z" />
<glyph unicode="&#xbc;" horiz-adv-x="1253" d="M276 -86l776 1428h43l-775 -1428h-44zM298 456l169 799l-70 -60l-21 26l99 82h43l-179 -847h-41zM741 153l37 7q2 -59 39.5 -98.5t104.5 -39.5q89 0 160.5 78.5t71.5 214.5q0 74 -37 113t-99 39h-26v36h32q73 0 124 66t51 144q0 51 -25 82.5t-77 31.5q-90 0 -151 -92 l-30 12q28 49 77 80t111 31q65 0 99.5 -37.5t34.5 -99.5q0 -87 -48 -153t-114 -76q50 -6 84.5 -49.5t34.5 -118.5q0 -80 -25.5 -146t-67 -106.5t-90.5 -62.5t-98 -22q-81 0 -126 44.5t-47 121.5z" />
<glyph unicode="&#xbd;" horiz-adv-x="1293" d="M276 -86l776 1428h48l-776 -1428h-48zM298 456l169 799l-70 -60l-21 26l99 82h43l-179 -847h-41zM765 0l8 37l329 369q71 80 109 134t48 104q5 25 5 56q0 63 -36.5 93t-95.5 30q-67 0 -122 -43t-75 -134h-41q24 110 93.5 162t155.5 52q73 0 118.5 -36t45.5 -115 q0 -87 -41 -155.5t-132 -169.5l-309 -347h361l-7 -37h-414z" />
<glyph unicode="&#xbe;" horiz-adv-x="1528" d="M246 609l37 7q2 -59 39 -98.5t104 -39.5q89 0 161 78.5t72 214.5q0 74 -37 113t-99 39h-26v36h32q73 0 124 66t51 144q0 51 -25.5 82.5t-77.5 31.5q-92 0 -149 -91l-31 11q28 48 77.5 79.5t112.5 31.5q65 0 98.5 -36.5t33.5 -98.5q0 -89 -47.5 -155t-114.5 -76 q50 -6 84.5 -49.5t34.5 -118.5q0 -80 -25.5 -146t-67 -106.5t-90.5 -62.5t-98 -22q-81 0 -125.5 44.5t-47.5 121.5zM510 -86l777 1428h42l-774 -1428h-45zM1004 186l7 37l259 507h39l-257 -507h283l132 624h39l-132 -624h84l-8 -37h-83l-40 -186h-39l39 186h-323z" />
<glyph unicode="&#xbf;" horiz-adv-x="752" d="M80 -179q0 35 9 77q17 80 57.5 145.5t89 112.5t96.5 94t89 112t57 143l28 134h45l-28 -136q-15 -70 -47 -130.5t-69.5 -101.5t-80.5 -85t-79.5 -81.5t-67 -90t-43.5 -111.5q-6 -30 -6 -61q0 -83 47.5 -134.5t133.5 -51.5q99 0 183.5 63.5t118.5 176.5h44 q-44 -135 -139.5 -209t-215.5 -74q-101 0 -161.5 55t-60.5 153zM531 840q0 19 15 33.5t35 14.5q13 0 21.5 -8.5t8.5 -21.5q0 -21 -14.5 -35.5t-32.5 -14.5q-15 0 -24 9.5t-9 22.5z" />
<glyph unicode="&#xc0;" d="M58 0l717 1303h44l164 -1303h-43l-56 443h-540l-240 -443h-46zM367 482h514l-93 775zM678 1629h43l111 -251h-33z" />
<glyph unicode="&#xc1;" d="M58 0l717 1303h44l164 -1303h-43l-56 443h-540l-240 -443h-46zM367 482h514l-93 775zM799 1378l145 212h46l-158 -212h-33z" />
<glyph unicode="&#xc2;" d="M58 0l717 1303h44l164 -1303h-43l-56 443h-540l-240 -443h-46zM367 482h514l-93 775zM644 1378l201 212h30l112 -212h-21l-115 169l-186 -169h-21z" />
<glyph unicode="&#xc3;" d="M58 0l717 1303h44l164 -1303h-43l-56 443h-540l-240 -443h-46zM367 482h514l-93 775zM667 1395q33 49 60 68t57 19q27 0 64.5 -36.5t63.5 -36.5q42 0 84 67l19 -11q-60 -87 -114 -87q-27 0 -66.5 37t-65.5 37q-37 0 -82 -69z" />
<glyph unicode="&#xc4;" d="M58 0l717 1303h44l164 -1303h-43l-56 443h-540l-240 -443h-46zM367 482h514l-93 775zM689 1409q0 20 15 34.5t30 14.5q14 0 22.5 -8.5t8.5 -21.5q0 -19 -14 -34.5t-34 -15.5q-12 0 -20 9t-8 22zM886 1409q0 20 15.5 34.5t31.5 14.5q28 0 28 -30q0 -19 -13 -34.5 t-32 -15.5q-14 0 -22 9t-8 22z" />
<glyph unicode="&#xc5;" d="M58 0l717 1303h44l164 -1303h-43l-56 443h-540l-240 -443h-46zM367 482h514l-93 775zM700 1469q0 58 47.5 104.5t116.5 46.5q53 0 82.5 -28t29.5 -69q0 -10 -4 -28q-10 -52 -54 -89.5t-106 -37.5q-53 0 -82.5 29t-29.5 72zM737 1475q0 -31 20 -52t62 -21q57 0 88 36.5 t31 77.5q0 31 -19 50.5t-61 19.5q-55 0 -88 -35.5t-33 -75.5z" />
<glyph unicode="&#xc6;" horiz-adv-x="1506" d="M58 0l981 1303h625l-7 -37h-568l-121 -568h510l-7 -37h-510l-132 -622h567l-7 -39h-611l93 443h-433l-334 -443h-46zM467 482h414l160 760z" />
<glyph unicode="&#xc7;" horiz-adv-x="973" d="M207 385q0 111 29 250q68 321 232 504t401 183q159 0 278 -76l-22 -32q-51 31 -125 51t-145 20q-110 0 -206 -50.5t-167 -139.5t-121.5 -204.5t-79.5 -253.5q-28 -127 -28 -235q0 -182 82 -282.5t246 -100.5q142 0 305 67l4 -34q-131 -64 -300 -71l-43 -54 q34 -5 56.5 -27.5t22.5 -61.5q0 -72 -48.5 -107.5t-108.5 -35.5q-58 0 -100 26l15 22q48 -17 83 -17q48 0 80 26.5t32 78.5q0 32 -20.5 50t-57.5 18l63 82q-179 3 -268 107t-89 297z" />
<glyph unicode="&#xc8;" horiz-adv-x="897" d="M169 0l276 1303h611l-8 -37h-568l-121 -568h510l-7 -37h-510l-132 -622h568l-8 -39h-611zM640 1629h43l112 -251h-34z" />
<glyph unicode="&#xc9;" horiz-adv-x="897" d="M169 0l276 1303h611l-8 -37h-568l-121 -568h510l-7 -37h-510l-132 -622h568l-8 -39h-611zM763 1378l146 212h46l-158 -212h-34z" />
<glyph unicode="&#xca;" horiz-adv-x="897" d="M169 0l276 1303h611l-8 -37h-568l-121 -568h510l-7 -37h-510l-132 -622h568l-8 -39h-611zM607 1378l201 212h30l112 -212h-21l-115 169l-187 -169h-20z" />
<glyph unicode="&#xcb;" horiz-adv-x="897" d="M169 0l276 1303h611l-8 -37h-568l-121 -568h510l-7 -37h-510l-132 -622h568l-8 -39h-611zM652 1409q0 20 14.5 34.5t29.5 14.5q14 0 23 -8.5t9 -21.5q0 -19 -14 -34.5t-34 -15.5q-12 0 -20 9t-8 22zM849 1409q0 20 15.5 34.5t31.5 14.5q27 0 27 -30q0 -19 -12.5 -34.5 t-31.5 -15.5q-14 0 -22 9t-8 22z" />
<glyph unicode="&#xcc;" horiz-adv-x="353" d="M169 0l276 1303h43l-276 -1303h-43zM348 1629h43l112 -251h-34z" />
<glyph unicode="&#xcd;" horiz-adv-x="353" d="M169 0l276 1303h43l-276 -1303h-43zM469 1378l145 212h47l-158 -212h-34z" />
<glyph unicode="&#xce;" horiz-adv-x="353" d="M169 0l276 1303h43l-276 -1303h-43zM313 1378l201 212h30l111 -212h-20l-116 169l-186 -169h-20z" />
<glyph unicode="&#xcf;" horiz-adv-x="353" d="M169 0l276 1303h43l-276 -1303h-43zM357 1409q0 20 15 34.5t30 14.5q14 0 23 -8.5t9 -21.5q0 -19 -14.5 -34.5t-34.5 -15.5q-12 0 -20 9t-8 22zM555 1409q0 20 15 34.5t31 14.5q28 0 28 -30q0 -19 -12.5 -34.5t-31.5 -15.5q-14 0 -22 9t-8 22z" />
<glyph unicode="&#xd0;" horiz-adv-x="1210" d="M294 0l144 681h-125l9 38h125l123 581q134 22 273 22q218 0 320.5 -111.5t102.5 -314.5q0 -114 -28 -244q-32 -152 -87.5 -271.5t-137 -210.5t-197 -140t-257.5 -49q-161 0 -265 19zM343 34q130 -15 242 -15q123 0 225 46t176 132t125 199t82 256q28 124 28 234 q0 189 -90 294t-278 105q-138 0 -248 -17l-115 -549h132l-9 -38h-133z" />
<glyph unicode="&#xd1;" horiz-adv-x="1139" d="M168 0l275 1303h43l424 -1229l261 1229h43l-276 -1303h-42l-425 1231l-261 -1231h-42zM728 1395q33 49 60 68t57 19q27 0 65 -36.5t64 -36.5q42 0 84 67l18 -11q-60 -87 -113 -87q-27 0 -67 37t-66 37q-37 0 -82 -69z" />
<glyph unicode="&#xd2;" horiz-adv-x="1273" d="M225 452q0 91 23 200q41 193 139 345.5t237 238.5t294 86q191 0 300 -129.5t109 -345.5q0 -94 -22 -195q-63 -293 -251 -482t-421 -189q-190 0 -299 128.5t-109 342.5zM272 462q0 -201 98 -321.5t272 -120.5q121 0 237 65.5t204 174.5t142 262.5t54 319.5 q0 201 -97.5 321t-271.5 120q-214 0 -386.5 -177t-231.5 -454q-20 -89 -20 -190zM793 1629h43l112 -251h-34z" />
<glyph unicode="&#xd3;" horiz-adv-x="1273" d="M225 452q0 91 23 200q41 193 139 345.5t237 238.5t294 86q191 0 300 -129.5t109 -345.5q0 -94 -22 -195q-63 -293 -251 -482t-421 -189q-190 0 -299 128.5t-109 342.5zM272 462q0 -201 98 -321.5t272 -120.5q121 0 237 65.5t204 174.5t142 262.5t54 319.5 q0 201 -97.5 321t-271.5 120q-214 0 -386.5 -177t-231.5 -454q-20 -89 -20 -190zM914 1378l145 212h47l-158 -212h-34z" />
<glyph unicode="&#xd4;" horiz-adv-x="1273" d="M225 452q0 91 23 200q41 193 139 345.5t237 238.5t294 86q191 0 300 -129.5t109 -345.5q0 -94 -22 -195q-63 -293 -251 -482t-421 -189q-190 0 -299 128.5t-109 342.5zM272 462q0 -201 98 -321.5t272 -120.5q121 0 237 65.5t204 174.5t142 262.5t54 319.5 q0 201 -97.5 321t-271.5 120q-214 0 -386.5 -177t-231.5 -454q-20 -89 -20 -190zM760 1378l201 212h29l112 -212h-20l-116 169l-186 -169h-20z" />
<glyph unicode="&#xd5;" horiz-adv-x="1273" d="M225 452q0 91 23 200q41 193 139 345.5t237 238.5t294 86q191 0 300 -129.5t109 -345.5q0 -94 -22 -195q-63 -293 -251 -482t-421 -189q-190 0 -299 128.5t-109 342.5zM272 462q0 -201 98 -321.5t272 -120.5q121 0 237 65.5t204 174.5t142 262.5t54 319.5 q0 201 -97.5 321t-271.5 120q-214 0 -386.5 -177t-231.5 -454q-20 -89 -20 -190zM782 1395q33 49 60 68t57 19q27 0 65 -36.5t64 -36.5q42 0 84 67l18 -11q-60 -87 -113 -87q-27 0 -67 37t-66 37q-37 0 -82 -69z" />
<glyph unicode="&#xd6;" horiz-adv-x="1273" d="M225 452q0 91 23 200q41 193 139 345.5t237 238.5t294 86q191 0 300 -129.5t109 -345.5q0 -94 -22 -195q-63 -293 -251 -482t-421 -189q-190 0 -299 128.5t-109 342.5zM272 462q0 -201 98 -321.5t272 -120.5q121 0 237 65.5t204 174.5t142 262.5t54 319.5 q0 201 -97.5 321t-271.5 120q-214 0 -386.5 -177t-231.5 -454q-20 -89 -20 -190zM804 1409q0 20 15 34.5t30 14.5q14 0 23 -8.5t9 -21.5q0 -19 -14.5 -34.5t-34.5 -15.5q-12 0 -20 9t-8 22zM1002 1409q0 20 15 34.5t31 14.5q28 0 28 -30q0 -19 -13 -34.5t-32 -15.5 q-14 0 -21.5 9t-7.5 22z" />
<glyph unicode="&#xd7;" horiz-adv-x="785" d="M88 114l385 366l-224 371q0 1 1.5 2t3.5 2.5t3 4.5l13 8l231 -367l383 365l17 -17l-385 -369l229 -365q-4 -3 -6.5 -5t-4 -3t-2.5 -2l-1.5 -1.5t-1.5 -1t-2.5 -1.5t-4.5 -2l-230 365l-386 -367z" />
<glyph unicode="&#xd8;" horiz-adv-x="1273" d="M225 452q0 91 23 200q41 193 139 345.5t237 238.5t294 86q93 0 173 -35l84 150h46l-93 -169q95 -57 147 -166.5t52 -254.5q0 -94 -22 -195q-63 -293 -251 -482t-421 -189q-97 0 -182 39l-77 -139h-44l85 158q-92 57 -141 163.5t-49 249.5zM272 462q0 -130 42.5 -229.5 t121.5 -154.5l635 1169q-77 36 -161 36q-214 0 -386.5 -177t-231.5 -454q-20 -89 -20 -190zM469 58q76 -38 173 -38q142 0 270 82t218 225.5t129 324.5q20 89 20 190q0 133 -43.5 233t-127.5 154z" />
<glyph unicode="&#xd9;" horiz-adv-x="1038" d="M223 264q0 64 21 166l184 873h45l-184 -867q-19 -88 -19 -157q0 -260 253 -260q321 0 410 417l184 867h45l-185 -873q-23 -106 -61.5 -186.5t-83.5 -129.5t-100.5 -79.5t-107.5 -42t-110 -11.5q-291 0 -291 283zM676 1629h43l111 -251h-33z" />
<glyph unicode="&#xda;" horiz-adv-x="1038" d="M223 264q0 64 21 166l184 873h45l-184 -867q-19 -88 -19 -157q0 -260 253 -260q321 0 410 417l184 867h45l-185 -873q-23 -106 -61.5 -186.5t-83.5 -129.5t-100.5 -79.5t-107.5 -42t-110 -11.5q-291 0 -291 283zM797 1378l145 212h47l-159 -212h-33z" />
<glyph unicode="&#xdb;" horiz-adv-x="1038" d="M223 264q0 64 21 166l184 873h45l-184 -867q-19 -88 -19 -157q0 -260 253 -260q321 0 410 417l184 867h45l-185 -873q-23 -106 -61.5 -186.5t-83.5 -129.5t-100.5 -79.5t-107.5 -42t-110 -11.5q-291 0 -291 283zM642 1378l201 212h30l112 -212h-21l-115 169l-186 -169 h-21z" />
<glyph unicode="&#xdc;" horiz-adv-x="1038" d="M223 264q0 64 21 166l184 873h45l-184 -867q-19 -88 -19 -157q0 -260 253 -260q321 0 410 417l184 867h45l-185 -873q-23 -106 -61.5 -186.5t-83.5 -129.5t-100.5 -79.5t-107.5 -42t-110 -11.5q-291 0 -291 283zM687 1409q0 20 15 34.5t30 14.5q14 0 22.5 -8.5t8.5 -21.5 q0 -19 -14 -34.5t-34 -15.5q-12 0 -20 9t-8 22zM884 1409q0 20 15.5 34.5t31.5 14.5q28 0 28 -30q0 -19 -13 -34.5t-32 -15.5q-14 0 -22 9t-8 22z" />
<glyph unicode="&#xdd;" horiz-adv-x="875" d="M333 1303h47l179 -731l487 731h47l-520 -774l-111 -529h-45l112 529zM715 1378l145 212h47l-159 -212h-33z" />
<glyph unicode="&#xde;" horiz-adv-x="666" d="M121 0l276 1303h44l-65 -311q76 13 125 13q136 0 205.5 -64t69.5 -187q0 -50 -15 -125q-38 -182 -145 -279t-275 -97q-50 0 -119 13l-56 -266h-45zM231 307q52 -15 117 -15q145 0 239 87.5t128 249.5q13 59 13 114q0 108 -59.5 165.5t-176.5 57.5q-65 0 -125 -15z" />
<glyph unicode="&#xdf;" horiz-adv-x="968" d="M160 0l222 1046q19 89 57.5 157.5t88.5 109t103 60.5t108 20q100 0 163.5 -63.5t63.5 -175.5q0 -141 -77 -263.5t-189 -179.5q46 -24 82 -49.5t75 -64.5t61 -92t22 -114q0 -169 -126 -280t-339 -111h-45l15 37h43q75 0 145.5 20.5t130 60t96 106.5t36.5 152 q0 157 -183 272q-7 4 -20 12t-18.5 11.5t-13 9.5t-10.5 12t-3 13q0 13 22 30t56 41t70 57.5t69 93t49 133.5q9 45 9 86q0 97 -51 152.5t-146 55.5q-33 0 -66.5 -9.5t-70.5 -32t-68 -57t-57.5 -88.5t-40.5 -122l-222 -1046h-41z" />
<glyph unicode="&#xe0;" horiz-adv-x="794" d="M145 132q0 39 8 71q32 152 160.5 214.5t397.5 64.5l39 190q8 29 8 62q0 60 -41 88.5t-134 28.5q-111 0 -266 -47v34q151 50 275 50q109 0 159 -33t50 -108q0 -28 -10 -75l-141 -672h-41l33 158q-48 -80 -131 -128.5t-185 -48.5q-181 0 -181 151zM188 143q0 -124 153 -124 q119 0 208 72.5t121 204.5l32 149q-250 -2 -365 -55.5t-142 -186.5q-7 -35 -7 -60zM497 1331h43l112 -251h-34z" />
<glyph unicode="&#xe1;" horiz-adv-x="794" d="M145 132q0 39 8 71q32 152 160.5 214.5t397.5 64.5l39 190q8 29 8 62q0 60 -41 88.5t-134 28.5q-111 0 -266 -47v34q151 50 275 50q109 0 159 -33t50 -108q0 -28 -10 -75l-141 -672h-41l33 158q-48 -80 -131 -128.5t-185 -48.5q-181 0 -181 151zM188 143q0 -124 153 -124 q122 0 213 77t120 215l28 134q-250 -2 -365 -55.5t-142 -186.5q-7 -35 -7 -60zM618 1080l145 212h47l-158 -212h-34z" />
<glyph unicode="&#xe2;" horiz-adv-x="794" d="M145 132q0 39 8 71q32 152 160.5 214.5t397.5 64.5l39 190q8 29 8 62q0 60 -41 88.5t-134 28.5q-111 0 -266 -47v34q151 50 275 50q109 0 159 -33t50 -108q0 -28 -10 -75l-141 -672h-41l33 158q-48 -80 -131 -128.5t-185 -48.5q-181 0 -181 151zM188 143q0 -124 153 -124 q119 0 208 72.5t121 204.5l32 149q-250 -2 -365 -55.5t-142 -186.5q-7 -35 -7 -60zM464 1080l201 212h29l112 -212h-20l-116 169l-186 -169h-20z" />
<glyph unicode="&#xe3;" horiz-adv-x="794" d="M145 132q0 39 8 71q32 152 160.5 214.5t397.5 64.5l39 190q8 29 8 62q0 60 -41 88.5t-134 28.5q-111 0 -266 -47v34q151 50 275 50q109 0 159 -33t50 -108q0 -28 -10 -75l-141 -672h-41l33 158q-48 -80 -131 -128.5t-185 -48.5q-181 0 -181 151zM188 143q0 -124 153 -124 q122 0 213 77t120 215l28 134q-250 -2 -365 -55.5t-142 -186.5q-7 -35 -7 -60zM488 1097q33 49 60 68t57 19q27 0 65 -36t64 -36q41 0 83 67l19 -12q-60 -87 -114 -87q-27 0 -66.5 37t-65.5 37q-37 0 -82 -69z" />
<glyph unicode="&#xe4;" horiz-adv-x="794" d="M145 132q0 39 8 71q32 152 160.5 214.5t397.5 64.5l39 190q8 29 8 62q0 60 -41 88.5t-134 28.5q-111 0 -266 -47v34q151 50 275 50q109 0 159 -33t50 -108q0 -28 -10 -75l-141 -672h-41l33 158q-48 -80 -131 -128.5t-185 -48.5q-181 0 -181 151zM188 143q0 -124 153 -124 q122 0 213 77t120 215l28 134q-250 -2 -365 -55.5t-142 -186.5q-7 -35 -7 -60zM508 1112q0 20 14.5 34t30.5 14q14 0 23 -8.5t9 -21.5q0 -19 -14.5 -34.5t-34.5 -15.5q-12 0 -20 9.5t-8 22.5zM706 1112q0 20 15 34t31 14q28 0 28 -30q0 -19 -13 -34.5t-32 -15.5 q-14 0 -21.5 9.5t-7.5 22.5z" />
<glyph unicode="&#xe5;" horiz-adv-x="794" d="M145 132q0 39 8 71q32 152 160.5 214.5t397.5 64.5l39 190q8 29 8 62q0 60 -41 88.5t-134 28.5q-111 0 -266 -47v34q151 50 275 50q109 0 159 -33t50 -108q0 -28 -10 -75l-141 -672h-41l33 158q-48 -80 -131 -128.5t-185 -48.5q-181 0 -181 151zM188 143q0 -124 153 -124 q119 0 208 72.5t121 204.5l32 149q-250 -2 -365 -55.5t-142 -186.5q-7 -35 -7 -60zM521 1180q0 58 47.5 104.5t116.5 46.5q53 0 82.5 -28t29.5 -69q0 -10 -4 -28q-10 -52 -54 -89t-106 -37q-53 0 -82.5 28.5t-29.5 71.5zM559 1186q0 -31 19.5 -52t61.5 -21q57 0 88.5 37 t31.5 77q0 31 -19 51t-61 20q-55 0 -88 -36t-33 -76z" />
<glyph unicode="&#xe6;" horiz-adv-x="1353" d="M151 134q0 41 7 69q32 149 158.5 207.5t396.5 60.5l28 127q15 75 15 113q0 73 -38.5 106.5t-127.5 33.5q-116 0 -268 -49l2 34q155 52 272 52q105 0 154 -40.5t49 -130.5q0 -16 -4 -50q64 106 152 163.5t183 57.5q111 0 174.5 -73.5t63.5 -213.5q0 -79 -18 -163v-4h-600 q-16 -79 -16 -149q0 -128 61 -197t179 -69q109 0 268 52v-32q-136 -58 -285 -58q-117 0 -184 60t-82 168q-50 -110 -146.5 -169t-211.5 -59q-182 0 -182 153zM194 141q0 -124 150 -124q122 0 214.5 78t121.5 216l26 125q-250 -2 -364 -52.5t-141 -180.5q-7 -35 -7 -62z M760 471h554q10 72 10 115q0 130 -53 197.5t-145 67.5q-117 0 -217 -99t-149 -281z" />
<glyph unicode="&#xe7;" horiz-adv-x="780" d="M181 266q0 79 18 162q47 216 162.5 338t284.5 122q121 0 207 -63l-24 -32q-80 58 -192 58q-151 0 -253 -117.5t-140 -303.5q-17 -83 -17 -149q0 -124 57.5 -193t171.5 -69q109 0 224 55l5 -33q-106 -57 -234 -60l-36 -44q34 -5 56 -27.5t22 -62.5q0 -72 -48 -107.5 t-108 -35.5q-59 0 -101 26l15 22q45 -16 84 -16q49 0 80.5 26t31.5 78q0 32 -20.5 50.5t-57.5 18.5l55 72q-122 7 -182.5 80.5t-60.5 204.5z" />
<glyph unicode="&#xe8;" horiz-adv-x="856" d="M188 264q0 68 17 151q47 222 173 347.5t292 125.5q104 0 153.5 -50t49.5 -132q0 -43 -7 -71q-35 -171 -193.5 -251.5t-441.5 -80.5q0 -5 -1 -14t-1 -13q0 -124 60.5 -190.5t181.5 -66.5q129 0 281 70l4 -29q-156 -79 -304 -79q-132 0 -198 75t-66 208zM233 341 q275 0 417 72.5t173 219.5q7 39 7 61q0 71 -41 114t-126 43q-149 0 -268 -128t-162 -382zM540 1331h43l111 -251h-33z" />
<glyph unicode="&#xe9;" horiz-adv-x="856" d="M188 264q0 68 17 151q47 222 173 347.5t292 125.5q104 0 153.5 -50t49.5 -132q0 -43 -7 -71q-35 -171 -193.5 -251.5t-441.5 -80.5q0 -5 -1 -14t-1 -13q0 -124 60.5 -190.5t181.5 -66.5q129 0 281 70l4 -29q-156 -79 -304 -79q-132 0 -198 75t-66 208zM233 341 q275 0 417 72.5t173 219.5q7 39 7 61q0 71 -41 114t-126 43q-149 0 -268 -128t-162 -382zM661 1080l145 212h47l-159 -212h-33z" />
<glyph unicode="&#xea;" horiz-adv-x="856" d="M188 264q0 68 17 151q47 222 173 347.5t292 125.5q104 0 153.5 -50t49.5 -132q0 -43 -7 -71q-35 -171 -193.5 -251.5t-441.5 -80.5q0 -5 -1 -14t-1 -13q0 -124 60.5 -190.5t181.5 -66.5q129 0 281 70l4 -29q-156 -79 -304 -79q-132 0 -198 75t-66 208zM233 341 q275 0 417 72.5t173 219.5q7 39 7 61q0 71 -41 114t-126 43q-149 0 -268 -128t-162 -382zM506 1080l201 212h30l112 -212h-20l-116 169l-186 -169h-21z" />
<glyph unicode="&#xeb;" horiz-adv-x="856" d="M188 264q0 68 17 151q47 222 173 347.5t292 125.5q104 0 153.5 -50t49.5 -132q0 -43 -7 -71q-35 -171 -193.5 -251.5t-441.5 -80.5q0 -5 -1 -14t-1 -13q0 -124 60.5 -190.5t181.5 -66.5q129 0 281 70l4 -29q-156 -79 -304 -79q-132 0 -198 75t-66 208zM233 341 q275 0 417 72.5t173 219.5q7 39 7 61q0 71 -41 114t-126 43q-149 0 -268 -128t-162 -382zM551 1112q0 20 14.5 34t30.5 14q14 0 22.5 -8.5t8.5 -21.5q0 -19 -14 -34.5t-34 -15.5q-12 0 -20 9.5t-8 22.5zM748 1112q0 20 15.5 34t31.5 14q28 0 28 -30q0 -19 -13 -34.5 t-32 -15.5q-14 0 -22 9.5t-8 22.5z" />
<glyph unicode="&#xec;" horiz-adv-x="398" d="M177 78q0 38 15 116l141 672h41l-141 -672q-15 -75 -15 -106q0 -40 16 -56.5t51 -16.5q21 0 37 5v-31q-22 -8 -50 -8q-51 0 -73 22t-22 75zM264 1331h43l112 -251h-34z" />
<glyph unicode="&#xed;" horiz-adv-x="398" d="M177 78q0 38 15 116l141 672h41l-141 -672q-15 -75 -15 -106q0 -40 16 -56.5t51 -16.5q21 0 37 5v-31q-22 -8 -50 -8q-51 0 -73 22t-22 75zM385 1080l146 212h46l-158 -212h-34z" />
<glyph unicode="&#xee;" horiz-adv-x="398" d="M177 78q0 38 15 116l141 672h41l-141 -672q-15 -75 -15 -106q0 -40 16 -56.5t51 -16.5q21 0 37 5v-31q-22 -8 -50 -8q-51 0 -73 22t-22 75zM227 1080l201 212h30l112 -212h-21l-115 169l-186 -169h-21z" />
<glyph unicode="&#xef;" horiz-adv-x="398" d="M177 78q0 38 15 116l141 672h41l-141 -672q-15 -75 -15 -106q0 -40 16 -56.5t51 -16.5q21 0 37 5v-31q-22 -8 -50 -8q-51 0 -73 22t-22 75zM276 1112q0 20 14.5 34t29.5 14q14 0 23 -8.5t9 -21.5q0 -19 -14.5 -34.5t-34.5 -15.5q-12 0 -19.5 9.5t-7.5 22.5zM473 1112 q0 20 15 34t31 14q28 0 28 -30q0 -19 -12.5 -34.5t-31.5 -15.5q-14 0 -22 9.5t-8 22.5z" />
<glyph unicode="&#xf0;" horiz-adv-x="821" d="M190 266q0 75 19 164q48 226 162 342t249 116q67 0 116.5 -32t73.5 -85l-88 370l-122 -89l-27 20l142 103l-30 128h43l24 -100l112 82l26 -21l-130 -95l89 -381q28 -121 28 -224q0 -68 -13 -136q-48 -226 -162.5 -336.5t-260.5 -110.5q-116 0 -183.5 71t-67.5 214z M235 279q0 -130 59 -195t155 -65q129 0 227.5 102t142.5 309q13 62 13 127q0 128 -56.5 211t-157.5 83q-55 0 -109 -25.5t-104 -75t-90 -131.5t-62 -187q-18 -80 -18 -153z" />
<glyph unicode="&#xf1;" horiz-adv-x="858" d="M160 0l183 866h41l-40 -186q34 82 114 145t188 63q197 0 197 -212q0 -61 -16 -134l-114 -542h-41l114 542q15 78 15 123q0 94 -44 140t-126 46q-112 0 -200 -87t-124 -259l-106 -505h-41zM546 1097q33 49 60 68t57 19q27 0 64.5 -36t63.5 -36q42 0 84 67l19 -12 q-60 -87 -114 -87q-27 0 -66.5 37t-65.5 37q-37 0 -82 -69z" />
<glyph unicode="&#xf2;" horiz-adv-x="927" d="M192 289q0 67 17 147q44 204 163 328t280 124q129 0 197.5 -81t68.5 -222q0 -167 -63.5 -307t-169 -218.5t-227.5 -78.5q-129 0 -197.5 82.5t-68.5 225.5zM236 300q0 -128 59.5 -204.5t171.5 -76.5q81 0 157 45.5t130.5 121t87.5 177.5t33 210q0 126 -59 202t-172 76 q-110 0 -204.5 -76.5t-149 -203.5t-54.5 -271zM553 1331h43l111 -251h-33z" />
<glyph unicode="&#xf3;" horiz-adv-x="927" d="M192 289q0 67 17 147q44 204 163 328t280 124q129 0 197.5 -81t68.5 -222q0 -167 -63.5 -307t-169 -218.5t-227.5 -78.5q-129 0 -197.5 82.5t-68.5 225.5zM236 300q0 -128 59.5 -204.5t171.5 -76.5q81 0 157 45.5t130.5 121t87.5 177.5t33 210q0 126 -59 202t-172 76 q-110 0 -204.5 -76.5t-149 -203.5t-54.5 -271zM676 1080l145 212h47l-159 -212h-33z" />
<glyph unicode="&#xf4;" horiz-adv-x="927" d="M192 289q0 67 17 147q44 204 163 328t280 124q129 0 197.5 -81t68.5 -222q0 -167 -63.5 -307t-169 -218.5t-227.5 -78.5q-129 0 -197.5 82.5t-68.5 225.5zM236 300q0 -128 59.5 -204.5t171.5 -76.5q81 0 157 45.5t130.5 121t87.5 177.5t33 210q0 126 -59 202t-172 76 q-110 0 -204.5 -76.5t-149 -203.5t-54.5 -271zM519 1080l202 212h29l112 -212h-20l-116 169l-186 -169h-21z" />
<glyph unicode="&#xf5;" horiz-adv-x="927" d="M192 289q0 67 17 147q44 204 163 328t280 124q129 0 197.5 -81t68.5 -222q0 -167 -63.5 -307t-169 -218.5t-227.5 -78.5q-129 0 -197.5 82.5t-68.5 225.5zM236 300q0 -128 59.5 -204.5t171.5 -76.5q81 0 157 45.5t130.5 121t87.5 177.5t33 210q0 126 -59 202t-172 76 q-110 0 -204.5 -76.5t-149 -203.5t-54.5 -271zM544 1097q33 49 60 68t57 19q27 0 64.5 -36t63.5 -36q42 0 84 67l19 -12q-60 -87 -114 -87q-27 0 -66.5 37t-65.5 37q-37 0 -82 -69z" />
<glyph unicode="&#xf6;" horiz-adv-x="927" d="M192 289q0 67 17 147q44 204 163 328t280 124q129 0 197.5 -81t68.5 -222q0 -167 -63.5 -307t-169 -218.5t-227.5 -78.5q-129 0 -197.5 82.5t-68.5 225.5zM236 300q0 -128 59.5 -204.5t171.5 -76.5q81 0 157 45.5t130.5 121t87.5 177.5t33 210q0 126 -59 202t-172 76 q-110 0 -204.5 -76.5t-149 -203.5t-54.5 -271zM564 1112q0 20 14.5 34t30.5 14q14 0 22.5 -8.5t8.5 -21.5q0 -19 -14 -34.5t-34 -15.5q-12 0 -20 9.5t-8 22.5zM761 1112q0 20 15.5 34t31.5 14q28 0 28 -30q0 -19 -13 -34.5t-32 -15.5q-14 0 -22 9.5t-8 22.5z" />
<glyph unicode="&#xf7;" horiz-adv-x="580" d="M114 434l7 37h534l-7 -37h-534zM261 22q0 20 16 34.5t32 14.5q14 0 23 -8.5t9 -21.5q0 -19 -15.5 -34.5t-35.5 -15.5q-29 0 -29 31zM436 840q0 20 15 34t31 14q14 0 23 -8.5t9 -21.5q0 -19 -14.5 -34.5t-34.5 -15.5q-14 0 -21.5 9.5t-7.5 22.5z" />
<glyph unicode="&#xf8;" horiz-adv-x="927" d="M136 -214l153 249q-97 78 -97 250q0 168 63.5 307.5t169 217.5t227.5 78q82 0 137 -33l140 227h43l-151 -248q97 -80 97 -251q0 -67 -17 -147q-43 -204 -162.5 -329.5t-280.5 -125.5q-75 0 -141 34l-140 -229h-41zM236 298q0 -151 77 -222l454 741q-53 34 -123 34 q-142 0 -248 -117t-145 -298q-15 -65 -15 -138zM341 54q54 -35 126 -35q109 0 203 76.5t148.5 204t54.5 272.5q0 151 -78 223z" />
<glyph unicode="&#xf9;" horiz-adv-x="858" d="M199 195q0 58 19 155l110 516h41l-110 -516q-19 -90 -19 -145q0 -186 173 -186q117 0 200 80.5t119 250.5l110 516h41l-183 -866h-41l37 177q-31 -80 -110 -138t-188 -58q-199 0 -199 214zM514 1331h43l111 -251h-33z" />
<glyph unicode="&#xfa;" horiz-adv-x="858" d="M199 195q0 58 19 155l110 516h41l-110 -516q-19 -90 -19 -145q0 -186 173 -186q117 0 200 80.5t119 250.5l110 516h41l-183 -866h-41l37 177q-31 -80 -110 -138t-188 -58q-199 0 -199 214zM635 1080l145 212h47l-159 -212h-33z" />
<glyph unicode="&#xfb;" horiz-adv-x="858" d="M199 195q0 58 19 155l110 516h41l-110 -516q-19 -90 -19 -145q0 -186 173 -186q117 0 200 80.5t119 250.5l110 516h41l-183 -866h-41l37 177q-31 -80 -110 -138t-188 -58q-199 0 -199 214zM480 1080l201 212h30l112 -212h-21l-115 169l-186 -169h-21z" />
<glyph unicode="&#xfc;" horiz-adv-x="858" d="M199 195q0 58 19 155l110 516h41l-110 -516q-19 -90 -19 -145q0 -186 173 -186q117 0 200 80.5t119 250.5l110 516h41l-183 -866h-41l37 177q-31 -80 -110 -138t-188 -58q-199 0 -199 214zM525 1112q0 20 14.5 34t30.5 14q14 0 22.5 -8.5t8.5 -21.5q0 -19 -14 -34.5 t-34 -15.5q-12 0 -20 9.5t-8 22.5zM722 1112q0 20 15.5 34t31.5 14q28 0 28 -30q0 -19 -13 -34.5t-32 -15.5q-14 0 -22 9.5t-8 22.5z" />
<glyph unicode="&#xfd;" horiz-adv-x="759" d="M30 -361l17 35q42 -9 72 -9q22 0 41 9t35 28t25.5 34.5t23.5 40.5l110 208l-99 881h43l86 -834l441 834h46l-595 -1104q-75 -134 -162 -134q-25 0 -84 11zM592 1080l145 212h47l-158 -212h-34z" />
<glyph unicode="&#xfe;" horiz-adv-x="966" d="M84 -354l368 1732h41l-156 -734q60 113 155 178.5t206 65.5q117 0 191 -72t74 -220q0 -72 -19 -157q-49 -228 -171.5 -343t-267.5 -115q-113 0 -182 72t-74 182l-124 -589h-41zM277 300q0 -134 64 -207.5t171 -73.5q81 0 155 42.5t137 139.5t92 237q18 78 18 150 q0 132 -62 197.5t-163 65.5q-134 0 -244 -109t-151 -303q-17 -77 -17 -139z" />
<glyph unicode="&#xff;" horiz-adv-x="759" d="M30 -361l17 35q42 -9 72 -9q22 0 41 9t35 28t25.5 34.5t23.5 40.5l110 208l-99 881h43l86 -834l441 834h46l-595 -1104q-75 -134 -162 -134q-25 0 -84 11zM480 1112q0 20 14.5 34t30.5 14q14 0 23 -8.5t9 -21.5q0 -19 -14.5 -34.5t-34.5 -15.5q-12 0 -20 9.5t-8 22.5z M678 1112q0 20 15 34t31 14q28 0 28 -30q0 -19 -13 -34.5t-32 -15.5q-14 0 -21.5 9.5t-7.5 22.5z" />
<glyph unicode="&#x152;" horiz-adv-x="1617" d="M223 452q0 91 23 200q41 193 139 345.5t237 238.5t294 86q137 0 238 -73l11 54h611l-7 -37h-568l-121 -568h510l-7 -37h-511l-132 -622h568l-7 -39h-611l9 52q-127 -71 -268 -71q-190 0 -299 128.5t-109 342.5zM270 462q0 -202 100.5 -322t275.5 -120q134 0 264 79 l235 1104q-96 80 -231 80q-216 0 -390.5 -177t-233.5 -454q-20 -89 -20 -190z" />
<glyph unicode="&#x153;" horiz-adv-x="1509" d="M192 289q0 67 17 147q44 204 163 328t280 124q124 0 192.5 -77.5t73.5 -212.5q66 139 172.5 214.5t233.5 75.5q104 0 153.5 -50t49.5 -132q0 -39 -8 -71q-35 -171 -193.5 -251.5t-441.5 -80.5q0 -5 -0.5 -14t-0.5 -13q0 -124 60.5 -190.5t181.5 -66.5q129 0 281 70l3 -29 q-156 -79 -303 -79q-132 0 -198 72t-66 202q-64 -129 -163.5 -201.5t-220.5 -72.5q-129 0 -197.5 82.5t-68.5 225.5zM236 300q0 -128 59.5 -204.5t171.5 -76.5q81 0 157 45.5t130.5 121t87.5 177.5t33 210q0 126 -59 202t-172 76q-110 0 -204.5 -76.5t-149 -203.5 t-54.5 -271zM886 341q275 0 417 72.5t173 219.5q8 44 8 61q0 71 -41.5 114t-126.5 43q-149 0 -268 -128t-162 -382z" />
<glyph unicode="&#x178;" horiz-adv-x="875" d="M333 1303h47l179 -731l487 731h47l-520 -774l-111 -529h-45l112 529zM603 1409q0 20 15 34.5t30 14.5q14 0 23 -8.5t9 -21.5q0 -19 -14.5 -34.5t-34.5 -15.5q-12 0 -20 9t-8 22zM801 1409q0 20 15 34.5t31 14.5q28 0 28 -30q0 -19 -13 -34.5t-32 -15.5q-14 0 -21.5 9 t-7.5 22z" />
<glyph unicode="&#x2c6;" horiz-adv-x="336" d="M290 1378l202 212h29l112 -212h-20l-116 169l-186 -169h-21z" />
<glyph unicode="&#x2dc;" horiz-adv-x="400" d="M322 1367q33 49 60 68t57 19q27 0 65 -36.5t64 -36.5q42 0 84 67l18 -11q-60 -87 -113 -87q-27 0 -67 37t-66 37q-40 0 -81 -69z" />
<glyph unicode="&#x2000;" horiz-adv-x="814" />
<glyph unicode="&#x2001;" horiz-adv-x="1629" />
<glyph unicode="&#x2002;" horiz-adv-x="814" />
<glyph unicode="&#x2003;" horiz-adv-x="1629" />
<glyph unicode="&#x2004;" horiz-adv-x="543" />
<glyph unicode="&#x2005;" horiz-adv-x="407" />
<glyph unicode="&#x2006;" horiz-adv-x="271" />
<glyph unicode="&#x2007;" horiz-adv-x="271" />
<glyph unicode="&#x2008;" horiz-adv-x="203" />
<glyph unicode="&#x2009;" horiz-adv-x="325" />
<glyph unicode="&#x200a;" horiz-adv-x="90" />
<glyph unicode="&#x2010;" horiz-adv-x="301" d="M91 421l8 37h299l-7 -37h-300z" />
<glyph unicode="&#x2011;" horiz-adv-x="301" d="M91 421l8 37h299l-7 -37h-300z" />
<glyph unicode="&#x2012;" horiz-adv-x="301" d="M91 421l8 37h299l-7 -37h-300z" />
<glyph unicode="&#x2013;" horiz-adv-x="655" d="M80 384l9 37h656l-10 -37h-655z" />
<glyph unicode="&#x2014;" horiz-adv-x="1560" d="M303 384l10 37h1113l-9 -37h-1114z" />
<glyph unicode="&#x2018;" horiz-adv-x="364" d="M335 1030l158 273h30l-145 -273h-43z" />
<glyph unicode="&#x2019;" horiz-adv-x="364" d="M335 1030l143 273h45l-158 -273h-30z" />
<glyph unicode="&#x201a;" horiz-adv-x="316" d="M22 -227l138 311h47l-153 -311h-32z" />
<glyph unicode="&#x201c;" horiz-adv-x="491" d="M335 1030l158 273h30l-145 -273h-43zM465 1030l155 273h30l-145 -273h-40z" />
<glyph unicode="&#x201d;" horiz-adv-x="491" d="M335 1030l143 273h41l-154 -273h-30zM462 1030l143 273h45l-160 -273h-28z" />
<glyph unicode="&#x201e;" horiz-adv-x="534" d="M39 -227l132 311h52l-165 -311h-19zM255 -227l130 311h54l-165 -311h-19z" />
<glyph unicode="&#x2022;" horiz-adv-x="467" d="M216 426q0 67 45 118.5t98 51.5q40 0 64 -27.5t24 -71.5q0 -66 -44 -117.5t-101 -51.5q-38 0 -62 27.5t-24 70.5z" />
<glyph unicode="&#x2026;" horiz-adv-x="979" d="M140 20q0 14 9.5 26t23.5 12q22 0 22 -24q0 -14 -9.5 -24t-23.5 -10q-22 0 -22 20zM465 20q0 13 11 25.5t25 12.5q22 0 22 -24q0 -14 -9.5 -24t-23.5 -10q-11 0 -18 6t-7 14zM793 20q0 14 10 26t24 12q22 0 22 -24q0 -14 -10 -24t-24 -10q-22 0 -22 20z" />
<glyph unicode="&#x202f;" horiz-adv-x="325" />
<glyph unicode="&#x2039;" horiz-adv-x="515" d="M212 452l345 363l11 -11l-300 -352l151 -351l-17 -12z" />
<glyph unicode="&#x203a;" horiz-adv-x="515" d="M138 101l300 351l-151 352l18 11l188 -363l-342 -363z" />
<glyph unicode="&#x205f;" horiz-adv-x="407" />
<glyph unicode="&#x20ac;" horiz-adv-x="1228" d="M125 469l26 36h223q6 42 23 130l13 61h-235l26 36h218q77 277 235 433.5t376 156.5q158 0 277 -76l-22 -32q-51 31 -125 51t-145 20q-198 0 -339 -152t-212 -401h562l-24 -36h-548l-13 -59q-7 -31 -22 -132h462l-26 -36h-438q-2 -24 -2 -69q0 -182 80.5 -281.5 t245.5 -99.5q142 0 305 67l4 -34q-150 -71 -318 -71q-183 0 -274 104t-91 299q0 25 4 85h-246z" />
<glyph unicode="&#x2122;" horiz-adv-x="1435" d="M421 1268l7 35h414l-8 -35h-188l-141 -672h-38l142 672h-188zM687 594l277 709h43l47 -661l324 661h43l-23 -709h-35l18 655l-323 -655h-32l-45 655l-260 -655h-34z" />
<glyph unicode="&#xe000;" horiz-adv-x="865" d="M0 0v866h866v-866h-866z" />
</font>
</defs>
</svg>
