<?xml version="1.0" standalone="no"?>
<!DOCTYPE svg PUBLIC "-//W3C//DTD SVG 1.1//EN" "http://www.w3.org/Graphics/SVG/1.1/DTD/svg11.dtd" >
<svg xmlns="http://www.w3.org/2000/svg">
<metadata></metadata>
<defs>
<font id="savignybold_cond" horiz-adv-x="923" >
<font-face units-per-em="2048" ascent="1536" descent="-512" />
<missing-glyph horiz-adv-x="297" />
<glyph unicode="&#xfb01;" horiz-adv-x="1003" d="M41 644v222h84v123q0 222 91.5 314.5t308.5 92.5q141 0 311 -42l-30 -216q-136 35 -246 35q-48 0 -80.5 -8.5t-51 -21t-28 -38.5t-11.5 -49.5t-2 -65.5v-124h492v-553q0 -37 2.5 -55.5t15.5 -32t39 -13.5q10 0 28 4l19 -214q-57 -21 -158 -21q-118 0 -163.5 85t-45.5 247 v331h-229v-998h-262v998h-84z" />
<glyph unicode="&#xfb02;" horiz-adv-x="1003" d="M41 644v222h84v123q0 222 91.5 314.5t308.5 92.5q94 0 212 -20h142v-1063q0 -53 10 -77t46 -24q11 0 29 4l19 -214q-55 -21 -143 -21q-129 0 -176.5 80.5t-47.5 251.5v331h-229v-998h-262v998h-84zM387 866h229v305q-20 2 -56 2q-48 0 -80.5 -8.5t-51 -21t-28 -38.5 t-11.5 -49.5t-2 -65.5v-124z" />
<glyph unicode="&#xfb03;" horiz-adv-x="1502" d="M41 644v222h84v57q0 220 86.5 314t289.5 94q99 0 210 -30q92 95 309 95q135 0 309 -42l-29 -216q-133 35 -229 35q-45 0 -76.5 -4.5t-52.5 -16t-33 -23.5t-17.5 -36.5t-7 -45t-1.5 -57.5v-124h491v-566q0 -55 10.5 -78t49.5 -23q12 0 26 4l20 -201q-60 -21 -158 -21 q-62 0 -104 23.5t-64.5 69.5t-32 103t-9.5 136v331h-229v-644h-263v644h-233v-644h-262v644h-84zM387 866h233v123q0 58 6 109q-58 10 -88 10q-52 0 -83 -10t-45.5 -36t-18.5 -55t-4 -84v-57z" />
<glyph unicode="&#xfb04;" horiz-adv-x="1500" d="M41 644v222h84v57q0 219 86 313.5t284 94.5q103 0 214 -30q95 95 309 95q103 0 203 -18h151v-1065q0 -55 10.5 -78t49.5 -23q12 0 26 4l20 -214q-60 -21 -158 -21q-62 0 -104 23.5t-64.5 69.5t-32 103t-9.5 136v331h-227v-998h-263v998h-233v-998h-262v998h-84zM387 866 h233v123q0 58 6 109q-58 10 -99 10q-38 0 -64 -8.5t-41 -21.5t-23 -38.5t-10 -50.5t-2 -66v-57zM883 866h227v305q-19 2 -54 2q-49 0 -81.5 -8.5t-51 -21t-27.5 -38.5t-11 -49.5t-2 -65.5v-124z" />
<glyph horiz-adv-x="2048" />
<glyph horiz-adv-x="2048" />
<glyph unicode="&#xd;" horiz-adv-x="2048" />
<glyph unicode=" "  horiz-adv-x="297" />
<glyph unicode="&#x09;" horiz-adv-x="297" />
<glyph unicode="&#xa0;" horiz-adv-x="297" />
<glyph unicode="!" horiz-adv-x="472" d="M88 127q0 67 43.5 115t103.5 48q61 0 105.5 -48t44.5 -115t-44 -114t-106 -47q-60 0 -103.5 47t-43.5 114zM97 372v980h274v-980h-274z" />
<glyph unicode="&#x22;" horiz-adv-x="673" d="M58 765v538h262v-538h-262zM361 765v538h265v-538h-265z" />
<glyph unicode="#" horiz-adv-x="971" d="M30 363v210h199l24 175h-169v211h205l57 354h207l-60 -354h108l56 354h205l-54 -354h138v-211h-177l-24 -175h141v-210h-179l-57 -363h-205l58 363h-106l-56 -363h-205l58 363h-164zM436 573h102l26 175h-108z" />
<glyph unicode="$" horiz-adv-x="875" d="M50 17l30 219q138 -27 289 -27q160 0 160 139q0 52 -24.5 91t-63 65.5t-85.5 52t-94.5 58.5t-86 75t-63 112t-24.5 161q0 293 275 346v193h259v-186q106 -9 180 -24l-18 -218q-149 24 -224 24q-184 0 -184 -132q0 -46 24.5 -82t64 -62t86.5 -52.5t94.5 -61.5t87 -80 t64 -117.5t24.5 -164.5q0 -314 -307 -357v-179h-259v177q-134 10 -205 30z" />
<glyph unicode="%" horiz-adv-x="1845" d="M47 929q0 79 21.5 147.5t65 124.5t117.5 88.5t172 32.5t172.5 -32.5t118.5 -88.5t65.5 -124.5t21.5 -147.5q0 -80 -21.5 -149.5t-65.5 -126t-118.5 -89t-172.5 -32.5t-172 32.5t-117.5 89t-65 126t-21.5 149.5zM322 929q0 -78 28 -126.5t73 -48.5t72.5 48.5t27.5 126.5 q0 77 -27.5 124t-72.5 47t-73 -47.5t-28 -123.5zM410 -20l726 1346h301l-726 -1346h-301zM1046 378q0 79 21 147.5t64.5 124.5t117.5 88.5t172 32.5t173 -32.5t119 -88.5t65.5 -124.5t21.5 -147.5q0 -80 -21.5 -149t-65.5 -126t-119 -89.5t-173 -32.5t-172 32.5t-117.5 89.5 t-64.5 126t-21 149zM1324 378q0 -78 27 -126.5t70 -48.5q47 0 74.5 48t27.5 127q0 78 -28 125.5t-74 47.5q-45 0 -71 -47t-26 -126z" />
<glyph unicode="&#x26;" horiz-adv-x="1208" d="M45 303q0 132 55 227.5t190 197.5q-68 86 -95 145.5t-27 130.5q0 141 97 229.5t243 88.5q142 0 238.5 -80.5t96.5 -215.5q0 -54 -15 -101t-47 -89.5t-61.5 -72t-77.5 -70.5l140 -207q17 20 44.5 59.5t29.5 42.5l198 -145q-69 -88 -108 -134l221 -309h-281l-110 145 q-105 -86 -191 -125t-190 -39q-182 0 -266 87.5t-84 234.5zM318 339q0 -57 28.5 -93.5t91.5 -36.5q44 0 82.5 24t99.5 80l-173 240q-69 -52 -99 -103t-30 -111zM421 1018q0 -34 18 -66t58 -84q48 42 68.5 74t20.5 75q0 46 -20.5 72t-57.5 26q-39 0 -63 -27.5t-24 -69.5z" />
<glyph unicode="'" horiz-adv-x="424" d="M80 819v484h263v-484h-263z" />
<glyph unicode="(" horiz-adv-x="532" d="M48 555q0 211 79.5 430t220.5 376l136 -151q-71 -135 -110 -314t-39 -352q0 -404 149 -661l-130 -164q-144 163 -225 391t-81 445z" />
<glyph unicode=")" horiz-adv-x="530" d="M48 -121q72 134 110.5 311.5t38.5 353.5q0 170 -40 347t-109 312l129 165q142 -158 224.5 -380t82.5 -433q0 -216 -82.5 -443.5t-224.5 -392.5z" />
<glyph unicode="*" horiz-adv-x="834" d="M80 953l86 231l171 -130l-60 249h270l-59 -249l165 128l97 -229l-225 -31l169 -151l-204 -166l-79 229l-76 -225l-203 160l166 153z" />
<glyph unicode="+" horiz-adv-x="873" d="M37 361v237h268v324h265v-324h266v-237h-266v-326h-265v326h-268z" />
<glyph unicode="," horiz-adv-x="467" d="M43 -171l80 452h300l-151 -452h-229z" />
<glyph unicode="-" horiz-adv-x="519" d="M26 372v237h475v-237h-475z" />
<glyph unicode="." horiz-adv-x="385" d="M50 141q0 66 41 110.5t101 44.5q59 0 101 -45t42 -110q0 -69 -41.5 -111.5t-101.5 -42.5q-61 0 -101.5 42t-40.5 112z" />
<glyph unicode="/" horiz-adv-x="785" d="M7 -80l483 1417h288l-482 -1417h-289z" />
<glyph unicode="0" horiz-adv-x="984" d="M58 652q0 195 50 345.5t149.5 237.5t234.5 87t234.5 -87t150 -237.5t50.5 -345.5t-50.5 -345.5t-150 -238t-234.5 -87.5t-234.5 87.5t-149.5 238t-50 345.5zM348 652q0 -187 39 -301.5t105 -114.5q68 0 106.5 114.5t38.5 301.5t-38.5 301t-106.5 114q-66 0 -105 -115 t-39 -300z" />
<glyph unicode="1" horiz-adv-x="659" d="M15 1054l268 249h277v-1303h-277v966l-102 -104z" />
<glyph unicode="2" horiz-adv-x="916" d="M65 927q8 91 31 160.5t57 113.5t81 71.5t98 38.5t113 11q61 0 113 -10.5t102.5 -38t86 -72t57 -116.5t21.5 -167q0 -223 -142 -376l-255 -300h410v-242h-771v244l365 409q70 79 93.5 141.5t23.5 132.5q0 145 -113 145q-118 0 -118 -145h-253z" />
<glyph unicode="3" horiz-adv-x="856" d="M15 333l262 51q26 -79 60 -115t87 -36q56 0 89 40.5t33 121.5q0 83 -37 125t-103 42h-116l-48 231h117q75 0 109.5 42t34.5 107q0 57 -24.5 94.5t-72.5 37.5t-73.5 -31.5t-30.5 -78.5l-250 56q29 156 125 229t240 73q156 0 254 -86t98 -257q0 -223 -149 -262 q205 -52 205 -330q0 -93 -26.5 -165.5t-67.5 -117t-97.5 -73t-111.5 -39.5t-114 -11q-346 0 -393 352z" />
<glyph unicode="4" horiz-adv-x="951" d="M67 220v242l464 841h286l-465 -841h175v219h262v-219h107v-242h-107v-220h-262v220h-460z" />
<glyph unicode="5" horiz-adv-x="876" d="M15 2l69 227q117 -7 229 -7q95 0 150 49.5t55 147.5q0 117 -85.5 160t-317.5 43l123 689h561l-56 -242h-279l-34 -224q164 0 263.5 -106.5t99.5 -312.5q0 -102 -27.5 -180.5t-72.5 -127.5t-109.5 -80.5t-132.5 -44t-148 -12.5q-59 0 -160 9.5t-128 11.5z" />
<glyph unicode="6" horiz-adv-x="908" d="M48 424q0 76 15 148t47 145t52 111t60 108l189 367h280l-289 -495q78 78 171 78q74 0 130 -34.5t89 -96t49.5 -140.5t16.5 -174q0 -227 -101 -343.5t-299 -116.5q-204 0 -307 115t-103 328zM337 428q0 -231 115 -231q51 0 84.5 56.5t33.5 176.5q0 117 -32.5 175t-85.5 58 t-84 -63t-31 -172z" />
<glyph unicode="7" horiz-adv-x="828" d="M48 1303h732v-259l-421 -1044h-286l432 1043h-414z" />
<glyph unicode="8" horiz-adv-x="951" d="M48 385q0 131 53 218.5t148 126.5q-56 18 -95 92.5t-39 169.5q0 63 19.5 119t59.5 104.5t112.5 77.5t168.5 29q97 0 168.5 -28.5t111 -77.5t57.5 -105.5t18 -121.5q0 -94 -33 -166.5t-99 -92.5q92 -36 148.5 -124t56.5 -222q0 -89 -24 -160.5t-74 -127t-134 -85.5 t-198 -30q-113 0 -196.5 30t-132.5 85t-72.5 127t-23.5 162zM324 382q0 -97 41.5 -150t107.5 -53q68 0 110.5 53t42.5 150q0 96 -41 152t-112 56q-69 0 -109 -56t-40 -152zM374 981q0 -66 26 -102.5t73 -36.5q97 0 97 137q0 67 -25 103.5t-72 36.5t-73 -36.5t-26 -101.5z " />
<glyph unicode="9" horiz-adv-x="908" d="M48 843q0 227 102.5 343.5t300.5 116.5q202 0 304.5 -115t102.5 -328q0 -61 -12 -125t-26.5 -110t-43 -106.5t-44 -88.5t-47.5 -84l-188 -365h-281l289 496q-79 -79 -172 -79q-97 0 -162.5 61t-94 158.5t-28.5 225.5zM337 855q0 -118 32 -175.5t85 -57.5t84.5 63 t31.5 171q0 120 -31 175.5t-83 55.5t-85.5 -56t-33.5 -176z" />
<glyph unicode=":" horiz-adv-x="392" d="M48 145q0 68 41 116t106 48t107 -48t42 -116t-41.5 -115t-107.5 -47q-65 0 -106 47t-41 115zM48 722q0 67 43 114.5t104 47.5t105 -47.5t44 -114.5q0 -68 -43.5 -115t-105.5 -47t-104.5 47t-42.5 115z" />
<glyph unicode=";" horiz-adv-x="478" d="M48 -199l82 439h298l-151 -439h-229zM119 722q0 67 43.5 115.5t105.5 48.5q61 0 105 -48.5t44 -115.5q0 -68 -43.5 -115t-105.5 -47q-63 0 -106 47t-43 115z" />
<glyph unicode="&#x3c;" horiz-adv-x="776" d="M37 367v218l702 348v-261l-374 -195l374 -200v-253z" />
<glyph unicode="=" horiz-adv-x="707" d="M37 130v237h613v-237h-613zM39 508v237h611v-237h-611z" />
<glyph unicode="&#x3e;" horiz-adv-x="776" d="M37 24v253l374 198l-374 197v255l702 -342v-218z" />
<glyph unicode="?" horiz-adv-x="871" d="M39 931q0 115 29 194.5t83.5 121t118 58.5t147.5 17q391 0 391 -387q0 -80 -27.5 -146t-66.5 -108.5t-78 -79t-66.5 -76t-27.5 -80.5v-99h-279v93q0 55 19.5 105t49 85t63.5 72.5t63.5 69t49 73.5t19.5 87q0 75 -33 112t-75 37q-48 0 -81 -37.5t-33 -111.5h-266zM251 130 q0 67 42.5 114.5t106.5 47.5q63 0 108 -47.5t45 -114.5q0 -68 -45 -115t-108 -47q-64 0 -106.5 47t-42.5 115z" />
<glyph unicode="@" horiz-adv-x="1225" d="M-19 570q0 145 38 267t101 206t146 143t172 86.5t180 27.5q117 0 223.5 -43.5t184 -118t123.5 -179.5t46 -222q0 -60 -11 -125.5t-38 -136t-66 -126t-101 -91.5t-137 -36q-60 0 -108.5 24t-68.5 61q-41 -44 -69.5 -61t-64.5 -17q-103 0 -174.5 83t-71.5 224 q0 77 22 152.5t63.5 140.5t111.5 105t158 40q66 0 116.5 -23.5t79.5 -63.5t43.5 -87.5t14.5 -101.5q0 -67 -20.5 -138.5t-20.5 -81.5q0 -35 20 -35q35 0 69 86t34 184q0 167 -105.5 270.5t-256.5 103.5q-76 0 -147 -31t-131.5 -91t-97.5 -162.5t-37 -232.5 q0 -239 117.5 -358t318.5 -119l-4 -214q-141 0 -259 44.5t-206 129.5t-137.5 217.5t-49.5 299.5zM493 553q0 -52 18.5 -82t50.5 -30q52 0 89.5 70.5t37.5 149.5q0 104 -63 104q-55 0 -94 -67.5t-39 -144.5z" />
<glyph unicode="A" horiz-adv-x="1146" d="M20 0l423 1303h263l420 -1303h-294l-65 240h-387l-65 -240h-295zM439 462h267l-133 489z" />
<glyph unicode="B" horiz-adv-x="994" d="M82 19v1264q203 39 350 39q411 0 411 -317q0 -105 -41 -173t-115 -91q138 -28 197.5 -116t59.5 -238q0 -97 -27 -170t-71 -117t-108.5 -71.5t-129.5 -37.5t-143 -10q-178 0 -383 38zM343 212q84 -9 132 -9q60 0 100 14t59.5 41.5t26.5 58.5t7 76q0 100 -37.5 152.5 t-138.5 52.5h-149v-386zM343 825h113q76 0 105 36t29 103q0 73 -30 103t-109 30q-64 0 -108 -8v-264z" />
<glyph unicode="C" horiz-adv-x="966" d="M58 639q0 319 136.5 501t382.5 182q83 0 172.5 -21t159.5 -63l-77 -212q-97 54 -208 54q-142 0 -211.5 -119t-69.5 -317q0 -197 69.5 -309.5t213.5 -112.5q53 0 113 15t104 40l60 -227q-145 -69 -320 -69q-261 0 -393 174.5t-132 483.5z" />
<glyph unicode="D" horiz-adv-x="1105" d="M82 0v1301q248 21 344 21q113 0 203.5 -17.5t155 -48t112 -78.5t76.5 -101.5t46 -124.5t23 -140.5t6 -156.5q0 -88 -6 -158t-23.5 -142t-46 -126t-76 -102.5t-111.5 -79t-153.5 -48.5t-201.5 -18q-162 0 -348 19zM357 233q106 -10 149 -10q252 0 252 430q0 209 -64 310.5 t-210 101.5q-28 0 -127 -11v-821z" />
<glyph unicode="E" horiz-adv-x="889" d="M82 0v1303h741v-238h-467v-274h394v-238h-394v-315h467v-238h-741z" />
<glyph unicode="F" horiz-adv-x="809" d="M82 0v1303h698v-236h-424v-319h376v-238h-376v-510h-274z" />
<glyph unicode="G" horiz-adv-x="1145" d="M56 659q0 178 46 309t129.5 207t190 111.5t239.5 35.5q97 0 208.5 -19.5t199.5 -56.5l-49 -244q-78 34 -147.5 49.5t-159.5 15.5q-61 0 -113.5 -12t-100.5 -41.5t-81.5 -76t-53.5 -119t-20 -166.5q0 -92 18 -164.5t47.5 -119t69.5 -77t82.5 -43t88.5 -12.5q91 0 147 34 v257h-190v221h465v-651q-175 -116 -433 -116q-95 0 -178.5 21.5t-159 72t-129 127t-85 193.5t-31.5 264z" />
<glyph unicode="H" horiz-adv-x="1070" d="M80 0v1303h276v-504h357v504h277v-1303h-277v546h-357v-546h-276z" />
<glyph unicode="I" horiz-adv-x="431" d="M82 0v1303h274v-1303h-274z" />
<glyph unicode="J" horiz-adv-x="800" d="M13 37l48 220q100 -37 213 -37q97 0 137.5 51.5t40.5 179.5v852h274v-882q0 -242 -90.5 -341.5t-287.5 -99.5q-64 0 -162 14t-173 43z" />
<glyph unicode="K" horiz-adv-x="979" d="M82 0v1303h274v-610l301 610h296l-335 -651l345 -652h-310l-297 609v-609h-274z" />
<glyph unicode="L" horiz-adv-x="791" d="M80 0v1303h276v-1050h420v-253h-696z" />
<glyph unicode="M" horiz-adv-x="1478" d="M82 0v1303h346l313 -962l311 962h346v-1303h-246v897l-284 -897h-254l-284 890v-890h-248z" />
<glyph unicode="N" horiz-adv-x="1083" d="M80 0v1303h264l395 -834v834h263v-1303h-263l-395 836v-836h-264z" />
<glyph unicode="O" horiz-adv-x="1267" d="M58 652q0 194 67.5 345t199.5 238t310 87q176 0 307.5 -87t199.5 -238t68 -345t-68 -345.5t-199.5 -238.5t-307.5 -87q-178 0 -310 87.5t-199.5 238.5t-67.5 345zM346 652q0 -186 79 -301t210 -115t209 115.5t78 300.5t-78 300t-209 115q-130 0 -209.5 -115.5 t-79.5 -299.5z" />
<glyph unicode="P" horiz-adv-x="936" d="M80 0v1279q183 43 352 43q112 0 194.5 -24t131 -62.5t78 -97.5t39 -118.5t9.5 -136.5q0 -76 -9.5 -138.5t-36.5 -125t-71.5 -105t-119.5 -69t-174 -26.5q-56 0 -117 7v-426h-276zM356 681q51 -9 96 -9q144 0 144 196q0 199 -142 199q-57 0 -98 -9v-377z" />
<glyph unicode="Q" horiz-adv-x="1282" d="M58 652q0 194 67.5 345t199.5 238t310 87q130 0 236.5 -48.5t178 -134t110.5 -203.5t39 -256q0 -170 -50.5 -286t-143.5 -165h229v-229h-534q-160 0 -283.5 48.5t-201.5 136.5t-117.5 206t-39.5 261zM346 652q0 -183 79.5 -296.5t209.5 -113.5q131 0 209 113.5t78 296.5 q0 185 -78 300t-209 115q-130 0 -209.5 -115.5t-79.5 -299.5z" />
<glyph unicode="R" horiz-adv-x="968" d="M80 0v1279q180 41 363 41q114 0 198 -24t134.5 -62.5t80.5 -97t40.5 -118t10.5 -135.5q0 -312 -186 -414l221 -469h-315l-162 419q-65 0 -109 5v-424h-276zM356 667q45 -8 109 -8q72 0 111.5 53t39.5 156q0 107 -39.5 159.5t-111.5 52.5q-70 0 -109 -8v-405z" />
<glyph unicode="S" horiz-adv-x="843" d="M30 17l30 219q138 -27 288 -27q160 0 160 139q0 52 -24.5 91t-63 65.5t-85.5 52t-94.5 58.5t-86 75t-63 112t-24.5 161q0 177 100.5 268t314.5 91q162 0 300 -30l-19 -218q-8 1 -34 5.5t-41.5 7t-41 5.5t-52 4.5t-54.5 1.5q-184 0 -184 -132q0 -46 24.5 -82t64 -62 t86.5 -52.5t94.5 -61.5t87 -80t64 -117.5t24.5 -164.5q0 -365 -421 -365q-79 0 -187 10.5t-163 25.5z" />
<glyph unicode="T" horiz-adv-x="908" d="M22 1065v238h866v-238h-288v-1065h-289v1065h-289z" />
<glyph unicode="U" horiz-adv-x="1038" d="M74 449v854h289v-864q0 -111 43.5 -164t114.5 -53t113 53t42 164v864h288v-854q0 -468 -443 -468q-447 0 -447 468z" />
<glyph unicode="V" horiz-adv-x="1081" d="M19 1303h305l218 -934l216 934h305l-387 -1303h-270z" />
<glyph unicode="W" horiz-adv-x="1522" d="M19 1303h316l134 -998l132 998h319l134 -998l134 998h316l-290 -1303h-320l-133 946l-134 -946h-318z" />
<glyph unicode="X" horiz-adv-x="999" d="M20 0l343 655l-343 648h298l183 -407l182 407h296l-340 -648l340 -655h-298l-180 415l-181 -415h-300z" />
<glyph unicode="Y" horiz-adv-x="1068" d="M34 1303h316l186 -582l181 582h318l-354 -860v-443h-290v443z" />
<glyph unicode="Z" horiz-adv-x="930" d="M60 0v242l472 819h-452v242h771v-242l-477 -819h497v-242h-811z" />
<glyph unicode="[" horiz-adv-x="456" d="M48 -292v1634h360v-204h-91v-1224h91v-206h-360z" />
<glyph unicode="\" horiz-adv-x="627" d="M-106 1322h275l470 -1354h-278z" />
<glyph unicode="]" horiz-adv-x="456" d="M48 -86h90v1224h-90v204h360v-1634h-360v206z" />
<glyph unicode="^" horiz-adv-x="960" d="M54 748l423 496l428 -496l-207 -191l-221 311l-220 -311z" />
<glyph unicode="_" horiz-adv-x="655" d="M0 0h648v-244h-648v244z" />
<glyph unicode="`" horiz-adv-x="528" d="M19 1629h322l156 -272h-238z" />
<glyph unicode="a" horiz-adv-x="815" d="M41 240q0 154 110 225t346 73v65q0 106 -158 106q-107 0 -227 -35l-28 166q145 46 320 46q103 0 171 -18t106 -57.5t53.5 -92t15.5 -130.5v-588h-231v91q-36 -54 -95.5 -82t-125.5 -28q-125 0 -191 69.5t-66 189.5zM317 248q0 -95 70 -95q51 0 80.5 45.5t29.5 127.5v54 q-87 -2 -133.5 -30t-46.5 -102z" />
<glyph unicode="b" horiz-adv-x="940" d="M82 0v1341h262v-593q93 138 226 138q151 0 236.5 -122t85.5 -334q0 -210 -86 -329.5t-246 -119.5q-66 0 -130.5 33.5t-111.5 99.5v-114h-236zM344 430q0 -107 36.5 -165t99.5 -58q61 0 98.5 58t37.5 167q0 110 -37 167.5t-99 57.5t-99 -60t-37 -167z" />
<glyph unicode="c" horiz-adv-x="731" d="M48 428q0 215 100.5 336.5t279.5 121.5q59 0 129.5 -14.5t123.5 -42.5l-76 -196q-64 28 -127 28q-154 0 -154 -229q0 -104 38 -164.5t120 -60.5q81 0 134 29l58 -210q-104 -45 -233 -45q-197 0 -295 119.5t-98 327.5z" />
<glyph unicode="d" horiz-adv-x="934" d="M47 428q0 213 88.5 335.5t244.5 122.5q129 0 214 -132v587h264v-1341h-236v127q-92 -146 -240 -146q-158 0 -246.5 120t-88.5 327zM324 432q0 -110 37 -167.5t99 -57.5t99 58.5t37 164.5q0 107 -37 167t-99 60q-61 0 -98.5 -58t-37.5 -167z" />
<glyph unicode="e" horiz-adv-x="878" d="M48 423q0 96 22 177.5t67 146.5t122 102t179 37q100 0 175 -36.5t117.5 -100.5t63 -143t20.5 -174v-91h-494q0 -81 69 -122.5t170 -41.5q111 0 243 28l10 -183q-152 -41 -328 -41q-122 0 -210 35.5t-136 99t-69 139t-21 168.5zM320 514h231q-3 186 -115 186 q-116 0 -116 -186z" />
<glyph unicode="f" horiz-adv-x="579" d="M43 644v222h84v136q0 215 67.5 304.5t226.5 89.5q60 0 91.5 -3t103.5 -17l-30 -214q-68 11 -102 11q-60 0 -77.5 -40t-17.5 -143v-124h162v-222h-162v-998h-262v998h-84z" />
<glyph unicode="g" horiz-adv-x="899" d="M50 -348l23 180q94 -20 275 -20q128 0 191.5 13.5t63.5 51.5q0 23 -29.5 34t-77 13.5t-105 4.5t-115 12t-105 29.5t-77 63t-29.5 107.5q0 111 103 159q-110 94 -110 255q0 66 22 123.5t66.5 105t119.5 75t173 27.5q74 0 144 -18h273v-162h-70q33 -70 33 -151 q0 -67 -22 -126t-65.5 -107t-117.5 -76.5t-169 -29.5h-26q-41 0 -71 -10.5t-30 -32.5q0 -18 23 -27t61 -10.5t86 -4.5t98.5 -6.5t98.5 -19t86 -40t61 -71.5t23 -111q0 -65 -24 -113t-61 -75.5t-93.5 -44t-110.5 -21.5t-123 -5q-240 0 -393 28zM317 553q0 -67 32.5 -107 t89.5 -40q56 0 90.5 40.5t34.5 106.5t-33.5 103t-91.5 37q-56 0 -89 -37t-33 -103z" />
<glyph unicode="h" horiz-adv-x="908" d="M82 0v1378h262v-624q83 132 203 132q141 0 215 -103.5t74 -285.5v-497h-263v497q0 79 -31.5 124.5t-83.5 45.5q-53 0 -83.5 -46.5t-30.5 -132.5v-488h-262z" />
<glyph unicode="i" horiz-adv-x="463" d="M71 1125q0 63 38.5 105t95.5 42q56 0 96 -42.5t40 -104.5q0 -65 -40 -106.5t-96 -41.5q-58 0 -96 41t-38 107zM73 259v607h264v-566q0 -55 10.5 -78t49.5 -23q12 0 26 4l18 -201q-57 -21 -158 -21q-118 0 -164 71.5t-46 206.5z" />
<glyph unicode="j" horiz-adv-x="431" d="M-97 -341l39 218q44 -9 75 -9q45 0 59.5 33.5t14.5 139.5v825h263v-827q0 -210 -69 -308t-216 -98q-63 0 -166 26zM88 1125q0 63 38.5 105t95.5 42q55 0 95 -42.5t40 -104.5q0 -65 -39.5 -106.5t-95.5 -41.5q-58 0 -96 41t-38 107z" />
<glyph unicode="k" horiz-adv-x="891" d="M80 0v1378h263v-844l214 332h305l-287 -425l302 -441h-313l-221 354v-354h-263z" />
<glyph unicode="l" horiz-adv-x="463" d="M73 313v1065h262v-1065q0 -55 10.5 -78t47.5 -23q10 0 28 4l20 -214q-60 -21 -160 -21q-61 0 -103 23.5t-64.5 69.5t-31.5 103t-9 136z" />
<glyph unicode="m" horiz-adv-x="1353" d="M82 0v866h262v-95q21 51 75.5 83t120.5 32q91 0 143 -46t67 -127q79 173 250 173q131 0 203 -104.5t72 -289.5v-492h-264v492q0 173 -97 173q-104 0 -104 -173v-492h-263v490q0 175 -98 175q-46 0 -75.5 -45.5t-29.5 -133.5v-486h-262z" />
<glyph unicode="n" horiz-adv-x="906" d="M80 0v866h250v-119q34 63 105 101t144 38q125 0 190 -84t65 -240v-562h-262v484q0 90 -30.5 133.5t-83.5 43.5q-52 0 -83.5 -46t-31.5 -140v-475h-263z" />
<glyph unicode="o" d="M48 434q0 73 14.5 138.5t47 123.5t79.5 99.5t117 66t156 24.5q106 0 187 -36.5t129.5 -100.5t72.5 -143.5t24 -171.5t-24 -171.5t-72.5 -143.5t-129.5 -101t-187 -37q-107 0 -188.5 37t-129.5 101t-72 143.5t-24 171.5zM324 434q0 -102 38 -166.5t100 -64.5t100 64.5 t38 166.5q0 103 -37.5 166t-100.5 63q-64 0 -101 -63t-37 -166z" />
<glyph unicode="p" horiz-adv-x="938" d="M80 -354v1220h237v-127q91 147 240 147q158 0 245.5 -119.5t87.5 -328.5q0 -212 -87.5 -334.5t-243.5 -122.5q-127 0 -216 133v-468h-263zM343 438q0 -108 36.5 -168.5t98.5 -60.5t99 58t37 169q0 109 -37.5 166t-98.5 57q-62 0 -98.5 -57.5t-36.5 -163.5z" />
<glyph unicode="q" horiz-adv-x="938" d="M48 438q0 209 88.5 328.5t247.5 119.5q149 0 238 -147v127h236v-1220h-262v468q-86 -133 -214 -133q-158 0 -246 122.5t-88 334.5zM324 436q0 -111 37.5 -169t98.5 -58q62 0 99 60.5t37 168.5q0 106 -36.5 163.5t-99.5 57.5q-61 0 -98.5 -57t-37.5 -166z" />
<glyph unicode="r" horiz-adv-x="621" d="M80 0v866h237v-99q25 58 79 88.5t103 30.5q63 0 106 -26l-41 -221q-43 16 -87 16q-63 0 -98.5 -44t-35.5 -151v-460h-263z" />
<glyph unicode="s" horiz-adv-x="681" d="M45 2l15 188q133 -19 186 -19q68 0 97 19.5t29 60.5q0 27 -17.5 45t-45.5 28.5t-62 21t-68 30t-62 48t-45.5 81t-17.5 124.5q0 141 72.5 199t236.5 58q125 0 253 -18l-22 -188q-80 16 -155 16q-60 0 -90.5 -15.5t-30.5 -56.5q0 -26 17.5 -43.5t45.5 -28.5t61.5 -22 t67.5 -31t62 -49t45.5 -81.5t17.5 -122.5q0 -145 -77 -205t-234 -60q-132 0 -279 21z" />
<glyph unicode="t" horiz-adv-x="584" d="M47 644v222h85l131 223h119v-223h132v-222h-132v-311q0 -115 67 -115q21 0 56 11l33 -214q-122 -34 -188 -34t-111 22.5t-68.5 52t-35.5 87t-14 99t-2 115.5v287h-72z" />
<glyph unicode="u" horiz-adv-x="906" d="M73 367v499h262v-499q0 -76 32 -118t82 -42q49 0 82 41t33 119v499h263v-866h-237v93q-88 -112 -214 -112q-148 0 -225.5 102t-77.5 284z" />
<glyph unicode="v" horiz-adv-x="863" d="M17 866h277l136 -587l140 587h277l-275 -866h-282z" />
<glyph unicode="w" horiz-adv-x="1320" d="M17 866h270l119 -596l121 596h266l121 -596l121 596h268l-253 -866h-270l-121 553l-117 -553h-272z" />
<glyph unicode="x" horiz-adv-x="869" d="M15 0l270 439l-259 427h279l129 -211l128 211h281l-258 -427l270 -439h-263l-158 238l-157 -238h-262z" />
<glyph unicode="y" horiz-adv-x="876" d="M17 866h290l134 -611l140 611h279l-313 -981q-46 -144 -112 -200.5t-174 -56.5q-47 0 -72.5 3t-95.5 17l32 188q59 -13 102 -13q37 0 57.5 20t22.5 51l17 67z" />
<glyph unicode="z" horiz-adv-x="804" d="M67 0v214l335 438h-322v214h650v-214l-332 -438h349v-214h-680z" />
<glyph unicode="{" horiz-adv-x="565" d="M48 417v183q32 10 52 28.5t28 45.5t10.5 48t2.5 54v207q0 53 6 97t22 87t42.5 72t69 46.5t99.5 17.5h138v-218q-53 -2 -77 -27t-24 -81v-180q0 -37 -3 -63t-13 -57.5t-28.5 -57t-52 -54.5t-80.5 -57q47 -28 80.5 -57.5t52 -55t28.5 -57t13 -57t3 -61.5v-181q0 -56 24 -81 t77 -27v-218h-138q-70 0 -119 26t-74 73.5t-35.5 100.5t-10.5 121v206q0 33 -2.5 54t-10.5 48.5t-28 46t-52 28.5z" />
<glyph unicode="|" horiz-adv-x="480" d="M110 -311v1670h259v-1670h-259z" />
<glyph unicode="}" horiz-adv-x="565" d="M48 -69q52 2 75.5 27t23.5 81v181q0 46 5 77.5t22.5 69t55 72t96.5 69.5q-59 34 -96.5 68.5t-55 72.5t-22.5 69.5t-5 78.5v180q0 56 -23.5 81t-75.5 27v218h138q57 0 99.5 -17.5t68.5 -46.5t42 -72t22 -86.5t6 -97.5v-207q0 -32 2.5 -53.5t11 -48.5t28.5 -45.5t52 -28.5 v-183q-32 -10 -52 -28.5t-28.5 -45.5t-11 -49t-2.5 -54v-206q0 -68 -10.5 -121t-35 -100.5t-73.5 -73.5t-119 -26h-138v218z" />
<glyph unicode="~" horiz-adv-x="863" d="M37 371q47 122 125.5 190t157.5 68q46 0 94 -24.5t88 -49t68 -24.5q17 0 36 21.5t33 63.5l195 -91q-25 -90 -71 -150.5t-96.5 -85.5t-104.5 -25q-36 0 -70 16t-56.5 34.5t-50 34.5t-50.5 16q-27 0 -45.5 -17.5t-45.5 -66.5z" />
<glyph unicode="&#xa0;" horiz-adv-x="472" d="M0 372v237h475v-237h-475z" />
<glyph unicode="&#xa1;" horiz-adv-x="515" d="M110 534q0 67 43 114.5t104 47.5q62 0 106.5 -47.5t44.5 -114.5t-44.5 -115t-106.5 -48q-61 0 -104 48t-43 115zM119 335h274v-670h-274v670z" />
<glyph unicode="&#xa2;" horiz-adv-x="830" d="M56 428q0 185 75 302.5t213 146.5v130h263v-147q40 -10 82 -31l-76 -196q-64 28 -127 28q-155 0 -155 -229q0 -104 38.5 -164.5t120.5 -60.5q81 0 134 29l57 -210q-32 -15 -74 -26v-130h-263v123q-145 30 -216.5 143.5t-71.5 291.5z" />
<glyph unicode="&#xa3;" horiz-adv-x="899" d="M58 0v192q100 52 139 102.5t39 129.5q0 43 -9 88h-167v246h139q-18 67 -18 160q0 91 21 162t56 116t85 74t103 40.5t114 11.5q119 0 293 -49l-43 -215q-144 37 -210 37q-131 0 -131 -172q0 -35 8 -91.5t9 -73.5h207v-246h-177q11 -68 11 -112q0 -147 -97 -199h426v-201 h-798z" />
<glyph unicode="&#xa4;" d="M20 145l86 114q-84 116 -84 292q0 180 86 292l-88 120l136 113l101 -119q82 33 179 33q101 0 184 -35l104 121l138 -113l-95 -125q82 -114 82 -287q0 -172 -78 -285l91 -121l-138 -111l-97 111q-83 -37 -191 -37q-104 0 -187 35l-93 -109zM298 551q0 -98 37.5 -159 t100.5 -61q62 0 99.5 61t37.5 159t-36.5 158t-100.5 60q-62 0 -100 -60.5t-38 -157.5z" />
<glyph unicode="&#xa5;" horiz-adv-x="798" d="M-32 1238h302l132 -374l127 374h305l-229 -555h210v-236h-275v-58h275v-236h-275v-153h-276v153h-279v236h279v58h-281v236h214z" />
<glyph unicode="&#xa6;" horiz-adv-x="482" d="M110 -268v739h259v-739h-259zM110 573v728h259v-728h-259z" />
<glyph unicode="&#xa7;" horiz-adv-x="675" d="M45 -108l26 166q125 -28 210 -28q106 0 106 108q0 37 -18.5 62.5t-47.5 40.5t-64 29t-70.5 35.5t-64.5 52t-47.5 85.5t-18.5 130q0 168 102 242q-69 76 -69 220q0 152 79.5 219.5t228.5 67.5q116 0 240 -28l-21 -156q-108 18 -180 18q-106 0 -106 -95q0 -36 18 -61.5 t47 -41t63.5 -31t69.5 -37.5t64 -52.5t47 -84.5t18 -126q0 -165 -110 -240q77 -77 77 -221q0 -158 -89.5 -230t-244.5 -72q-152 0 -245 28zM296 600q0 -65 61 -101q60 19 60 101q0 56 -46 89q-23 -11 -35.5 -18.5t-26 -26.5t-13.5 -44z" />
<glyph unicode="&#xa8;" horiz-adv-x="552" d="M50 1469q0 45 29.5 78.5t71.5 33.5q41 0 71.5 -33.5t30.5 -78.5t-30.5 -78.5t-71.5 -33.5q-42 0 -71.5 33t-29.5 79zM300 1469q0 45 30 78.5t72 33.5q41 0 71 -33.5t30 -78.5q0 -46 -30 -79t-71 -33q-42 0 -72 33t-30 79z" />
<glyph unicode="&#xa9;" horiz-adv-x="1184" d="M61 614q0 173 72 319.5t194.5 231t266.5 84.5q149 0 271 -88.5t190 -237t68 -323.5q0 -139 -46.5 -258.5t-122 -197.5t-170 -122t-192.5 -44q-147 0 -270.5 90.5t-192 236.5t-68.5 309zM190 614q0 -133 52 -253t145.5 -196t204.5 -76q73 0 145 36.5t129.5 101t93.5 162.5 t36 212q0 147 -52.5 271t-145.5 196.5t-204 72.5q-109 0 -201.5 -70t-147.5 -191.5t-55 -265.5zM274 594q0 69 20.5 132.5t59.5 116t104 83.5t147 31q72 0 140 -29.5t113 -87.5l-156 -168q-34 39 -78 39q-40 0 -61 -33.5t-21 -83.5q0 -49 21 -83t61 -34q39 0 83 37l149 -166 q-45 -59 -112.5 -88t-138.5 -29q-82 0 -147 31t-104 83t-59.5 115.5t-20.5 133.5z" />
<glyph unicode="&#xaa;" horiz-adv-x="781" d="M28 970q0 157 72.5 254.5t208.5 97.5q78 0 149 -86v67h268v-672h-268v62q-62 -80 -141 -80q-95 0 -161.5 48.5t-97 127.5t-30.5 181zM296 966q0 -57 21.5 -87t62.5 -30q37 0 57.5 31t20.5 86q0 56 -21 87.5t-59 31.5q-39 0 -60.5 -31t-21.5 -88z" />
<glyph unicode="&#xab;" horiz-adv-x="968" d="M48 478l324 447l170 -160l-181 -285l186 -279l-175 -164zM426 480l315 447l175 -162l-181 -285l187 -283l-185 -154z" />
<glyph unicode="&#xac;" horiz-adv-x="876" d="M37 411v231h801v-536h-255v305h-546z" />
<glyph unicode="&#xad;" horiz-adv-x="472" d="M0 372v237h475v-237h-475z" />
<glyph unicode="&#xae;" horiz-adv-x="1185" d="M82 614q0 149 40 270.5t110 200.5t162.5 121.5t199.5 42.5q226 0 369 -174.5t143 -474.5q0 -139 -45 -258.5t-118 -197.5t-164.5 -122t-186.5 -44q-222 0 -366 176.5t-144 459.5zM210 614q0 -238 108 -381.5t274 -143.5q57 0 111 18.5t103.5 59t87 99t60 145t22.5 190.5 q0 256 -107 398t-275 142q-166 0 -275 -137.5t-109 -389.5zM413 253v723q87 24 142 24q117 0 181.5 -70t64.5 -167q0 -58 -26 -113t-71 -91l164 -306h-174l-104 192l-18 47v-239h-159zM566 860q2 -2 6 -2v-199q35 3 51.5 32t16.5 69t-18 68.5t-56 31.5z" />
<glyph unicode="&#xaf;" horiz-adv-x="567" d="M61 1357v214h445v-214h-445z" />
<glyph unicode="&#xb0;" horiz-adv-x="631" d="M41 981q0 116 83 197.5t191 81.5t189.5 -82.5t81.5 -196.5q0 -117 -81.5 -198t-189.5 -81q-109 0 -191.5 82t-82.5 197zM283 983q0 -74 32 -74q14 0 22.5 20t8.5 48t-8 51.5t-20 23.5q-17 0 -26 -19.5t-9 -49.5z" />
<glyph unicode="&#xb1;" horiz-adv-x="878" d="M37 361v237h268v324h265v-324h266v-237h-266v-227h272v-246h-801v246h264v227h-268z" />
<glyph unicode="&#xb2;" horiz-adv-x="761" d="M52 559v186l302 264q56 48 73.5 86t17.5 80q0 98 -86 98q-37 0 -60 -21.5t-23 -63.5h-224q9 81 36 137t70.5 86t94.5 43t116 13q50 0 93 -7t86 -26.5t73.5 -49.5t49 -79.5t18.5 -114.5q0 -85 -25.5 -148.5t-88.5 -114.5l-203 -182h328v-186h-648z" />
<glyph unicode="&#xb3;" horiz-adv-x="711" d="M13 799l233 37q22 -45 46 -65.5t71 -20.5q43 0 61.5 21.5t18.5 68.5q0 52 -22.5 76t-68.5 24h-112l-45 179h103q112 0 112 78q0 34 -17.5 57t-51.5 23q-38 0 -57 -21.5t-23 -52.5l-222 41q47 221 311 221q131 0 212.5 -58.5t81.5 -179.5q0 -155 -119 -181 q35 -8 60.5 -20.5t51.5 -36.5t40 -67t14 -103q0 -57 -14.5 -102t-41 -74t-57.5 -49t-69 -30t-71 -14t-69 -4q-170 0 -252 56.5t-104 196.5z" />
<glyph unicode="&#xb4;" horiz-adv-x="476" d="M34 1357l130 261h301l-247 -261h-184z" />
<glyph unicode="&#xb6;" horiz-adv-x="906" d="M56 923q0 166 100.5 273t258.5 107h324v-1539h-179v1366h-55v-1366h-177v789q-123 3 -197.5 109.5t-74.5 260.5z" />
<glyph unicode="&#xb7;" horiz-adv-x="441" d="M71 359q0 68 43.5 116t105.5 48t105.5 -48t43.5 -116q0 -67 -43.5 -113.5t-105.5 -46.5q-60 0 -104.5 48t-44.5 112z" />
<glyph unicode="&#xb8;" horiz-adv-x="411" d="M19 -363l39 89q33 -7 50 -7q89 0 89 54q0 32 -23 48.5t-85 16.5l54 164h123l-20 -67q79 -6 107.5 -40.5t28.5 -93.5q0 -51 -17.5 -88.5t-48 -58.5t-67.5 -31t-81 -10q-77 0 -149 24z" />
<glyph unicode="&#xb9;" horiz-adv-x="554" d="M6 1268l232 186h246v-895h-246v633l-85 -71z" />
<glyph unicode="&#xba;" horiz-adv-x="919" d="M43 869q0 92 24 171.5t72 143.5t129 101t188 37q106 0 187 -37t129.5 -101t72.5 -143.5t24 -171.5t-24 -171.5t-72.5 -143.5t-129.5 -100.5t-187 -36.5q-107 0 -188 36.5t-129 100.5t-72 143.5t-24 171.5zM318 869q0 -102 38 -166t100 -64t100 64t38 166q0 103 -37.5 166 t-100.5 63q-64 0 -101 -63t-37 -166z" />
<glyph unicode="&#xbb;" horiz-adv-x="968" d="M48 197l185 283l-181 285l175 162l317 -447l-313 -437zM423 201l184 279l-183 285l172 160l326 -447l-326 -441z" />
<glyph unicode="&#xbc;" horiz-adv-x="1751" d="M48 1117l233 186h246v-895h-246v633l-86 -71zM452 -78l494 1420h273l-495 -1420h-272zM1026 240l233 37q22 -45 46 -65t71 -20q43 0 61.5 21.5t18.5 67.5q0 101 -91 101h-112l-45 178h103q111 0 111 79q0 34 -17 57t-51 23q-38 0 -57.5 -22t-23.5 -53l-221 41 q47 222 311 222q131 0 212.5 -59t81.5 -180q0 -154 -119 -180q35 -8 60.5 -20.5t51.5 -36.5t40 -67t14 -103q0 -68 -22 -119t-54.5 -79.5t-78 -46.5t-85 -23.5t-83.5 -5.5q-169 0 -251 56.5t-104 196.5z" />
<glyph unicode="&#xbd;" horiz-adv-x="1761" d="M48 1117l233 186h246v-895h-246v633l-86 -71zM452 -78l494 1420h275l-495 -1420h-274zM1067 0v186l301 265q56 49 74 86t18 79q0 99 -86 99q-37 0 -60.5 -22t-23.5 -64h-223q9 81 36 137t70.5 86.5t94 43.5t115.5 13q50 0 93.5 -7.5t86.5 -26.5t73 -49.5t49 -80 t19 -114.5q0 -85 -25.5 -148t-88.5 -114l-203 -183h328v-186h-648z" />
<glyph unicode="&#xbe;" horiz-adv-x="1962" d="M48 648l233 37q22 -45 46 -65t71 -20q43 0 61.5 21.5t18.5 67.5q0 52 -22.5 76t-68.5 24h-111l-45 179h102q112 0 112 78q0 34 -17.5 57t-51.5 23q-38 0 -57 -21.5t-23 -52.5l-222 41q47 221 311 221q131 0 213 -58.5t82 -179.5q0 -154 -120 -180q35 -8 60.5 -20.5 t51.5 -37t40 -67.5t14 -103q0 -57 -14.5 -102t-41 -74t-57.5 -49t-69 -30t-71 -14t-69 -4q-170 0 -252 56.5t-104 196.5zM601 -78l494 1420h273l-495 -1420h-272zM1221 175v186l118 447h217l-108 -447h148v535h232v-535h86v-186h-86v-175h-232v175h-375z" />
<glyph unicode="&#xbf;" horiz-adv-x="871" d="M37 -35q0 74 27 138t65.5 107.5t76.5 81t65 74.5t27 72v74h277v-67q0 -59 -26.5 -113.5t-64.5 -97.5t-76 -84t-64.5 -88t-26.5 -94q0 -65 32.5 -95.5t76.5 -30.5q45 0 79.5 33t34.5 93h266q0 -89 -20 -155t-53.5 -106.5t-83.5 -64.5t-102.5 -33t-118.5 -9 q-63 0 -115.5 8.5t-105.5 32.5t-89 63.5t-58.5 106t-22.5 154.5zM285 726q0 66 45.5 113t108.5 47t106 -47t43 -113q0 -67 -43 -114.5t-106 -47.5t-108.5 47.5t-45.5 114.5z" />
<glyph unicode="&#xc0;" horiz-adv-x="1146" d="M20 0l423 1303h263l420 -1303h-294l-65 240h-387l-65 -240h-295zM235 1629h322l156 -272h-238zM439 462h267l-133 489z" />
<glyph unicode="&#xc1;" horiz-adv-x="1146" d="M20 0l423 1303h263l420 -1303h-294l-65 240h-387l-65 -240h-295zM439 462h267l-133 489zM473 1357l130 261h302l-248 -261h-184z" />
<glyph unicode="&#xc2;" horiz-adv-x="1146" d="M20 0l423 1303h263l420 -1303h-294l-65 240h-387l-65 -240h-295zM272 1398l216 207h169l214 -207l-22 -41l-276 82l-279 -82zM439 462h267l-133 489z" />
<glyph unicode="&#xc3;" horiz-adv-x="1146" d="M20 0l423 1303h263l420 -1303h-294l-65 240h-387l-65 -240h-295zM343 1422q30 75 73 113t90 38q34 0 84 -26t62 -26q16 0 34 14.5t27 39.5l88 -54q-28 -73 -73 -112t-93 -39q-34 0 -85 27t-62 27q-13 0 -31.5 -16t-26.5 -40zM439 462h267l-133 489z" />
<glyph unicode="&#xc4;" horiz-adv-x="1146" d="M20 0l423 1303h263l420 -1303h-294l-65 240h-387l-65 -240h-295zM348 1469q0 45 29.5 78.5t71.5 33.5q41 0 71.5 -33.5t30.5 -78.5t-30.5 -78.5t-71.5 -33.5q-42 0 -71.5 33t-29.5 79zM439 462h267l-133 489zM598 1469q0 45 30 78.5t72 33.5q41 0 71 -33.5t30 -78.5 q0 -46 -30 -79t-71 -33q-42 0 -72 33t-30 79z" />
<glyph unicode="&#xc5;" horiz-adv-x="1146" d="M20 0l423 1303h263l420 -1303h-294l-65 240h-387l-65 -240h-295zM359 1491q0 56 57 96t157 40t157.5 -40t57.5 -96q0 -54 -57.5 -95t-157.5 -41t-157 41t-57 95zM439 462h267l-133 489zM527 1491q0 -18 12 -32t34 -14q23 0 36 14t13 32q0 17 -13.5 32t-35.5 15t-34 -15 t-12 -32z" />
<glyph unicode="&#xc6;" horiz-adv-x="1528" d="M20 0l587 1303h855v-238h-464v-274h393v-238h-393v-315h464v-238h-741v240h-302l-102 -240h-297zM512 462h209v486z" />
<glyph unicode="&#xc7;" horiz-adv-x="942" d="M34 639q0 319 136.5 501t382.5 182q83 0 172 -21t159 -63l-76 -212q-97 54 -208 54q-96 0 -161 -58.5t-93 -154t-28 -223.5q0 -197 69.5 -309.5t213.5 -112.5q53 0 113.5 15t104.5 40l60 -227q-93 -43 -194 -57l-18 -64q79 -6 107 -40.5t28 -93.5q0 -51 -17.5 -88.5 t-48 -58.5t-67.5 -31t-81 -10q-77 0 -149 24l39 90q38 -8 51 -8q89 0 89 54q0 32 -23 48.5t-85 16.5l49 149q-261 0 -393 174.5t-132 483.5z" />
<glyph unicode="&#xc8;" horiz-adv-x="889" d="M82 0v1303h741v-238h-467v-274h394v-238h-394v-315h467v-238h-741zM123 1629h322l156 -272h-238z" />
<glyph unicode="&#xc9;" horiz-adv-x="889" d="M82 0v1303h741v-238h-467v-274h394v-238h-394v-315h467v-238h-741zM361 1357l131 261h301l-247 -261h-185z" />
<glyph unicode="&#xca;" horiz-adv-x="889" d="M82 0v1303h741v-238h-467v-274h394v-238h-394v-315h467v-238h-741zM160 1398l216 207h170l214 -207l-23 -41l-275 82l-280 -82z" />
<glyph unicode="&#xcb;" horiz-adv-x="889" d="M82 0v1303h741v-238h-467v-274h394v-238h-394v-315h467v-238h-741zM235 1469q0 45 29 78.5t71 33.5q41 0 72 -33.5t31 -78.5t-31 -78.5t-72 -33.5q-42 0 -71 33t-29 79zM484 1469q0 45 30 78.5t72 33.5q41 0 71 -33.5t30 -78.5q0 -46 -30 -79t-71 -33q-42 0 -72 33 t-30 79z" />
<glyph unicode="&#xcc;" horiz-adv-x="431" d="M-117 1629h322l156 -272h-238zM82 0v1303h274v-1303h-274z" />
<glyph unicode="&#xcd;" horiz-adv-x="431" d="M82 0v1303h274v-1303h-274zM121 1357l130 261h302l-248 -261h-184z" />
<glyph unicode="&#xce;" horiz-adv-x="431" d="M-82 1398l216 207h169l215 -207l-23 -41l-275 82l-280 -82zM82 0v1303h274v-1303h-274z" />
<glyph unicode="&#xcf;" horiz-adv-x="431" d="M-6 1469q0 45 29.5 78.5t71.5 33.5q41 0 71.5 -33.5t30.5 -78.5t-30.5 -78.5t-71.5 -33.5q-42 0 -71.5 33t-29.5 79zM82 0v1303h274v-1303h-274zM244 1469q0 45 30 78.5t72 33.5q41 0 71 -33.5t30 -78.5q0 -46 -30 -79t-71 -33q-42 0 -72 33t-30 79z" />
<glyph unicode="&#xd0;" horiz-adv-x="1208" d="M80 532v237h102v532q248 21 345 21q113 0 203.5 -17.5t155 -48t112 -78.5t76.5 -101.5t46 -124.5t23 -140.5t6 -156.5q0 -88 -6 -158t-23.5 -142t-46 -126t-76 -102.5t-111.5 -79t-153.5 -48.5t-201.5 -18q-163 0 -349 19v532h-102zM458 233q106 -10 149 -10 q251 0 251 430q0 210 -63.5 311t-209.5 101q-28 0 -127 -11v-285h97v-237h-97v-299z" />
<glyph unicode="&#xd1;" horiz-adv-x="1139" d="M80 0v1303h264l395 -834v834h263v-1303h-263l-395 836v-836h-264zM343 1422q30 75 73 113t90 38q34 0 84 -26t62 -26q16 0 34 14.5t27 39.5l88 -54q-28 -73 -73 -112t-93 -39q-34 0 -85 27t-62 27q-13 0 -31.5 -16t-26.5 -40z" />
<glyph unicode="&#xd2;" horiz-adv-x="1266" d="M58 652q0 194 67.5 345t199.5 238t310 87q176 0 307.5 -87t199.5 -238t68 -345t-68 -345.5t-199.5 -238.5t-307.5 -87q-178 0 -310 87.5t-199.5 238.5t-67.5 345zM294 1629h322l157 -272h-239zM346 652q0 -186 79 -301t210 -115t209 115.5t78 300.5t-78 300t-209 115 q-130 0 -209.5 -115.5t-79.5 -299.5z" />
<glyph unicode="&#xd3;" horiz-adv-x="1266" d="M58 652q0 194 67.5 345t199.5 238t310 87q176 0 307.5 -87t199.5 -238t68 -345t-68 -345.5t-199.5 -238.5t-307.5 -87q-178 0 -310 87.5t-199.5 238.5t-67.5 345zM346 652q0 -186 79 -301t210 -115t209 115.5t78 300.5t-78 300t-209 115q-130 0 -209.5 -115.5 t-79.5 -299.5zM532 1357l131 261h301l-247 -261h-185z" />
<glyph unicode="&#xd4;" horiz-adv-x="1266" d="M58 652q0 194 67.5 345t199.5 238t310 87q176 0 307.5 -87t199.5 -238t68 -345t-68 -345.5t-199.5 -238.5t-307.5 -87q-178 0 -310 87.5t-199.5 238.5t-67.5 345zM333 1398l216 207h170l214 -207l-23 -41l-275 82l-279 -82zM346 652q0 -186 79 -301t210 -115t209 115.5 t78 300.5t-78 300t-209 115q-130 0 -209.5 -115.5t-79.5 -299.5z" />
<glyph unicode="&#xd5;" horiz-adv-x="1266" d="M58 652q0 194 67.5 345t199.5 238t310 87q176 0 307.5 -87t199.5 -238t68 -345t-68 -345.5t-199.5 -238.5t-307.5 -87q-178 0 -310 87.5t-199.5 238.5t-67.5 345zM346 652q0 -186 79 -301t210 -115t209 115.5t78 300.5t-78 300t-209 115q-130 0 -209.5 -115.5 t-79.5 -299.5zM402 1422q30 75 73.5 113t90.5 38q34 0 83 -26t62 -26q16 0 34.5 14.5t27.5 39.5l87 -54q-28 -73 -73 -112t-93 -39q-34 0 -85 27t-62 27q-13 0 -31 -16t-26 -40z" />
<glyph unicode="&#xd6;" horiz-adv-x="1266" d="M58 652q0 194 67.5 345t199.5 238t310 87q176 0 307.5 -87t199.5 -238t68 -345t-68 -345.5t-199.5 -238.5t-307.5 -87q-178 0 -310 87.5t-199.5 238.5t-67.5 345zM346 652q0 -186 79 -301t210 -115t209 115.5t78 300.5t-78 300t-209 115q-130 0 -209.5 -115.5 t-79.5 -299.5zM408 1469q0 45 29 78.5t71 33.5q41 0 72 -33.5t31 -78.5t-31 -78.5t-72 -33.5q-42 0 -71 33t-29 79zM657 1469q0 45 30.5 78.5t72.5 33.5q40 0 70 -33.5t30 -78.5q0 -46 -29.5 -79t-70.5 -33q-42 0 -72.5 33t-30.5 79z" />
<glyph unicode="&#xd7;" horiz-adv-x="906" d="M37 195l237 283q-15 18 -79 85.5t-96 114.5t-41 93q1 10 10.5 23.5t18.5 22.5t23.5 22.5t17.5 16.5l77 79l242 -287l247 288l175 -169l-245 -289q222 -265 236 -281q-15 -16 -76 -80t-91 -98l-244 290l-244 -289l-82 88q-1 1 -25.5 23.5t-60.5 63.5z" />
<glyph unicode="&#xd8;" horiz-adv-x="1266" d="M58 652q0 194 67.5 345t199.5 238t310 87q58 0 119 -11l28 76h236l-59 -164q120 -85 185.5 -234.5t65.5 -336.5q0 -194 -68 -345.5t-199.5 -238.5t-307.5 -87q-51 0 -123 13l-28 -80h-236l59 166q-121 86 -185 235t-64 337zM346 652q0 -167 67 -281l252 694q-5 0 -15 1 t-15 1q-130 0 -209.5 -115.5t-79.5 -299.5zM601 238q11 -2 34 -2q131 0 209 115.5t78 300.5q0 169 -67 283z" />
<glyph unicode="&#xd9;" horiz-adv-x="1038" d="M74 449v854h289v-864q0 -111 43.5 -164t114.5 -53t113 53t42 164v864h288v-854q0 -468 -443 -468q-447 0 -447 468zM182 1629h323l156 -272h-238z" />
<glyph unicode="&#xda;" horiz-adv-x="1038" d="M74 449v854h289v-864q0 -111 43.5 -164t114.5 -53t113 53t42 164v864h288v-854q0 -468 -443 -468q-447 0 -447 468zM421 1357l130 261h302l-248 -261h-184z" />
<glyph unicode="&#xdb;" horiz-adv-x="1038" d="M74 449v854h289v-864q0 -111 43.5 -164t114.5 -53t113 53t42 164v864h288v-854q0 -468 -443 -468q-447 0 -447 468zM220 1398l216 207h169l214 -207l-22 -41l-276 82l-279 -82z" />
<glyph unicode="&#xdc;" horiz-adv-x="1038" d="M74 449v854h289v-864q0 -111 43.5 -164t114.5 -53t113 53t42 164v864h288v-854q0 -468 -443 -468q-447 0 -447 468zM296 1469q0 45 29.5 78.5t71.5 33.5q41 0 71.5 -33.5t30.5 -78.5t-30.5 -78.5t-71.5 -33.5q-42 0 -71.5 33t-29.5 79zM546 1469q0 45 30 78.5t72 33.5 q40 0 70 -33.5t30 -78.5q0 -46 -29.5 -79t-70.5 -33q-42 0 -72 33t-30 79z" />
<glyph unicode="&#xdd;" horiz-adv-x="1068" d="M34 1303h316l186 -582l181 582h318l-354 -860v-443h-290v443zM438 1357l130 261h301l-247 -261h-184z" />
<glyph unicode="&#xde;" horiz-adv-x="778" d="M69 0v1303h292v-231h21q96 0 167.5 -25.5t114 -66t68 -100.5t34.5 -119t9 -132t-9 -132.5t-34.5 -119.5t-68 -101t-114 -66.5t-167.5 -25.5h-21v-184h-292zM361 443q6 -2 15 -2q28 0 48 12t30.5 29t16.5 44.5t7.5 49.5t1.5 53t-1.5 53t-7.5 49.5t-16.5 44.5t-30.5 29 t-48 12q-10 0 -15 -3v-371z" />
<glyph unicode="&#xdf;" horiz-adv-x="1025" d="M82 0v1000q0 83 22.5 151t59.5 113.5t87 76.5t103 45t108 14q164 0 273.5 -104.5t109.5 -282.5q0 -152 -93 -283q52 -34 87.5 -65.5t68.5 -74.5t49.5 -97t16.5 -119q0 -172 -126 -273t-366 -101h-63l37 240h32q91 0 149.5 36.5t58.5 108.5q0 46 -29.5 82.5t-72 62.5 t-85 51.5t-72 61t-29.5 79.5q0 39 16.5 67.5t40 47t47 37.5t40 52t16.5 79q0 68 -32 112.5t-80 44.5q-42 0 -77 -40.5t-35 -121.5v-1000h-262z" />
<glyph unicode="&#xe0;" horiz-adv-x="815" d="M41 240q0 154 110 225t346 73v65q0 106 -158 106q-107 0 -227 -35l-28 166q145 46 320 46q103 0 171 -18t106 -57.5t53.5 -92t15.5 -130.5v-588h-231v91q-36 -54 -95.5 -82t-125.5 -28q-125 0 -191 69.5t-66 189.5zM65 1249h322l157 -272h-239zM317 248q0 -95 70 -95 q51 0 80.5 45.5t29.5 127.5v54q-87 -2 -133.5 -30t-46.5 -102z" />
<glyph unicode="&#xe1;" horiz-adv-x="815" d="M41 240q0 154 110 225t346 73v65q0 106 -158 106q-107 0 -227 -35l-28 166q145 46 320 46q103 0 171 -18t106 -57.5t53.5 -92t15.5 -130.5v-588h-231v91q-36 -54 -95.5 -82t-125.5 -28q-125 0 -191 69.5t-66 189.5zM303 977l131 261h301l-247 -261h-185zM317 248 q0 -95 70 -95q51 0 80.5 45.5t29.5 127.5v54q-87 -2 -133.5 -30t-46.5 -102z" />
<glyph unicode="&#xe2;" horiz-adv-x="815" d="M41 240q0 154 110 225t346 73v65q0 106 -158 106q-107 0 -227 -35l-28 166q145 46 320 46q103 0 171 -18t106 -57.5t53.5 -92t15.5 -130.5v-588h-231v91q-36 -54 -95.5 -82t-125.5 -28q-125 0 -191 69.5t-66 189.5zM102 1018l216 207h170l214 -207l-22 -41l-276 82 l-279 -82zM317 248q0 -95 70 -95q51 0 80.5 45.5t29.5 127.5v54q-87 -2 -133.5 -30t-46.5 -102z" />
<glyph unicode="&#xe3;" horiz-adv-x="815" d="M41 240q0 154 110 225t346 73v65q0 106 -158 106q-107 0 -227 -35l-28 166q145 46 320 46q103 0 171 -18t106 -57.5t53.5 -92t15.5 -130.5v-588h-231v91q-36 -54 -95.5 -82t-125.5 -28q-125 0 -191 69.5t-66 189.5zM173 1043q29 75 73 112.5t91 37.5q33 0 83 -26t62 -26 q16 0 34.5 14.5t27.5 39.5l87 -54q-28 -73 -73 -112t-93 -39q-34 0 -85 27t-62 27q-13 0 -31 -15.5t-26 -39.5zM317 248q0 -95 70 -95q51 0 80.5 45.5t29.5 127.5v54q-87 -2 -133.5 -30t-46.5 -102z" />
<glyph unicode="&#xe4;" horiz-adv-x="815" d="M41 240q0 154 110 225t346 73v65q0 106 -158 106q-107 0 -227 -35l-28 166q145 46 320 46q103 0 171 -18t106 -57.5t53.5 -92t15.5 -130.5v-588h-231v91q-36 -54 -95.5 -82t-125.5 -28q-125 0 -191 69.5t-66 189.5zM179 1089q0 45 29 78.5t71 33.5q41 0 72 -33.5 t31 -78.5t-31 -78.5t-72 -33.5q-42 0 -71 33t-29 79zM317 248q0 -95 70 -95q51 0 80.5 45.5t29.5 127.5v54q-87 -2 -133.5 -30t-46.5 -102zM428 1089q0 45 30.5 78.5t72.5 33.5q40 0 70 -33.5t30 -78.5q0 -46 -29.5 -79t-70.5 -33q-42 0 -72.5 33t-30.5 79z" />
<glyph unicode="&#xe5;" horiz-adv-x="815" d="M41 240q0 154 110 225t346 73v65q0 106 -158 106q-107 0 -227 -35l-28 166q145 46 320 46q103 0 171 -18t106 -57.5t53.5 -92t15.5 -130.5v-588h-231v91q-36 -54 -95.5 -82t-125.5 -28q-125 0 -191 69.5t-66 189.5zM190 1113q0 56 57 96t157 40t157 -40t57 -96 q0 -54 -57 -95t-157 -41t-157 41t-57 95zM317 248q0 -95 70 -95q51 0 80.5 45.5t29.5 127.5v54q-87 -2 -133.5 -30t-46.5 -102zM357 1113q0 -18 12.5 -32t34.5 -14q23 0 35.5 14t12.5 32q0 17 -13 32t-35 15t-34.5 -15t-12.5 -32z" />
<glyph unicode="&#xe6;" horiz-adv-x="1357" d="M43 229q0 135 112.5 196.5t369.5 71.5v45q0 44 -4 68t-18.5 46t-46 31t-84.5 9q-108 0 -245 -46l-26 188q164 52 316 52q185 0 270 -73q93 69 222 69q105 0 181.5 -36t120 -101t63.5 -143.5t20 -173.5v-76h-495q0 -88 64 -133.5t150 -45.5q136 0 268 28l9 -173 q-37 -17 -129.5 -34t-229.5 -17q-180 0 -285 105q-150 -105 -328 -105q-136 0 -205.5 68t-69.5 180zM305 233q0 -42 23 -67.5t65 -25.5q64 0 98 45t34 128v37q-108 -6 -164 -31.5t-56 -85.5zM799 499h232q-7 201 -115 201q-114 0 -117 -201z" />
<glyph unicode="&#xe7;" horiz-adv-x="733" d="M47 428q0 215 100 336.5t279 121.5q59 0 130 -14.5t124 -42.5l-77 -196q-64 28 -126 28q-155 0 -155 -229q0 -104 38 -164.5t120 -60.5q81 0 134 29l58 -210q-70 -30 -177 -41l-15 -54q79 -6 107.5 -40.5t28.5 -93.5q0 -51 -17.5 -88.5t-48 -58.5t-67.5 -31t-81 -10 q-77 0 -149 24l39 90q38 -8 51 -8q89 0 89 54q0 32 -23 48.5t-85 16.5l48 151q-163 19 -244 136t-81 307z" />
<glyph unicode="&#xe8;" horiz-adv-x="878" d="M48 423q0 96 22 177.5t67 146.5t122 102t179 37q100 0 175 -36.5t117.5 -100.5t63 -143t20.5 -174v-91h-494q0 -81 69 -122.5t170 -41.5q111 0 243 28l10 -183q-152 -41 -328 -41q-122 0 -210 35.5t-136 99t-69 139t-21 168.5zM93 1249h322l157 -272h-239zM320 514h231 q-3 186 -115 186q-116 0 -116 -186z" />
<glyph unicode="&#xe9;" horiz-adv-x="878" d="M48 423q0 96 22 177.5t67 146.5t122 102t179 37q100 0 175 -36.5t117.5 -100.5t63 -143t20.5 -174v-91h-494q0 -81 69 -122.5t170 -41.5q111 0 243 28l10 -183q-152 -41 -328 -41q-122 0 -210 35.5t-136 99t-69 139t-21 168.5zM320 514h231q-3 186 -115 186 q-116 0 -116 -186zM331 977l131 261h301l-247 -261h-185z" />
<glyph unicode="&#xea;" horiz-adv-x="878" d="M48 423q0 96 22 177.5t67 146.5t122 102t179 37q100 0 175 -36.5t117.5 -100.5t63 -143t20.5 -174v-91h-494q0 -81 69 -122.5t170 -41.5q111 0 243 28l10 -183q-152 -41 -328 -41q-122 0 -210 35.5t-136 99t-69 139t-21 168.5zM130 1018l216 207h170l214 -207l-23 -41 l-275 82l-279 -82zM320 514h231q-3 186 -115 186q-116 0 -116 -186z" />
<glyph unicode="&#xeb;" horiz-adv-x="878" d="M48 423q0 96 22 177.5t67 146.5t122 102t179 37q100 0 175 -36.5t117.5 -100.5t63 -143t20.5 -174v-91h-494q0 -81 69 -122.5t170 -41.5q111 0 243 28l10 -183q-152 -41 -328 -41q-122 0 -210 35.5t-136 99t-69 139t-21 168.5zM207 1089q0 45 29 78.5t71 33.5 q41 0 72 -33.5t31 -78.5t-31 -78.5t-72 -33.5q-42 0 -71 33t-29 79zM320 514h231q-3 186 -115 186q-116 0 -116 -186zM456 1089q0 45 30.5 78.5t72.5 33.5q40 0 70 -33.5t30 -78.5q0 -46 -29.5 -79t-70.5 -33q-42 0 -72.5 33t-30.5 79z" />
<glyph unicode="&#xec;" horiz-adv-x="463" d="M-121 1249h322l156 -272h-238zM73 313v553h262v-566q0 -55 10.5 -78t49.5 -23q12 0 26 4l20 -201q-60 -21 -158 -21q-62 0 -104 23.5t-64.5 69.5t-32 103t-9.5 136z" />
<glyph unicode="&#xed;" horiz-adv-x="463" d="M73 313v553h262v-566q0 -55 10.5 -78t49.5 -23q12 0 26 4l20 -201q-60 -21 -158 -21q-62 0 -104 23.5t-64.5 69.5t-32 103t-9.5 136zM117 977l131 261h301l-247 -261h-185z" />
<glyph unicode="&#xee;" horiz-adv-x="463" d="M-86 1018l216 207h170l214 -207l-22 -41l-276 82l-279 -82zM73 313v553h262v-566q0 -55 10.5 -78t49.5 -23q12 0 26 4l20 -201q-60 -21 -158 -21q-62 0 -104 23.5t-64.5 69.5t-32 103t-9.5 136z" />
<glyph unicode="&#xef;" horiz-adv-x="463" d="M-7 1089q0 45 29 78.5t71 33.5q41 0 71.5 -33.5t30.5 -78.5t-30.5 -78.5t-71.5 -33.5q-42 0 -71 33t-29 79zM73 313v553h262v-566q0 -55 10.5 -78t49.5 -23q12 0 26 4l20 -201q-60 -21 -158 -21q-62 0 -104 23.5t-64.5 69.5t-32 103t-9.5 136zM242 1089q0 45 30 78.5 t72 33.5q41 0 71 -33.5t30 -78.5q0 -46 -30 -79t-71 -33q-42 0 -72 33t-30 79z" />
<glyph unicode="&#xf0;" horiz-adv-x="919" d="M48 441q0 128 28.5 225.5t94 158.5t162.5 61q94 0 172 -78l-118 201l-145 -37l-67 186l108 28l-67 117h281l26 -54l147 39l65 -186l-119 -31l69 -133q32 -56 47.5 -84t44 -88.5t43 -106.5t26.5 -110t12 -125q0 -213 -102.5 -328t-304.5 -115q-198 0 -300.5 116.5 t-102.5 343.5zM337 430q0 -120 33.5 -176.5t85.5 -56.5t83 55.5t31 175.5q0 109 -31.5 172t-84.5 63t-85 -57.5t-32 -175.5z" />
<glyph unicode="&#xf1;" horiz-adv-x="908" d="M80 0v866h250v-119q34 63 105 101t144 38q125 0 190 -84t65 -240v-562h-262v484q0 90 -30.5 133.5t-83.5 43.5q-52 0 -83.5 -46t-31.5 -140v-475h-263zM231 1043q29 75 73 112.5t91 37.5q33 0 83 -26t62 -26q16 0 34 14.5t27 39.5l88 -54q-28 -73 -73 -112t-93 -39 q-34 0 -85 27t-62 27q-13 0 -31.5 -15.5t-26.5 -39.5z" />
<glyph unicode="&#xf2;" d="M48 434q0 73 14.5 138.5t47 123.5t79.5 99.5t117 66t156 24.5q106 0 187 -36.5t129.5 -100.5t72.5 -143.5t24 -171.5t-24 -171.5t-72.5 -143.5t-129.5 -101t-187 -37q-107 0 -188.5 37t-129.5 101t-72 143.5t-24 171.5zM123 1249h322l156 -272h-238zM324 434 q0 -102 38 -166.5t100 -64.5t100 64.5t38 166.5q0 103 -37.5 166t-100.5 63q-64 0 -101 -63t-37 -166z" />
<glyph unicode="&#xf3;" d="M48 434q0 73 14.5 138.5t47 123.5t79.5 99.5t117 66t156 24.5q106 0 187 -36.5t129.5 -100.5t72.5 -143.5t24 -171.5t-24 -171.5t-72.5 -143.5t-129.5 -101t-187 -37q-107 0 -188.5 37t-129.5 101t-72 143.5t-24 171.5zM324 434q0 -102 38 -166.5t100 -64.5t100 64.5 t38 166.5q0 103 -37.5 166t-100.5 63q-64 0 -101 -63t-37 -166zM363 977l130 261h302l-248 -261h-184z" />
<glyph unicode="&#xf4;" d="M48 434q0 73 14.5 138.5t47 123.5t79.5 99.5t117 66t156 24.5q106 0 187 -36.5t129.5 -100.5t72.5 -143.5t24 -171.5t-24 -171.5t-72.5 -143.5t-129.5 -101t-187 -37q-107 0 -188.5 37t-129.5 101t-72 143.5t-24 171.5zM160 1018l216 207h170l214 -207l-23 -41l-275 82 l-280 -82zM324 434q0 -102 38 -166.5t100 -64.5t100 64.5t38 166.5q0 103 -37.5 166t-100.5 63q-64 0 -101 -63t-37 -166z" />
<glyph unicode="&#xf5;" d="M48 434q0 73 14.5 138.5t47 123.5t79.5 99.5t117 66t156 24.5q106 0 187 -36.5t129.5 -100.5t72.5 -143.5t24 -171.5t-24 -171.5t-72.5 -143.5t-129.5 -101t-187 -37q-107 0 -188.5 37t-129.5 101t-72 143.5t-24 171.5zM231 1043q29 75 73 112.5t91 37.5q33 0 83 -26 t62 -26q16 0 34 14.5t27 39.5l88 -54q-28 -73 -73 -112t-93 -39q-34 0 -85 27t-62 27q-13 0 -31.5 -15.5t-26.5 -39.5zM324 434q0 -102 38 -166.5t100 -64.5t100 64.5t38 166.5q0 103 -37.5 166t-100.5 63q-64 0 -101 -63t-37 -166z" />
<glyph unicode="&#xf6;" d="M48 434q0 73 14.5 138.5t47 123.5t79.5 99.5t117 66t156 24.5q106 0 187 -36.5t129.5 -100.5t72.5 -143.5t24 -171.5t-24 -171.5t-72.5 -143.5t-129.5 -101t-187 -37q-107 0 -188.5 37t-129.5 101t-72 143.5t-24 171.5zM236 1089q0 45 29.5 78.5t71.5 33.5 q41 0 71.5 -33.5t30.5 -78.5t-30.5 -78.5t-71.5 -33.5q-42 0 -71.5 33t-29.5 79zM324 434q0 -102 38 -166.5t100 -64.5t100 64.5t38 166.5q0 103 -37.5 166t-100.5 63q-64 0 -101 -63t-37 -166zM486 1089q0 45 30 78.5t72 33.5q41 0 71 -33.5t30 -78.5q0 -46 -30 -79 t-71 -33q-42 0 -72 33t-30 79z" />
<glyph unicode="&#xf7;" horiz-adv-x="817" d="M43 354v205h730v-205h-730zM281 101q0 56 34.5 95t86.5 39t85.5 -39t33.5 -95t-33.5 -94.5t-85.5 -38.5q-53 0 -87 38.5t-34 94.5zM281 793q0 54 36 93t85 39q50 0 84.5 -38.5t34.5 -93.5q0 -56 -34.5 -95t-84.5 -39q-49 0 -85 39.5t-36 94.5z" />
<glyph unicode="&#xf8;" d="M48 434q0 73 14.5 138.5t47 123.5t79.5 99.5t117 66t156 24.5q106 0 186 -37l78 130h121l-112 -186q140 -124 140 -359q0 -92 -24 -171.5t-72.5 -143.5t-129.5 -101t-187 -37q-103 0 -188 36l-79 -131h-121l112 188q-138 120 -138 360zM324 434q0 -60 13 -106l186 312 q-34 23 -61 23q-64 0 -101 -63t-37 -166zM397 225q28 -22 65 -22q62 0 100 64.5t38 166.5q0 44 -14 108z" />
<glyph unicode="&#xf9;" horiz-adv-x="906" d="M73 367v499h262v-499q0 -76 32 -118t82 -42q49 0 82 41t33 119v499h263v-866h-237v93q-88 -112 -214 -112q-148 0 -225.5 102t-77.5 284zM114 1249h322l156 -272h-238z" />
<glyph unicode="&#xfa;" horiz-adv-x="906" d="M73 367v499h262v-499q0 -76 32 -118t82 -42q49 0 82 41t33 119v499h263v-866h-237v93q-88 -112 -214 -112q-148 0 -225.5 102t-77.5 284zM352 977l130 261h302l-248 -261h-184z" />
<glyph unicode="&#xfb;" horiz-adv-x="906" d="M73 367v499h262v-499q0 -76 32 -118t82 -42q49 0 82 41t33 119v499h263v-866h-237v93q-88 -112 -214 -112q-148 0 -225.5 102t-77.5 284zM151 1018l216 207h169l214 -207l-22 -41l-276 82l-279 -82z" />
<glyph unicode="&#xfc;" horiz-adv-x="906" d="M73 367v499h262v-499q0 -76 32 -118t82 -42q49 0 82 41t33 119v499h263v-866h-237v93q-88 -112 -214 -112q-148 0 -225.5 102t-77.5 284zM225 1089q0 45 29.5 78.5t71.5 33.5q41 0 71.5 -33.5t30.5 -78.5t-30.5 -78.5t-71.5 -33.5q-42 0 -71.5 33t-29.5 79zM475 1089 q0 45 30 78.5t72 33.5q41 0 71 -33.5t30 -78.5q0 -46 -30 -79t-71 -33q-42 0 -72 33t-30 79z" />
<glyph unicode="&#xfd;" horiz-adv-x="876" d="M17 866h290l134 -611l140 611h279l-313 -981q-46 -144 -112 -200.5t-174 -56.5q-47 0 -72.5 3t-95.5 17l32 188q59 -13 102 -13q37 0 57.5 20t22.5 51l17 67zM339 977l130 261h302l-248 -261h-184z" />
<glyph unicode="&#xfe;" horiz-adv-x="932" d="M82 -354v1732h262v-639q77 147 215 147q158 0 245.5 -119.5t87.5 -328.5q0 -213 -87.5 -335t-245.5 -122q-126 0 -215 133v-468h-262zM344 438q0 -108 37 -168.5t99 -60.5t99 58t37 169q0 109 -37.5 166t-98.5 57q-63 0 -99.5 -57.5t-36.5 -163.5z" />
<glyph unicode="&#xff;" horiz-adv-x="876" d="M17 866h290l134 -611l140 611h279l-313 -981q-46 -144 -112 -200.5t-174 -56.5q-47 0 -72.5 3t-95.5 17l32 188q59 -13 102 -13q37 0 57.5 20t22.5 51l17 67zM214 1089q0 45 29.5 78.5t71.5 33.5q41 0 71.5 -33.5t30.5 -78.5t-30.5 -78.5t-71.5 -33.5q-42 0 -71.5 33 t-29.5 79zM464 1089q0 45 30 78.5t72 33.5q41 0 71 -33.5t30 -78.5q0 -46 -30 -79t-71 -33q-42 0 -72 33t-30 79z" />
<glyph unicode="&#x152;" horiz-adv-x="1683" d="M56 652q0 194 68 345t200.5 238t310.5 87q135 0 255 -60v41h741v-238h-467v-274h394v-238h-394v-315h467v-238h-741v39q-116 -58 -255 -58q-178 0 -310.5 87.5t-200.5 238.5t-68 345zM346 652q0 -181 80 -296.5t214 -115.5q105 0 170 68t80 184v309q-10 119 -77 189.5 t-174 70.5q-132 0 -212.5 -115.5t-80.5 -293.5z" />
<glyph unicode="&#x153;" horiz-adv-x="1437" d="M48 434q0 73 14.5 138.5t47 123.5t79.5 99.5t117 66t156 24.5q169 0 273 -93q98 93 261 93q100 0 175 -36.5t117.5 -100.5t63 -143t20.5 -174v-91h-493q0 -81 68.5 -122.5t169.5 -41.5q112 0 244 28l9 -183q-152 -41 -327 -41q-199 0 -306 93q-104 -93 -275 -93 q-107 0 -188.5 37t-129.5 101t-72 143.5t-24 171.5zM324 434q0 -102 38 -166.5t100 -64.5t100 64.5t38 166.5q0 103 -37.5 166t-100.5 63q-64 0 -101 -63t-37 -166zM879 514h231q-3 186 -116 186q-115 0 -115 -186z" />
<glyph unicode="&#x178;" horiz-adv-x="1068" d="M34 1303h316l186 -582l181 582h318l-354 -860v-443h-290v443zM311 1469q0 45 29 78.5t71 33.5q41 0 72 -33.5t31 -78.5t-31 -78.5t-72 -33.5q-42 0 -71 33t-29 79zM560 1469q0 45 30.5 78.5t72.5 33.5q40 0 70 -33.5t30 -78.5q0 -46 -29.5 -79t-70.5 -33q-42 0 -72.5 33 t-30.5 79z" />
<glyph unicode="&#x2c6;" horiz-adv-x="528" d="M-34 1398l216 207h170l214 -207l-22 -41l-276 82l-279 -82z" />
<glyph unicode="&#x2dc;" horiz-adv-x="534" d="M39 1415q30 75 73.5 113t90.5 38q33 0 83 -26t62 -26q16 0 34.5 14.5t27.5 39.5l87 -54q-28 -73 -73 -112t-93 -39q-34 0 -85 27t-62 27q-13 0 -31 -16t-26 -40z" />
<glyph unicode="&#x2000;" horiz-adv-x="814" />
<glyph unicode="&#x2001;" horiz-adv-x="1629" />
<glyph unicode="&#x2002;" horiz-adv-x="814" />
<glyph unicode="&#x2003;" horiz-adv-x="1629" />
<glyph unicode="&#x2004;" horiz-adv-x="543" />
<glyph unicode="&#x2005;" horiz-adv-x="407" />
<glyph unicode="&#x2006;" horiz-adv-x="271" />
<glyph unicode="&#x2007;" horiz-adv-x="271" />
<glyph unicode="&#x2008;" horiz-adv-x="203" />
<glyph unicode="&#x2009;" horiz-adv-x="325" />
<glyph unicode="&#x200a;" horiz-adv-x="90" />
<glyph unicode="&#x2010;" horiz-adv-x="519" d="M26 372v237h475v-237h-475z" />
<glyph unicode="&#x2011;" horiz-adv-x="519" d="M26 372v237h475v-237h-475z" />
<glyph unicode="&#x2012;" horiz-adv-x="519" d="M26 372v237h475v-237h-475z" />
<glyph unicode="&#x2013;" horiz-adv-x="750" d="M0 283v251h750v-251h-750z" />
<glyph unicode="&#x2014;" horiz-adv-x="1366" d="M128 283v251h1110v-251h-1110z" />
<glyph unicode="&#x2018;" horiz-adv-x="459" d="M48 905l170 398h193l-87 -398h-276z" />
<glyph unicode="&#x2019;" horiz-adv-x="459" d="M48 905l86 398h277l-169 -398h-194z" />
<glyph unicode="&#x201a;" horiz-adv-x="510" d="M37 -207l90 499h314l-171 -499h-233z" />
<glyph unicode="&#x201c;" horiz-adv-x="765" d="M48 905l170 398h193l-87 -398h-276zM354 905l169 398h194l-88 -398h-275z" />
<glyph unicode="&#x201d;" horiz-adv-x="765" d="M48 905l86 398h277l-169 -398h-194zM354 905l87 398h276l-170 -398h-193z" />
<glyph unicode="&#x201e;" horiz-adv-x="848" d="M58 -207l89 499h315l-173 -499h-231zM419 -207l91 499h313l-171 -499h-233z" />
<glyph unicode="&#x2022;" horiz-adv-x="554" d="M71 456q0 88 59 148.5t146 60.5q88 0 148 -60.5t60 -148.5q0 -86 -60.5 -146.5t-147.5 -60.5t-146 60.5t-59 146.5z" />
<glyph unicode="&#x2026;" horiz-adv-x="1239" d="M73 134q0 62 38.5 104.5t93.5 42.5q56 0 96 -43t40 -104q0 -66 -39.5 -106.5t-96.5 -40.5t-94.5 40t-37.5 107zM486 134q0 62 38.5 104.5t93.5 42.5q56 0 96 -43t40 -104q0 -66 -39.5 -106.5t-96.5 -40.5t-94.5 40t-37.5 107zM899 134q0 62 38.5 104.5t95.5 42.5 q55 0 94.5 -43t39.5 -104q0 -66 -38.5 -106.5t-95.5 -40.5q-58 0 -96 40t-38 107z" />
<glyph unicode="&#x202f;" horiz-adv-x="325" />
<glyph unicode="&#x2039;" horiz-adv-x="588" d="M48 486l324 443l170 -158l-179 -285l175 -279l-175 -155z" />
<glyph unicode="&#x203a;" horiz-adv-x="590" d="M48 203l185 283l-181 285l173 162l317 -447l-313 -439z" />
<glyph unicode="&#x205f;" horiz-adv-x="407" />
<glyph unicode="&#x20ac;" horiz-adv-x="1359" d="M84 419l108 153h69q-2 22 -2 67v9h-175l108 154h76q34 246 166 383t344 137q83 0 172.5 -21t159.5 -63l-77 -212q-97 54 -208 54t-177.5 -74t-90.5 -204h504l-119 -154h-398v-4q0 -50 2 -72h392l-121 -153h-244q66 -197 254 -197q53 0 113 15t104 40l60 -227 q-145 -69 -320 -69q-211 0 -338.5 114t-168.5 324h-193z" />
<glyph unicode="&#x2122;" horiz-adv-x="1323" d="M39 1139v164h510v-164h-164v-577h-180v577h-166zM484 560l136 743h160l104 -443l106 443h157l138 -743h-187l-54 406l-87 -406h-145l-91 404l-53 -404h-184z" />
<glyph unicode="&#xe000;" horiz-adv-x="865" d="M0 0v866h866v-866h-866z" />
</font>
</defs>
</svg>
